<svg version="1.1" viewBox="0.0 0.0 192.0 264.0" fill="none" stroke="none" stroke-linecap="square" stroke-miterlimit="10" xmlns:xlink="http://www.w3.org/1999/xlink" xmlns="http://www.w3.org/2000/svg"><clipPath id="p.0"><path d="m0 0l192.0 0l0 264.0l-192.0 0l0 -264.0z" clip-rule="nonzero"/></clipPath><g clip-path="url(#p.0)"><path fill="#000000" fill-opacity="0.0" d="m0 0l192.0 0l0 264.0l-192.0 0z" fill-rule="evenodd"/><path fill="#cfe2f3" d="m4.60105 45.847878l131.11812 0l0 176.78741l-131.11812 0z" fill-rule="evenodd"/><path stroke="#000000" stroke-width="0.4645669291338583" stroke-linejoin="round" stroke-linecap="butt" d="m4.60105 45.847878l131.11812 0l0 176.78741l-131.11812 0z" fill-rule="evenodd"/><path fill="#000000" d="m12.199485 49.27503q-0.328125 0.609375 -0.5 1.328125q-0.171875 0.71875 -0.171875 1.484375q0 0.75 0.15625 1.46875q0.171875 0.703125 0.515625 1.375l-0.734375 0q-0.40625 -0.65625 -0.609375 -1.375q-0.203125 -0.71875 -0.203125 -1.40625q0 -0.734375 0.203125 -1.515625q0.21875 -0.78125 0.609375 -1.359375l0.734375 0zm2.335495 0.109375q0.875 0 1.421875 0.578125q0.54687405 0.5625 0.54687405 1.609375q0 1.03125 -0.53124905 1.640625q-0.53125 0.59375 -1.4375 0.59375l-1.953125 0l0 -4.421875l1.953125 0zm-0.078125 3.609375q0.46875 0 0.765625 -0.328125q0.3125 -0.34375 0.3125 -1.015625q0 -0.765625 -0.328125 -1.109375q-0.3125 -0.34375 -0.921875 -0.34375l-0.71875 0l0 2.796875l0.890625 0zm4.113448 -2.484375q0.703125 0 1.046875 0.234375q0.359375 0.234375 0.359375 0.65625l0 1.71875q0 0.203125 0.015625 0.40625q0.03125 0.1875 0.09375 0.28125l-0.890625 0q-0.03125 -0.078125 -0.046875 -0.15625q-0.015625 -0.078125 -0.015625 -0.15625q-0.1875 0.203125 -0.46875 0.3125q-0.265625 0.09375 -0.609375 0.09375q-0.5 0 -0.796875 -0.25q-0.296875 -0.25 -0.296875 -0.71875q0 -0.453125 0.265625 -0.6875q0.28125 -0.234375 1.03125 -0.3125q0.5 -0.046875 0.65625 -0.125q0.171875 -0.078125 0.171875 -0.28125q0 -0.203125 -0.125 -0.3125q-0.125 -0.109375 -0.4375 -0.109375q-0.265625 0 -0.421875 0.125q-0.140625 0.109375 -0.171875 0.359375l-0.875 0q0.03125 -0.53125 0.421875 -0.796875q0.40625 -0.28125 1.09375 -0.28125zm-0.734375 2.390625q0 0.1875 0.125 0.296875q0.140625 0.109375 0.421875 0.109375q0.34375 0 0.515625 -0.1875q0.1875 -0.1875 0.1875 -0.546875l0 -0.328125q-0.078125 0.0625 -0.203125 0.09375q-0.125 0.03125 -0.46875 0.078125q-0.296875 0.03125 -0.4375 0.15625q-0.140625 0.109375 -0.140625 0.328125zm3.9369507 -3.265625l0 0.96875l0.640625 0l0 0.59375l-0.640625 0l0 1.59375q0 0.203125 0.0625 0.28125q0.078125 0.078125 0.3125 0.078125q0.078125 0 0.140625 0q0.0625 -0.015625 0.125 -0.03125l0 0.6875q-0.109375 0.03125 -0.25 0.03125q-0.125 0 -0.25 0q-0.578125 0 -0.8125 -0.1875q-0.21875 -0.203125 -0.21875 -0.546875l0 -1.90625l-0.53125 0l0 -0.59375l0.53125 0l0 -0.96875l0.890625 0zm2.5431976 0.875q0.703125 0 1.046875 0.234375q0.359375 0.234375 0.359375 0.65625l0 1.71875q0 0.203125 0.015625 0.40625q0.03125 0.1875 0.09375 0.28125l-0.890625 0q-0.03125 -0.078125 -0.046875 -0.15625q-0.015625 -0.078125 -0.015625 -0.15625q-0.1875 0.203125 -0.46875 0.3125q-0.265625 0.09375 -0.609375 0.09375q-0.5 0 -0.796875 -0.25q-0.296875 -0.25 -0.296875 -0.71875q0 -0.453125 0.265625 -0.6875q0.28125 -0.234375 1.03125 -0.3125q0.5 -0.046875 0.65625 -0.125q0.171875 -0.078125 0.171875 -0.28125q0 -0.203125 -0.125 -0.3125q-0.125 -0.109375 -0.4375 -0.109375q-0.265625 0 -0.421875 0.125q-0.140625 0.109375 -0.171875 0.359375l-0.875 0q0.03125 -0.53125 0.421875 -0.796875q0.40625 -0.28125 1.09375 -0.28125zm-0.734375 2.390625q0 0.1875 0.125 0.296875q0.140625 0.109375 0.421875 0.109375q0.34375 0 0.515625 -0.1875q0.1875 -0.1875 0.1875 -0.546875l0 -0.328125q-0.078125 0.0625 -0.203125 0.09375q-0.125 0.03125 -0.46875 0.078125q-0.296875 0.03125 -0.4375 0.15625q-0.140625 0.109375 -0.140625 0.328125zm4.0775757 -3.515625q0.09375 0 0.25 0.015625q0.15625 0 0.21875 0l0 0.65625q-0.078125 0 -0.171875 0q-0.078125 -0.015625 -0.140625 -0.015625q-0.1875 0 -0.265625 0.078125q-0.078125 0.078125 -0.078125 0.328125l0 0.15625l0.609375 0l0 0.59375l-0.609375 0l0 2.609375l-0.875 0l0 -2.609375l-0.53125 0l0 -0.59375l0.53125 0l0 -0.21875q0 -0.5 0.28125 -0.75q0.296875 -0.25 0.78125 -0.25zm1.703125 0l0 4.421875l-0.875 0l0 -4.421875l0.875 0zm2.2586823 1.125q0.7500019 0 1.2031269 0.46875q0.46875 0.46875 0.46875 1.234375q0 0.765625 -0.46875 1.234375q-0.453125 0.453125 -1.2031269 0.453125q-0.75 0 -1.203125 -0.46875q-0.453125 -0.46875 -0.453125 -1.21875q0 -0.765625 0.4375 -1.234375q0.453125 -0.46875 1.21875 -0.46875zm-0.765625 1.703125q0 0.5 0.203125 0.765625q0.203125 0.25 0.5625 0.25q0.375 0 0.5781269 -0.265625q0.203125 -0.265625 0.203125 -0.75q0 -0.484375 -0.203125 -0.75q-0.1875 -0.28125 -0.5781269 -0.28125q-0.359375 0 -0.5625 0.265625q-0.203125 0.25 -0.203125 0.765625zm3.6328754 -1.609375l0.59375 2.171875l0 0l0.546875 -2.171875l0.84375 0l0.546875 2.171875l0.015625 0l0.59375 -2.171875l0.90625 0l-1.015625 3.203125l-0.90625 0l-0.5625 -2.15625l-0.015625 0l-0.546875 2.15625l-0.921875 0l-1.015625 -3.203125l0.9375 0zm4.7678833 -1.328125q0.40625 0.65625 0.609375 1.375q0.21875 0.71875 0.21875 1.421875q0 0.703125 -0.21875 1.5q-0.203125 0.78125 -0.59375 1.359375l-0.75 0q0.34375 -0.640625 0.515625 -1.34375q0.171875 -0.71875 0.171875 -1.453125q0 -0.78125 -0.171875 -1.484375q-0.171875 -0.71875 -0.5 -1.375l0.71875 0z" fill-rule="nonzero"/><path fill="#000000" d="m115.55877 49.384403l1.546875 3.875l1.515625 -3.875l0.625 0l0 4.421875l-0.421875 0l0 -3.828125l-0.015625 0l-1.515625 3.828125l-0.390625 0l-1.515625 -3.828125l-0.015625 0l0 3.828125l-0.421875 0l0 -4.421875l0.609375 0zm4.9953766 0l0 4.0625l2.46875 0l0 0.359375l-2.90625 0l0 -4.421875l0.4375 0zm4.8942566 0q0.578125 0 0.9375 0.328125q0.359375 0.328125 0.359375 0.9375q0 0.59375 -0.359375 0.921875q-0.359375 0.328125 -0.9375 0.328125l-1.5625 0l0 1.90625l-0.4375 0l0 -4.421875l2.0 0zm-0.09375 2.171875q0.4375 0 0.703125 -0.234375q0.265625 -0.234375 0.265625 -0.671875q0 -0.4375 -0.265625 -0.671875q-0.25 -0.234375 -0.765625 -0.234375l-1.40625 0l0 1.8125l1.46875 0z" fill-rule="nonzero"/><path fill="#efefef" d="m71.793205 4.902956l20.755905 0l0 22.110237l-20.755905 0z" fill-rule="evenodd"/><path stroke="#000000" stroke-width="0.4645669291338583" stroke-linejoin="round" stroke-linecap="butt" d="m71.793205 4.902956l20.755905 0l0 22.110237l-20.755905 0z" fill-rule="evenodd"/><path fill="#000000" d="m74.51328 15.093473l0 2.59375l0.671875 0q0.25 0 0.34375 0.09375q0.109375 0.09375 0.109375 0.25q0 0.140625 -0.109375 0.234375q-0.09375 0.09375 -0.34375 0.09375l-2.015625 0q-0.234375 0 -0.34375 -0.09375q-0.09375 -0.09375 -0.09375 -0.234375q0 -0.15625 0.09375 -0.25q0.109375 -0.09375 0.34375 -0.09375l0.6875 0l0 -2.59375l-0.6875 0q-0.234375 0 -0.34375 -0.09375q-0.09375 -0.09375 -0.09375 -0.25q0 -0.140625 0.09375 -0.234375q0.109375 -0.09375 0.34375 -0.09375l2.015625 0q0.25 0 0.34375 0.09375q0.109375 0.09375 0.109375 0.234375q0 0.15625 -0.109375 0.25q-0.09375 0.09375 -0.34375 0.09375l-0.671875 0zm2.9944 0.3125l0 0.21875q0.171875 -0.15625 0.390625 -0.21875q0.21875 -0.078125 0.484375 -0.078125q0.59375 0 0.9375 0.359375q0.265625 0.296875 0.265625 0.765625l0 1.234375q0.21875 0 0.3125 0.09375q0.109375 0.09375 0.109375 0.25q0 0.140625 -0.109375 0.234375q-0.09375 0.09375 -0.34375 0.09375l-0.59375 0q-0.25 0 -0.359375 -0.09375q-0.09375 -0.09375 -0.09375 -0.234375q0 -0.15625 0.09375 -0.25q0.109375 -0.09375 0.328125 -0.09375l0 -1.25q0 -0.21875 -0.125 -0.328125q-0.15625 -0.125 -0.453125 -0.125q-0.234375 0 -0.40625 0.09375q-0.171875 0.09375 -0.4375 0.375l0 1.234375q0.25 0 0.328125 0.046875q0.15625 0.109375 0.15625 0.296875q0 0.140625 -0.109375 0.234375q-0.09375 0.09375 -0.328125 0.09375l-0.765625 0q-0.234375 0 -0.34375 -0.09375q-0.09375 -0.09375 -0.09375 -0.234375q0 -0.1875 0.15625 -0.296875q0.078125 -0.046875 0.328125 -0.046875l0 -1.609375q-0.21875 0 -0.3125 -0.09375q-0.09375 -0.09375 -0.09375 -0.25q0 -0.140625 0.09375 -0.234375q0.109375 -0.09375 0.34375 -0.09375l0.640625 0zm3.83815 2.578125l0 1.09375l0.390625 0q0.25 0 0.34375 0.09375q0.109375 0.09375 0.109375 0.25q0 0.140625 -0.109375 0.234375q-0.09375 0.09375 -0.34375 0.09375l-1.171875 0q-0.234375 0 -0.34375 -0.09375q-0.109375 -0.09375 -0.109375 -0.234375q0 -0.15625 0.109375 -0.25q0.109375 -0.09375 0.34375 -0.09375l0.109375 0l0 -3.0l-0.109375 0q-0.234375 0 -0.34375 -0.09375q-0.109375 -0.09375 -0.109375 -0.25q0 -0.140625 0.109375 -0.234375q0.109375 -0.09375 0.34375 -0.09375l0.78125 0l0 0.234375q0.234375 -0.171875 0.484375 -0.234375q0.25 -0.078125 0.515625 -0.078125q0.671875 0 1.15625 0.46875q0.484375 0.453125 0.484375 1.046875q0 0.65625 -0.5625 1.09375q-0.484375 0.359375 -1.078125 0.359375q-0.25 0 -0.5 -0.078125q-0.25 -0.078125 -0.5 -0.234375zm1.96875 -1.140625q0 -0.140625 -0.109375 -0.34375q-0.109375 -0.21875 -0.34375 -0.359375q-0.21875 -0.15625 -0.53125 -0.15625q-0.5 0 -0.78125 0.375q-0.203125 0.265625 -0.203125 0.5q0 0.265625 0.28125 0.515625q0.28125 0.25 0.703125 0.25q0.421875 0 0.703125 -0.25q0.28125 -0.25 0.28125 -0.53125zm4.260025 -1.4375l0 2.28125q0.21875 0 0.3125 0.09375q0.109375 0.09375 0.109375 0.25q0 0.140625 -0.109375 0.234375q-0.09375 0.09375 -0.34375 0.09375l-0.625 0l0 -0.15625q-0.296875 0.140625 -0.5625 0.203125q-0.25 0.0625 -0.484375 0.0625q-0.328125 0 -0.578125 -0.140625q-0.234375 -0.140625 -0.375 -0.375q-0.09375 -0.1875 -0.09375 -0.4375l0 -1.4375l-0.109375 0q-0.25 0 -0.359375 -0.09375q-0.09375 -0.09375 -0.09375 -0.25q0 -0.140625 0.09375 -0.234375q0.109375 -0.09375 0.359375 -0.09375l0.78125 0l0 1.984375q0 0.21875 0.09375 0.3125q0.109375 0.09375 0.3125 0.09375q0.203125 0 0.4375 -0.078125q0.234375 -0.078125 0.578125 -0.28125l0 -1.359375l-0.25 0q-0.234375 0 -0.34375 -0.09375q-0.09375 -0.09375 -0.09375 -0.25q0 -0.140625 0.09375 -0.234375q0.109375 -0.09375 0.34375 -0.09375l0.90625 0zm2.416275 0.671875l0 1.328125q0 0.21875 0.09375 0.28125q0.140625 0.109375 0.484375 0.109375q0.515625 0 0.9375 -0.21875q0.171875 -0.078125 0.265625 -0.078125q0.125 0 0.21875 0.09375q0.109375 0.09375 0.109375 0.234375q0 0.140625 -0.109375 0.234375q-0.15625 0.140625 -0.625 0.28125q-0.46875 0.125 -0.796875 0.125q-0.625 0 -0.9375 -0.265625q-0.296875 -0.265625 -0.296875 -0.65625l0 -1.46875l-0.25 0q-0.234375 0 -0.34375 -0.09375q-0.09375 -0.09375 -0.09375 -0.25q0 -0.140625 0.09375 -0.234375q0.109375 -0.09375 0.34375 -0.09375l0.25 0l0 -0.59375q0 -0.25 0.09375 -0.34375q0.09375 -0.109375 0.234375 -0.109375q0.140625 0 0.234375 0.109375q0.09375 0.09375 0.09375 0.34375l0 0.59375l1.234375 0q0.25 0 0.34375 0.09375q0.109375 0.09375 0.109375 0.25q0 0.140625 -0.109375 0.234375q-0.09375 0.09375 -0.34375 0.09375l-1.234375 0z" fill-rule="nonzero"/><path fill="#000000" fill-opacity="0.0" d="m82.17116 27.013193l0 18.856802l0.06299591 0l0 18.843987" fill-rule="evenodd"/><path stroke="#595959" stroke-width="0.5511811023622047" stroke-linejoin="round" stroke-linecap="butt" d="m82.171165 27.013193l0 18.856802l0.06298828 0l0 15.536896" fill-rule="evenodd"/><path fill="#595959" stroke="#595959" stroke-width="0.5511811023622047" stroke-linecap="butt" d="m81.32375 61.40689l0.9104004 2.5013123l0.910408 -2.5013123z" fill-rule="evenodd"/><path fill="#b6d7a8" d="m60.11921 64.72699l44.09449 0l0 22.110237l-44.09449 0z" fill-rule="evenodd"/><path stroke="#000000" stroke-width="0.4645669291338583" stroke-linejoin="round" stroke-linecap="butt" d="m60.11921 64.72699l44.09449 0l0 22.110237l-44.09449 0z" fill-rule="evenodd"/><path fill="#000000" d="m67.9076 74.91751l0 2.59375l1.4375 0l0 -0.625q0 -0.234375 0.09375 -0.328125q0.09375 -0.109375 0.234375 -0.109375q0.15625 0 0.25 0.109375q0.09375 0.09375 0.09375 0.328125l0 1.296875l-3.15625 0q-0.25 0 -0.359375 -0.09375q-0.09375 -0.09375 -0.09375 -0.234375q0 -0.15625 0.09375 -0.25q0.109375 -0.09375 0.359375 -0.09375l0.375 0l0 -2.59375l-0.375 0q-0.25 0 -0.359375 -0.09375q-0.09375 -0.09375 -0.09375 -0.25q0 -0.140625 0.09375 -0.234375q0.109375 -0.09375 0.359375 -0.09375l1.4375 0q0.234375 0 0.328125 0.09375q0.109375 0.09375 0.109375 0.234375q0 0.15625 -0.109375 0.25q-0.09375 0.09375 -0.328125 0.09375l-0.390625 0zm4.510025 -0.953125l0 0.703125l-0.796875 0l0 -0.703125l0.796875 0zm0.09375 1.265625l0 2.28125l0.796875 0q0.234375 0 0.34375 0.09375q0.109375 0.09375 0.109375 0.25q0 0.140625 -0.109375 0.234375q-0.109375 0.09375 -0.34375 0.09375l-2.265625 0q-0.234375 0 -0.34375 -0.09375q-0.09375 -0.09375 -0.09375 -0.234375q0 -0.15625 0.09375 -0.25q0.109375 -0.09375 0.34375 -0.09375l0.796875 0l0 -1.609375l-0.53125 0q-0.234375 0 -0.34375 -0.09375q-0.109375 -0.09375 -0.109375 -0.25q0 -0.140625 0.109375 -0.234375q0.109375 -0.09375 0.34375 -0.09375l1.203125 0zm2.9944 0l0 0.21875q0.171875 -0.15625 0.390625 -0.21875q0.21875 -0.078125 0.484375 -0.078125q0.59375 0 0.9375 0.359375q0.265625 0.296875 0.265625 0.765625l0 1.234375q0.21875 0 0.3125 0.09375q0.109375 0.09375 0.109375 0.25q0 0.140625 -0.109375 0.234375q-0.09375 0.09375 -0.34375 0.09375l-0.59375 0q-0.25 0 -0.359375 -0.09375q-0.09375 -0.09375 -0.09375 -0.234375q0 -0.15625 0.09375 -0.25q0.109375 -0.09375 0.328125 -0.09375l0 -1.25q0 -0.21875 -0.125 -0.328125q-0.15625 -0.125 -0.453125 -0.125q-0.234375 0 -0.40625 0.09375q-0.171875 0.09375 -0.4375 0.375l0 1.234375q0.25 0 0.328125 0.046875q0.15625 0.109375 0.15625 0.296875q0 0.140625 -0.109375 0.234375q-0.09375 0.09375 -0.328125 0.09375l-0.765625 0q-0.234375 0 -0.34375 -0.09375q-0.09375 -0.09375 -0.09375 -0.234375q0 -0.1875 0.15625 -0.296875q0.078125 -0.046875 0.328125 -0.046875l0 -1.609375q-0.21875 0 -0.3125 -0.09375q-0.09375 -0.09375 -0.09375 -0.25q0 -0.140625 0.09375 -0.234375q0.109375 -0.09375 0.34375 -0.09375l0.640625 0zm6.33815 1.8125l-2.734375 0q0.109375 0.265625 0.359375 0.421875q0.265625 0.15625 0.71875 0.15625q0.375 0 0.984375 -0.15625q0.265625 -0.0625 0.359375 -0.0625q0.125 0 0.21875 0.09375q0.09375 0.09375 0.09375 0.234375q0 0.125 -0.09375 0.21875q-0.140625 0.125 -0.640625 0.234375q-0.5 0.109375 -0.96875 0.109375q-0.796875 0 -1.28125 -0.453125q-0.46875 -0.453125 -0.46875 -1.109375q0 -0.703125 0.515625 -1.140625q0.515625 -0.4375 1.1875 -0.4375q0.40625 0 0.75 0.140625q0.34375 0.140625 0.5 0.296875q0.234375 0.25 0.390625 0.59375q0.109375 0.25 0.109375 0.578125l0 0.28125zm-0.734375 -0.65625q-0.15625 -0.296875 -0.40625 -0.4375q-0.25 -0.140625 -0.59375 -0.140625q-0.328125 0 -0.578125 0.140625q-0.25 0.140625 -0.40625 0.4375l1.984375 0zm3.65065 1.796875l0 -0.15625q-0.25 0.140625 -0.5625 0.203125q-0.296875 0.0625 -0.53125 0.0625q-0.546875 0 -0.875 -0.28125q-0.328125 -0.28125 -0.328125 -0.625q0 -0.421875 0.421875 -0.78125q0.421875 -0.359375 1.171875 -0.359375q0.3125 0 0.703125 0.0625l0 -0.15625q0 -0.15625 -0.125 -0.25q-0.125 -0.09375 -0.484375 -0.09375q-0.296875 0 -0.765625 0.125q-0.1875 0.03125 -0.28125 0.03125q-0.125 0 -0.21875 -0.09375q-0.09375 -0.09375 -0.09375 -0.234375q0 -0.09375 0.03125 -0.15625q0.03125 -0.0625 0.078125 -0.09375q0.0625 -0.046875 0.25 -0.09375q0.25 -0.0625 0.5 -0.09375q0.265625 -0.046875 0.46875 -0.046875q0.625 0 0.96875 0.265625q0.34375 0.265625 0.34375 0.734375l0 1.359375l0.109375 0q0.25 0 0.34375 0.09375q0.109375 0.09375 0.109375 0.25q0 0.140625 -0.109375 0.234375q-0.09375 0.09375 -0.34375 0.09375l-0.78125 0zm0 -1.1875q-0.390625 -0.078125 -0.734375 -0.078125q-0.40625 0 -0.703125 0.1875q-0.171875 0.125 -0.171875 0.265625q0 0.09375 0.078125 0.15625q0.171875 0.09375 0.453125 0.09375q0.234375 0 0.53125 -0.09375q0.3125 -0.09375 0.546875 -0.25l0 -0.28125zm3.260025 -1.765625l0 0.421875q0.421875 -0.3125 0.65625 -0.40625q0.25 -0.09375 0.453125 -0.09375q0.328125 0 0.640625 0.234375q0.203125 0.15625 0.203125 0.328125q0 0.140625 -0.109375 0.25q-0.09375 0.09375 -0.234375 0.09375q-0.125 0 -0.265625 -0.125q-0.125 -0.125 -0.234375 -0.125q-0.140625 0 -0.421875 0.1875q-0.265625 0.171875 -0.6875 0.515625l0 1.0l0.953125 0q0.234375 0 0.328125 0.09375q0.109375 0.09375 0.109375 0.25q0 0.140625 -0.109375 0.234375q-0.09375 0.09375 -0.328125 0.09375l-2.015625 0q-0.234375 0 -0.34375 -0.09375q-0.109375 -0.09375 -0.109375 -0.234375q0 -0.15625 0.109375 -0.25q0.109375 -0.09375 0.34375 -0.09375l0.390625 0l0 -1.609375l-0.234375 0q-0.234375 0 -0.34375 -0.09375q-0.109375 -0.09375 -0.109375 -0.25q0 -0.140625 0.109375 -0.234375q0.109375 -0.09375 0.34375 -0.09375l0.90625 0zm8.473175 -1.359375l0 3.640625l0.671875 0q0.234375 0 0.328125 0.09375q0.109375 0.09375 0.109375 0.25q0 0.140625 -0.109375 0.234375q-0.09375 0.09375 -0.328125 0.09375l-2.015625 0q-0.25 0 -0.359375 -0.09375q-0.09375 -0.09375 -0.09375 -0.234375q0 -0.15625 0.09375 -0.25q0.109375 -0.09375 0.359375 -0.09375l0.671875 0l0 -2.765625l-0.59375 0.140625q-0.140625 0.046875 -0.21875 0.046875q-0.125 0 -0.21875 -0.09375q-0.09375 -0.109375 -0.09375 -0.25q0 -0.140625 0.0625 -0.21875q0.078125 -0.078125 0.296875 -0.125l1.4375 -0.375z" fill-rule="nonzero"/><path fill="#b6d7a8" d="m60.11921 103.86642l44.09449 0l0 22.110237l-44.09449 0z" fill-rule="evenodd"/><path stroke="#000000" stroke-width="0.4645669291338583" stroke-linejoin="round" stroke-linecap="butt" d="m60.11921 103.86642l44.09449 0l0 22.110237l-44.09449 0z" fill-rule="evenodd"/><path fill="#000000" d="m77.849525 116.103806l0 0.890625q-0.453125 0.25 -0.765625 0.328125q-0.3125 0.09375 -0.6875 0.09375q-0.5 0 -0.9375 -0.15625q-0.34375 -0.109375 -0.546875 -0.28125q-0.1875 -0.1875 -0.359375 -0.53125q-0.15625 -0.359375 -0.15625 -0.78125l0 -0.484375q0 -0.671875 0.40625 -1.1875q0.53125 -0.71875 1.484375 -0.71875q0.265625 0 0.5 0.0625q0.25 0.0625 0.484375 0.171875q0.125 -0.125 0.25 -0.125q0.15625 0 0.234375 0.109375q0.09375 0.09375 0.09375 0.328125l0 0.4375q0 0.234375 -0.09375 0.34375q-0.09375 0.09375 -0.234375 0.09375q-0.109375 0 -0.203125 -0.0625q-0.0625 -0.046875 -0.109375 -0.21875q-0.046875 -0.171875 -0.09375 -0.234375q-0.09375 -0.09375 -0.3125 -0.15625q-0.21875 -0.078125 -0.5 -0.078125q-0.390625 0 -0.6875 0.15625q-0.203125 0.125 -0.390625 0.421875q-0.171875 0.296875 -0.171875 0.65625l0 0.484375q0 0.53125 0.3125 0.8125q0.3125 0.28125 0.984375 0.28125q0.453125 0 0.84375 -0.171875l0 -0.484375l-0.6875 0q-0.234375 0 -0.34375 -0.09375q-0.09375 -0.09375 -0.09375 -0.234375q0 -0.15625 0.09375 -0.25q0.109375 -0.09375 0.34375 -0.09375l1.1875 0q0.234375 0 0.328125 0.09375q0.109375 0.09375 0.109375 0.25q0 0.109375 -0.078125 0.203125q-0.0625 0.078125 -0.203125 0.125zm1.635025 -0.421875l0 0.96875l1.703125 0l0 -0.359375q0 -0.234375 0.09375 -0.328125q0.09375 -0.109375 0.234375 -0.109375q0.15625 0 0.234375 0.109375q0.09375 0.09375 0.09375 0.328125l0 1.03125l-3.125 0q-0.25 0 -0.359375 -0.09375q-0.09375 -0.09375 -0.09375 -0.234375q0 -0.15625 0.109375 -0.25q0.109375 -0.09375 0.34375 -0.09375l0.09375 0l0 -2.59375l-0.09375 0q-0.25 0 -0.359375 -0.09375q-0.09375 -0.09375 -0.09375 -0.25q0 -0.140625 0.09375 -0.234375q0.109375 -0.09375 0.359375 -0.09375l2.984375 0l0 1.015625q0 0.234375 -0.09375 0.34375q-0.09375 0.09375 -0.234375 0.09375q-0.15625 0 -0.25 -0.09375q-0.09375 -0.109375 -0.09375 -0.34375l0 -0.34375l-1.546875 0l0 0.953125l0.578125 0q0 -0.265625 0.0625 -0.328125q0.09375 -0.171875 0.28125 -0.171875q0.140625 0 0.234375 0.109375q0.09375 0.109375 0.09375 0.34375l0 0.765625q0 0.21875 -0.046875 0.296875q-0.109375 0.15625 -0.28125 0.15625q-0.1875 0 -0.28125 -0.171875q-0.0625 -0.0625 -0.0625 -0.328125l-0.578125 0zm4.40065 -1.625l0 2.59375l1.4375 0l0 -0.625q0 -0.234375 0.09375 -0.328125q0.09375 -0.109375 0.234375 -0.109375q0.15625 0 0.25 0.109375q0.09375 0.09375 0.09375 0.328125l0 1.296875l-3.15625 0q-0.25 0 -0.359375 -0.09375q-0.09375 -0.09375 -0.09375 -0.234375q0 -0.15625 0.09375 -0.25q0.109375 -0.09375 0.359375 -0.09375l0.375 0l0 -2.59375l-0.375 0q-0.25 0 -0.359375 -0.09375q-0.09375 -0.09375 -0.09375 -0.25q0 -0.140625 0.09375 -0.234375q0.109375 -0.09375 0.359375 -0.09375l1.4375 0q0.234375 0 0.328125 0.09375q0.109375 0.09375 0.109375 0.234375q0 0.15625 -0.109375 0.25q-0.09375 0.09375 -0.328125 0.09375l-0.390625 0zm5.791275 0l0 1.875q0 0.625 -0.453125 1.0625q-0.4375 0.421875 -1.046875 0.421875q-0.3125 0 -0.59375 -0.109375q-0.265625 -0.109375 -0.484375 -0.3125q-0.21875 -0.21875 -0.34375 -0.4375q-0.109375 -0.234375 -0.109375 -0.625l0 -1.875q-0.21875 0 -0.3125 -0.09375q-0.09375 -0.109375 -0.09375 -0.25q0 -0.140625 0.09375 -0.234375q0.09375 -0.09375 0.34375 -0.09375l0.875 0q0.234375 0 0.34375 0.09375q0.109375 0.09375 0.109375 0.234375q0 0.15625 -0.109375 0.25q-0.109375 0.09375 -0.34375 0.09375l-0.234375 0l0 1.9375q0 0.296875 0.234375 0.53125q0.25 0.234375 0.609375 0.234375q0.234375 0 0.4375 -0.109375q0.203125 -0.125 0.328125 -0.328125q0.09375 -0.140625 0.09375 -0.328125l0 -1.9375l-0.25 0q-0.234375 0 -0.34375 -0.09375q-0.09375 -0.09375 -0.09375 -0.25q0 -0.140625 0.09375 -0.234375q0.109375 -0.09375 0.34375 -0.09375l0.875 0q0.25 0 0.34375 0.09375q0.109375 0.09375 0.109375 0.234375q0 0.140625 -0.109375 0.25q-0.09375 0.09375 -0.3125 0.09375z" fill-rule="nonzero"/><path fill="#b6d7a8" d="m60.11921 140.45872l44.09449 0l0 22.11023l-44.09449 0z" fill-rule="evenodd"/><path stroke="#000000" stroke-width="0.4645669291338583" stroke-linejoin="round" stroke-linecap="butt" d="m60.11921 140.45872l44.09449 0l0 22.11023l-44.09449 0z" fill-rule="evenodd"/><path fill="#000000" d="m67.9076 150.64925l0 2.59375l1.4375 0l0 -0.625q0 -0.234375 0.09375 -0.328125q0.09375 -0.109375 0.234375 -0.109375q0.15625 0 0.25 0.109375q0.09375 0.09375 0.09375 0.328125l0 1.296875l-3.15625 0q-0.25 0 -0.359375 -0.09375q-0.09375 -0.09375 -0.09375 -0.234375q0 -0.15625 0.09375 -0.25q0.109375 -0.09375 0.359375 -0.09375l0.375 0l0 -2.59375l-0.375 0q-0.25 0 -0.359375 -0.09375q-0.09375 -0.09375 -0.09375 -0.25q0 -0.140625 0.09375 -0.234375q0.109375 -0.09375 0.359375 -0.09375l1.4375 0q0.234375 0 0.328125 0.09375q0.109375 0.09375 0.109375 0.234375q0 0.15625 -0.109375 0.25q-0.09375 0.09375 -0.328125 0.09375l-0.390625 0zm4.510025 -0.953125l0 0.703125l-0.796875 0l0 -0.703125l0.796875 0zm0.09375 1.265625l0 2.28125l0.796875 0q0.234375 0 0.34375 0.09375q0.109375 0.09375 0.109375 0.25q0 0.140625 -0.109375 0.234375q-0.109375 0.09375 -0.34375 0.09375l-2.265625 0q-0.234375 0 -0.34375 -0.09375q-0.09375 -0.09375 -0.09375 -0.234375q0 -0.15625 0.09375 -0.25q0.109375 -0.09375 0.34375 -0.09375l0.796875 0l0 -1.609375l-0.53125 0q-0.234375 0 -0.34375 -0.09375q-0.109375 -0.09375 -0.109375 -0.25q0 -0.140625 0.109375 -0.234375q0.109375 -0.09375 0.34375 -0.09375l1.203125 0zm2.9944 0l0 0.21875q0.171875 -0.15625 0.390625 -0.21875q0.21875 -0.078125 0.484375 -0.078125q0.59375 0 0.9375 0.359375q0.265625 0.296875 0.265625 0.765625l0 1.234375q0.21875 0 0.3125 0.09375q0.109375 0.09375 0.109375 0.25q0 0.140625 -0.109375 0.234375q-0.09375 0.09375 -0.34375 0.09375l-0.59375 0q-0.25 0 -0.359375 -0.09375q-0.09375 -0.09375 -0.09375 -0.234375q0 -0.15625 0.09375 -0.25q0.109375 -0.09375 0.328125 -0.09375l0 -1.25q0 -0.21875 -0.125 -0.328125q-0.15625 -0.125 -0.453125 -0.125q-0.234375 0 -0.40625 0.09375q-0.171875 0.09375 -0.4375 0.375l0 1.234375q0.25 0 0.328125 0.046875q0.15625 0.109375 0.15625 0.296875q0 0.140625 -0.109375 0.234375q-0.09375 0.09375 -0.328125 0.09375l-0.765625 0q-0.234375 0 -0.34375 -0.09375q-0.09375 -0.09375 -0.09375 -0.234375q0 -0.1875 0.15625 -0.296875q0.078125 -0.046875 0.328125 -0.046875l0 -1.609375q-0.21875 0 -0.3125 -0.09375q-0.09375 -0.09375 -0.09375 -0.25q0 -0.140625 0.09375 -0.234375q0.109375 -0.09375 0.34375 -0.09375l0.640625 0zm6.33815 1.8125l-2.734375 0q0.109375 0.265625 0.359375 0.421875q0.265625 0.15625 0.71875 0.15625q0.375 0 0.984375 -0.15625q0.265625 -0.0625 0.359375 -0.0625q0.125 0 0.21875 0.09375q0.09375 0.09375 0.09375 0.234375q0 0.125 -0.09375 0.21875q-0.140625 0.125 -0.640625 0.234375q-0.5 0.109375 -0.96875 0.109375q-0.796875 0 -1.28125 -0.453125q-0.46875 -0.453125 -0.46875 -1.109375q0 -0.703125 0.515625 -1.140625q0.515625 -0.4375 1.1875 -0.4375q0.40625 0 0.75 0.140625q0.34375 0.140625 0.5 0.296875q0.234375 0.25 0.390625 0.59375q0.109375 0.25 0.109375 0.578125l0 0.28125zm-0.734375 -0.65625q-0.15625 -0.296875 -0.40625 -0.4375q-0.25 -0.140625 -0.59375 -0.140625q-0.328125 0 -0.578125 0.140625q-0.25 0.140625 -0.40625 0.4375l1.984375 0zm3.65065 1.796875l0 -0.15625q-0.25 0.140625 -0.5625 0.203125q-0.296875 0.0625 -0.53125 0.0625q-0.546875 0 -0.875 -0.28125q-0.328125 -0.28125 -0.328125 -0.625q0 -0.421875 0.421875 -0.78125q0.421875 -0.359375 1.171875 -0.359375q0.3125 0 0.703125 0.0625l0 -0.15625q0 -0.15625 -0.125 -0.25q-0.125 -0.09375 -0.484375 -0.09375q-0.296875 0 -0.765625 0.125q-0.1875 0.03125 -0.28125 0.03125q-0.125 0 -0.21875 -0.09375q-0.09375 -0.09375 -0.09375 -0.234375q0 -0.09375 0.03125 -0.15625q0.03125 -0.0625 0.078125 -0.09375q0.0625 -0.046875 0.25 -0.09375q0.25 -0.0625 0.5 -0.09375q0.265625 -0.046875 0.46875 -0.046875q0.625 0 0.96875 0.265625q0.34375 0.265625 0.34375 0.734375l0 1.359375l0.109375 0q0.25 0 0.34375 0.09375q0.109375 0.09375 0.109375 0.25q0 0.140625 -0.109375 0.234375q-0.09375 0.09375 -0.34375 0.09375l-0.78125 0zm0 -1.1875q-0.390625 -0.078125 -0.734375 -0.078125q-0.40625 0 -0.703125 0.1875q-0.171875 0.125 -0.171875 0.265625q0 0.09375 0.078125 0.15625q0.171875 0.09375 0.453125 0.09375q0.234375 0 0.53125 -0.09375q0.3125 -0.09375 0.546875 -0.25l0 -0.28125zm3.260025 -1.765625l0 0.421875q0.421875 -0.3125 0.65625 -0.40625q0.25 -0.09375 0.453125 -0.09375q0.328125 0 0.640625 0.234375q0.203125 0.15625 0.203125 0.328125q0 0.140625 -0.109375 0.25q-0.09375 0.09375 -0.234375 0.09375q-0.125 0 -0.265625 -0.125q-0.125 -0.125 -0.234375 -0.125q-0.140625 0 -0.421875 0.1875q-0.265625 0.171875 -0.6875 0.515625l0 1.0l0.953125 0q0.234375 0 0.328125 0.09375q0.109375 0.09375 0.109375 0.25q0 0.140625 -0.109375 0.234375q-0.09375 0.09375 -0.328125 0.09375l-2.015625 0q-0.234375 0 -0.34375 -0.09375q-0.109375 -0.09375 -0.109375 -0.234375q0 -0.15625 0.109375 -0.25q0.109375 -0.09375 0.34375 -0.09375l0.390625 0l0 -1.609375l-0.234375 0q-0.234375 0 -0.34375 -0.09375q-0.109375 -0.09375 -0.109375 -0.25q0 -0.140625 0.109375 -0.234375q0.109375 -0.09375 0.34375 -0.09375l0.90625 0zm7.504425 2.28125l1.453125 0q0.125 -0.09375 0.234375 -0.09375q0.15625 0 0.234375 0.109375q0.09375 0.09375 0.09375 0.34375l0 0.3125l-3.03125 0l0 -0.703125q1.796875 -1.484375 2.171875 -1.90625q0.1875 -0.21875 0.1875 -0.421875q0 -0.234375 -0.21875 -0.421875q-0.203125 -0.1875 -0.5625 -0.1875q-0.359375 0 -0.59375 0.203125q-0.125 0.109375 -0.203125 0.328125q-0.03125 0.140625 -0.125 0.203125q-0.078125 0.046875 -0.1875 0.046875q-0.140625 0 -0.25 -0.09375q-0.09375 -0.09375 -0.09375 -0.234375q0 -0.1875 0.171875 -0.484375q0.1875 -0.296875 0.53125 -0.46875q0.359375 -0.171875 0.765625 -0.171875q0.625 0 1.03125 0.390625q0.40625 0.375 0.40625 0.921875q0 0.265625 -0.125 0.5q-0.109375 0.234375 -0.546875 0.65625q-0.34375 0.328125 -1.34375 1.171875z" fill-rule="nonzero"/><path fill="#000000" fill-opacity="0.0" d="m82.16645 86.83723l0 8.514572l0.06299591 0l0 8.524803" fill-rule="evenodd"/><path stroke="#595959" stroke-width="0.5511811023622047" stroke-linejoin="round" stroke-linecap="butt" d="m82.16645 86.83723l0 8.514572l0.06299591 0l0 5.2177124" fill-rule="evenodd"/><path fill="#595959" stroke="#595959" stroke-width="0.5511811023622047" stroke-linecap="butt" d="m81.31904 100.56951l0.910408 2.5013123l0.9104004 -2.5013123z" fill-rule="evenodd"/><path fill="#000000" fill-opacity="0.0" d="m82.16645 125.976654l0 7.2410583l0.06299591 0l0 7.2471313" fill-rule="evenodd"/><path stroke="#595959" stroke-width="0.5511811023622047" stroke-linejoin="round" stroke-linecap="butt" d="m82.16645 125.976654l0 7.241043l0.06299591 0l0 3.9400635" fill-rule="evenodd"/><path fill="#595959" stroke="#595959" stroke-width="0.5511811023622047" stroke-linecap="butt" d="m81.31904 137.15776l0.910408 2.5013123l0.9104004 -2.5013123z" fill-rule="evenodd"/><path fill="#b6d7a8" d="m60.11921 177.05103l44.09449 0l0 22.110245l-44.09449 0z" fill-rule="evenodd"/><path stroke="#000000" stroke-width="0.4645669291338583" stroke-linejoin="round" stroke-linecap="butt" d="m60.11921 177.05103l44.09449 0l0 22.110245l-44.09449 0z" fill-rule="evenodd"/><path fill="#000000" d="m63.913204 187.24155l0 2.59375l1.4374962 0l0 -0.625q0 -0.234375 0.09375 -0.328125q0.09375 -0.109375 0.234375 -0.109375q0.15625 0 0.25 0.109375q0.09375 0.09375 0.09375 0.328125l0 1.296875l-3.1562462 0q-0.25 0 -0.359375 -0.09375q-0.09375 -0.09375 -0.09375 -0.234375q0 -0.15625 0.09375 -0.25q0.109375 -0.09375 0.359375 -0.09375l0.375 0l0 -2.59375l-0.375 0q-0.25 0 -0.359375 -0.09375q-0.09375 -0.09375 -0.09375 -0.25q0 -0.140625 0.09375 -0.234375q0.109375 -0.09375 0.359375 -0.09375l1.4374962 0q0.234375 0 0.328125 0.09375q0.109375 0.09375 0.109375 0.234375q0 0.15625 -0.109375 0.25q-0.09375 0.09375 -0.328125 0.09375l-0.3906212 0zm4.869396 3.265625l0 -0.15625q-0.25 0.140625 -0.5625 0.203125q-0.296875 0.0625 -0.53125 0.0625q-0.546875 0 -0.875 -0.28125q-0.328125 -0.28125 -0.328125 -0.625q0 -0.421875 0.421875 -0.78125q0.421875 -0.359375 1.171875 -0.359375q0.3125 0 0.703125 0.0625l0 -0.15625q0 -0.15625 -0.125 -0.25q-0.125 -0.09375 -0.484375 -0.09375q-0.296875 0 -0.765625 0.125q-0.1875 0.03125 -0.28125 0.03125q-0.125 0 -0.21875 -0.09375q-0.09375 -0.09375 -0.09375 -0.234375q0 -0.09375 0.03125 -0.15625q0.03125 -0.0625 0.078125 -0.09375q0.0625 -0.046875 0.25 -0.09375q0.25 -0.0625 0.5 -0.09375q0.265625 -0.046875 0.46875 -0.046875q0.625 0 0.96875 0.265625q0.34375 0.265625 0.34375 0.734375l0 1.359375l0.109375 0q0.25 0 0.34375 0.09375q0.109375 0.09375 0.109375 0.25q0 0.140625 -0.109375 0.234375q-0.09375 0.09375 -0.34375 0.09375l-0.78125 0zm0 -1.1875q-0.390625 -0.078125 -0.734375 -0.078125q-0.40625 0 -0.703125 0.1875q-0.171875 0.125 -0.171875 0.265625q0 0.09375 0.078125 0.15625q0.171875 0.09375 0.453125 0.09375q0.234375 0 0.53125 -0.09375q0.3125 -0.09375 0.546875 -0.25l0 -0.28125zm3.02565 1.171875l-1.15625 -2.265625q-0.15625 -0.015625 -0.25 -0.109375q-0.078125 -0.09375 -0.078125 -0.21875q0 -0.15625 0.09375 -0.25q0.109375 -0.09375 0.34375 -0.09375l0.609375 0q0.25 0 0.34375 0.09375q0.109375 0.09375 0.109375 0.25q0 0.140625 -0.109375 0.234375q-0.09375 0.09375 -0.3125 0.09375l0.78125 1.53125l0.78125 -1.53125q-0.21875 0 -0.328125 -0.09375q-0.09375 -0.09375 -0.09375 -0.25q0 -0.140625 0.09375 -0.234375q0.109375 -0.09375 0.359375 -0.09375l0.625 0q0.234375 0 0.328125 0.09375q0.109375 0.09375 0.109375 0.25q0 0.125 -0.09375 0.21875q-0.078125 0.09375 -0.25 0.109375l-1.53125 3.0q0.25 0 0.328125 0.0625q0.15625 0.09375 0.15625 0.28125q0 0.140625 -0.109375 0.234375q-0.09375 0.09375 -0.34375 0.09375l-1.453125 0q-0.234375 0 -0.34375 -0.09375q-0.09375 -0.09375 -0.09375 -0.234375q0 -0.15625 0.09375 -0.25q0.109375 -0.09375 0.34375 -0.09375l0.671875 0l0.375 -0.734375zm6.041275 -1.125l-2.734375 0q0.109375 0.265625 0.359375 0.421875q0.265625 0.15625 0.71875 0.15625q0.375 0 0.984375 -0.15625q0.265625 -0.0625 0.359375 -0.0625q0.125 0 0.21875 0.09375q0.09375 0.09375 0.09375 0.234375q0 0.125 -0.09375 0.21875q-0.140625 0.125 -0.640625 0.234375q-0.5 0.109375 -0.96875 0.109375q-0.796875 0 -1.28125 -0.453125q-0.46875 -0.453125 -0.46875 -1.109375q0 -0.703125 0.515625 -1.140625q0.515625 -0.4375 1.1875 -0.4375q0.40625 0 0.75 0.140625q0.34375 0.140625 0.5 0.296875q0.234375 0.25 0.390625 0.59375q0.109375 0.25 0.109375 0.578125l0 0.28125zm-0.734375 -0.65625q-0.15625 -0.296875 -0.40625 -0.4375q-0.25 -0.140625 -0.59375 -0.140625q-0.328125 0 -0.578125 0.140625q-0.25 0.140625 -0.40625 0.4375l1.984375 0zm2.916275 -1.15625l0 0.421875q0.421875 -0.3125 0.65625 -0.40625q0.25 -0.09375 0.453125 -0.09375q0.328125 0 0.640625 0.234375q0.203125 0.15625 0.203125 0.328125q0 0.140625 -0.109375 0.25q-0.09375 0.09375 -0.234375 0.09375q-0.125 0 -0.265625 -0.125q-0.125 -0.125 -0.234375 -0.125q-0.140625 0 -0.421875 0.1875q-0.265625 0.171875 -0.6875 0.515625l0 1.0l0.953125 0q0.234375 0 0.328125 0.09375q0.109375 0.09375 0.109375 0.25q0 0.140625 -0.109375 0.234375q-0.09375 0.09375 -0.328125 0.09375l-2.015625 0q-0.234375 0 -0.34375 -0.09375q-0.109375 -0.09375 -0.109375 -0.234375q0 -0.15625 0.109375 -0.25q0.109375 -0.09375 0.34375 -0.09375l0.390625 0l0 -1.609375l-0.234375 0q-0.234375 0 -0.34375 -0.09375q-0.109375 -0.09375 -0.109375 -0.25q0 -0.140625 0.109375 -0.234375q0.109375 -0.09375 0.34375 -0.09375l0.90625 0zm7.285675 0.265625l0 2.015625l0.25 0q0.234375 0 0.328125 0.09375q0.109375 0.09375 0.109375 0.25q0 0.140625 -0.109375 0.234375q-0.09375 0.09375 -0.328125 0.09375l-0.875 0q-0.234375 0 -0.34375 -0.09375q-0.109375 -0.09375 -0.109375 -0.234375q0 -0.15625 0.09375 -0.25q0.109375 -0.09375 0.328125 -0.09375l0 -2.59375l-0.109375 0q-0.234375 0 -0.34375 -0.09375q-0.09375 -0.09375 -0.09375 -0.25q0 -0.140625 0.09375 -0.234375q0.109375 -0.09375 0.34375 -0.09375l0.765625 0l1.703125 2.671875l0 -2.0l-0.234375 0q-0.234375 0 -0.34375 -0.09375q-0.09375 -0.09375 -0.09375 -0.25q0 -0.140625 0.09375 -0.234375q0.109375 -0.09375 0.34375 -0.09375l0.875 0q0.234375 0 0.34375 0.09375q0.109375 0.09375 0.109375 0.234375q0 0.140625 -0.109375 0.25q-0.09375 0.09375 -0.3125 0.09375l0 3.265625l-0.65625 0l-1.71875 -2.6875zm6.572525 1.265625q0 0.390625 -0.21875 0.75q-0.21875 0.359375 -0.640625 0.578125q-0.421875 0.203125 -0.875 0.203125q-0.453125 0 -0.875 -0.203125q-0.40625 -0.21875 -0.625 -0.578125q-0.21875 -0.359375 -0.21875 -0.75q0 -0.40625 0.21875 -0.78125q0.21875 -0.390625 0.625 -0.609375q0.421875 -0.21875 0.875 -0.21875q0.453125 0 0.875 0.21875q0.421875 0.21875 0.640625 0.609375q0.21875 0.375 0.21875 0.78125zm-0.671875 0q0 -0.3125 -0.234375 -0.59375q-0.3125 -0.359375 -0.828125 -0.359375q-0.453125 0 -0.75 0.296875q-0.296875 0.28125 -0.296875 0.671875q0 0.296875 0.296875 0.578125q0.3125 0.265625 0.75 0.265625q0.453125 0 0.75 -0.265625q0.3125 -0.28125 0.3125 -0.59375zm2.791275 -1.53125l0 0.421875q0.421875 -0.3125 0.65625 -0.40625q0.25 -0.09375 0.453125 -0.09375q0.328125 0 0.640625 0.234375q0.203125 0.15625 0.203125 0.328125q0 0.140625 -0.109375 0.25q-0.09375 0.09375 -0.234375 0.09375q-0.125 0 -0.265625 -0.125q-0.125 -0.125 -0.234375 -0.125q-0.140625 0 -0.421875 0.1875q-0.265625 0.171875 -0.6875 0.515625l0 1.0l0.953125 0q0.234375 0 0.328125 0.09375q0.109375 0.09375 0.109375 0.25q0 0.140625 -0.109375 0.234375q-0.09375 0.09375 -0.328125 0.09375l-2.015625 0q-0.234375 0 -0.34375 -0.09375q-0.109375 -0.09375 -0.109375 -0.234375q0 -0.15625 0.109375 -0.25q0.109375 -0.09375 0.34375 -0.09375l0.390625 0l0 -1.609375l-0.234375 0q-0.234375 0 -0.34375 -0.09375q-0.109375 -0.09375 -0.109375 -0.25q0 -0.140625 0.109375 -0.234375q0.109375 -0.09375 0.34375 -0.09375l0.90625 0zm3.103775 0l0 0.1875q0.15625 -0.15625 0.28125 -0.21875q0.140625 -0.0625 0.3125 -0.0625q0.15625 0 0.296875 0.078125q0.140625 0.0625 0.28125 0.21875q0.171875 -0.15625 0.34375 -0.21875q0.171875 -0.0625 0.359375 -0.0625q0.375 0 0.609375 0.1875q0.296875 0.265625 0.296875 0.6875l0 1.484375q0.21875 0 0.3125 0.09375q0.09375 0.09375 0.09375 0.25q0 0.140625 -0.09375 0.234375q-0.09375 0.09375 -0.34375 0.09375l-0.625 0l0 -2.109375q0 -0.140625 -0.0625 -0.203125q-0.046875 -0.0625 -0.171875 -0.0625q-0.109375 0 -0.203125 0.0625q-0.125 0.078125 -0.296875 0.296875l0 1.34375q0.21875 0 0.3125 0.09375q0.109375 0.09375 0.109375 0.25q0 0.140625 -0.109375 0.234375q-0.09375 0.09375 -0.34375 0.09375l-0.625 0l0 -2.109375q0 -0.140625 -0.0625 -0.203125q-0.046875 -0.0625 -0.171875 -0.0625q-0.109375 0 -0.234375 0.078125q-0.109375 0.078125 -0.265625 0.28125l0 1.34375q0.203125 0 0.296875 0.09375q0.109375 0.09375 0.109375 0.25q0 0.140625 -0.109375 0.234375q-0.09375 0.09375 -0.328125 0.09375l-0.609375 0q-0.234375 0 -0.328125 -0.09375q-0.109375 -0.09375 -0.109375 -0.234375q0 -0.15625 0.109375 -0.25q0.09375 -0.09375 0.296875 -0.09375l0 -1.609375q-0.203125 0 -0.296875 -0.09375q-0.109375 -0.09375 -0.109375 -0.25q0 -0.140625 0.109375 -0.234375q0.09375 -0.09375 0.328125 -0.09375l0.640625 0z" fill-rule="nonzero"/><path fill="#000000" fill-opacity="0.0" d="m82.16645 162.56895l0 14.48819" fill-rule="evenodd"/><path stroke="#595959" stroke-width="0.5511811023622047" stroke-linejoin="round" stroke-linecap="butt" d="m82.16645 162.56895l0 11.181107" fill-rule="evenodd"/><path fill="#595959" stroke="#595959" stroke-width="0.5511811023622047" stroke-linecap="butt" d="m81.25605 173.75006l0.9104004 2.5013123l0.910408 -2.5013123z" fill-rule="evenodd"/><path fill="#b6d7a8" d="m60.136215 231.51851l44.09449 0l0 22.11023l-44.09449 0z" fill-rule="evenodd"/><path stroke="#000000" stroke-width="0.4645669291338583" stroke-linejoin="round" stroke-linecap="butt" d="m60.136215 231.51851l44.09449 0l0 22.11023l-44.09449 0z" fill-rule="evenodd"/><path fill="#000000" d="m74.07526 243.00589q0 0.890625 -0.578125 1.484375q-0.5625 0.578125 -1.296875 0.578125q-0.671875 0 -1.203125 -0.484375q-0.65625 -0.609375 -0.65625 -1.578125q0 -0.96875 0.65625 -1.578125q0.53125 -0.5 1.203125 -0.5q0.734375 0 1.296875 0.59375q0.578125 0.59375 0.578125 1.484375zm-0.671875 0q0 -0.609375 -0.375 -1.0q-0.359375 -0.40625 -0.828125 -0.40625q-0.46875 0 -0.84375 0.40625q-0.359375 0.390625 -0.359375 1.0q0 0.609375 0.359375 1.015625q0.375 0.390625 0.84375 0.390625q0.46875 0 0.828125 -0.390625q0.375 -0.40625 0.375 -1.015625zm4.197525 -0.984375l0 2.28125q0.21875 0 0.3125 0.09375q0.109375 0.09375 0.109375 0.25q0 0.140625 -0.109375 0.234375q-0.09375 0.09375 -0.34375 0.09375l-0.625 0l0 -0.15625q-0.296875 0.140625 -0.5625 0.203125q-0.25 0.0625 -0.484375 0.0625q-0.328125 0 -0.578125 -0.140625q-0.234375 -0.140625 -0.375 -0.375q-0.09375 -0.1875 -0.09375 -0.4375l0 -1.4375l-0.109375 0q-0.25 0 -0.359375 -0.09375q-0.09375 -0.09375 -0.09375 -0.25q0 -0.140625 0.09375 -0.234375q0.109375 -0.09375 0.359375 -0.09375l0.78125 0l0 1.984375q0 0.21875 0.09375 0.3125q0.109375 0.09375 0.3125 0.09375q0.203125 0 0.4375 -0.078125q0.234375 -0.078125 0.578125 -0.28125l0 -1.359375l-0.25 0q-0.234375 0 -0.34375 -0.09375q-0.09375 -0.09375 -0.09375 -0.25q0 -0.140625 0.09375 -0.234375q0.109375 -0.09375 0.34375 -0.09375l0.90625 0zm2.416275 0.671875l0 1.328125q0 0.21875 0.09375 0.28125q0.140625 0.109375 0.484375 0.109375q0.515625 0 0.9375 -0.21875q0.171875 -0.078125 0.265625 -0.078125q0.125 0 0.21875 0.09375q0.109375 0.09375 0.109375 0.234375q0 0.140625 -0.109375 0.234375q-0.15625 0.140625 -0.625 0.28125q-0.46875 0.125 -0.796875 0.125q-0.625 0 -0.9375 -0.265625q-0.296875 -0.265625 -0.296875 -0.65625l0 -1.46875l-0.25 0q-0.234375 0 -0.34375 -0.09375q-0.09375 -0.09375 -0.09375 -0.25q0 -0.140625 0.09375 -0.234375q0.109375 -0.09375 0.34375 -0.09375l0.25 0l0 -0.59375q0 -0.25 0.09375 -0.34375q0.09375 -0.109375 0.234375 -0.109375q0.140625 0 0.234375 0.109375q0.09375 0.09375 0.09375 0.34375l0 0.59375l1.234375 0q0.25 0 0.34375 0.09375q0.109375 0.09375 0.109375 0.25q0 0.140625 -0.109375 0.234375q-0.09375 0.09375 -0.34375 0.09375l-1.234375 0zm3.33815 1.90625l0 1.09375l0.390625 0q0.25 0 0.34375 0.09375q0.109375 0.09375 0.109375 0.25q0 0.140625 -0.109375 0.234375q-0.09375 0.09375 -0.34375 0.09375l-1.171875 0q-0.234375 0 -0.34375 -0.09375q-0.109375 -0.09375 -0.109375 -0.234375q0 -0.15625 0.109375 -0.25q0.109375 -0.09375 0.34375 -0.09375l0.109375 0l0 -3.0l-0.109375 0q-0.234375 0 -0.34375 -0.09375q-0.109375 -0.09375 -0.109375 -0.25q0 -0.140625 0.109375 -0.234375q0.109375 -0.09375 0.34375 -0.09375l0.78125 0l0 0.234375q0.234375 -0.171875 0.484375 -0.234375q0.25 -0.078125 0.515625 -0.078125q0.671875 0 1.15625 0.46875q0.484375 0.453125 0.484375 1.046875q0 0.65625 -0.5625 1.09375q-0.484375 0.359375 -1.078125 0.359375q-0.25 0 -0.5 -0.078125q-0.25 -0.078125 -0.5 -0.234375zm1.96875 -1.140625q0 -0.140625 -0.109375 -0.34375q-0.109375 -0.21875 -0.34375 -0.359375q-0.21875 -0.15625 -0.53125 -0.15625q-0.5 0 -0.78125 0.375q-0.203125 0.265625 -0.203125 0.5q0 0.265625 0.28125 0.515625q0.28125 0.25 0.703125 0.25q0.421875 0 0.703125 -0.25q0.28125 -0.25 0.28125 -0.53125zm4.260025 -1.4375l0 2.28125q0.21875 0 0.3125 0.09375q0.109375 0.09375 0.109375 0.25q0 0.140625 -0.109375 0.234375q-0.09375 0.09375 -0.34375 0.09375l-0.625 0l0 -0.15625q-0.296875 0.140625 -0.5625 0.203125q-0.25 0.0625 -0.484375 0.0625q-0.328125 0 -0.578125 -0.140625q-0.234375 -0.140625 -0.375 -0.375q-0.09375 -0.1875 -0.09375 -0.4375l0 -1.4375l-0.109375 0q-0.25 0 -0.359375 -0.09375q-0.09375 -0.09375 -0.09375 -0.25q0 -0.140625 0.09375 -0.234375q0.109375 -0.09375 0.359375 -0.09375l0.78125 0l0 1.984375q0 0.21875 0.09375 0.3125q0.109375 0.09375 0.3125 0.09375q0.203125 0 0.4375 -0.078125q0.234375 -0.078125 0.578125 -0.28125l0 -1.359375l-0.25 0q-0.234375 0 -0.34375 -0.09375q-0.09375 -0.09375 -0.09375 -0.25q0 -0.140625 0.09375 -0.234375q0.109375 -0.09375 0.34375 -0.09375l0.90625 0zm2.416275 0.671875l0 1.328125q0 0.21875 0.09375 0.28125q0.140625 0.109375 0.484375 0.109375q0.515625 0 0.9375 -0.21875q0.171875 -0.078125 0.265625 -0.078125q0.125 0 0.21875 0.09375q0.109375 0.09375 0.109375 0.234375q0 0.140625 -0.109375 0.234375q-0.15625 0.140625 -0.625 0.28125q-0.46875 0.125 -0.796875 0.125q-0.625 0 -0.9375 -0.265625q-0.296875 -0.265625 -0.296875 -0.65625l0 -1.46875l-0.25 0q-0.234375 0 -0.34375 -0.09375q-0.09375 -0.09375 -0.09375 -0.25q0 -0.140625 0.09375 -0.234375q0.109375 -0.09375 0.34375 -0.09375l0.25 0l0 -0.59375q0 -0.25 0.09375 -0.34375q0.09375 -0.109375 0.234375 -0.109375q0.140625 0 0.234375 0.109375q0.09375 0.09375 0.09375 0.34375l0 0.59375l1.234375 0q0.25 0 0.34375 0.09375q0.109375 0.09375 0.109375 0.25q0 0.140625 -0.109375 0.234375q-0.09375 0.09375 -0.34375 0.09375l-1.234375 0z" fill-rule="nonzero"/><path fill="#000000" fill-opacity="0.0" d="m82.16645 199.16127l0.03150177 32.34645" fill-rule="evenodd"/><path stroke="#595959" stroke-width="0.5511811023622047" stroke-linejoin="round" stroke-linecap="butt" d="m82.16645 199.16127l0.028274536 29.039368" fill-rule="evenodd"/><path fill="#595959" stroke="#595959" stroke-width="0.5511811023622047" stroke-linecap="butt" d="m81.284325 228.20154l0.9128418 2.5004272l0.9079666 -2.5022125z" fill-rule="evenodd"/><path fill="#000000" fill-opacity="0.0" d="m166.64098 75.7828l-62.4252 0" fill-rule="evenodd"/><path stroke="#595959" stroke-width="0.5511811023622047" stroke-linejoin="round" stroke-linecap="butt" d="m166.64098 75.78281l-59.11811 0" fill-rule="evenodd"/><path fill="#595959" stroke="#595959" stroke-width="0.5511811023622047" stroke-linecap="butt" d="m107.522865 74.8724l-2.5013123 0.910408l2.5013123 0.9104004z" fill-rule="evenodd"/><path fill="#000000" fill-opacity="0.0" d="m166.63388 151.51454l-62.425194 0" fill-rule="evenodd"/><path stroke="#595959" stroke-width="0.5511811023622047" stroke-linejoin="round" stroke-linecap="butt" d="m166.6339 151.51454l-59.11812 0" fill-rule="evenodd"/><path fill="#595959" stroke="#595959" stroke-width="0.5511811023622047" stroke-linecap="butt" d="m107.51578 150.60414l-2.5013123 0.9104004l2.5013123 0.9104004z" fill-rule="evenodd"/><path fill="#000000" fill-opacity="0.0" d="m166.63388 188.10684l-62.425194 0" fill-rule="evenodd"/><path stroke="#595959" stroke-width="0.5511811023622047" stroke-linejoin="round" stroke-linecap="butt" d="m166.6339 188.10683l-59.11812 0" fill-rule="evenodd"/><path fill="#595959" stroke="#595959" stroke-width="0.5511811023622047" stroke-linecap="butt" d="m107.51578 187.19643l-2.5013123 0.9104004l2.5013123 0.91041565z" fill-rule="evenodd"/><path fill="#efefef" d="m166.64098 64.727684l20.755905 0l0 22.110237l-20.755905 0z" fill-rule="evenodd"/><path stroke="#000000" stroke-width="0.4645669291338583" stroke-linejoin="round" stroke-linecap="butt" d="m166.64098 64.727684l20.755905 0l0 22.110237l-20.755905 0z" fill-rule="evenodd"/><path fill="#000000" d="m169.03293 76.2932l-0.625 1.890625l-0.734375 0l-0.40625 -3.265625q-0.15625 -0.03125 -0.234375 -0.109375q-0.078125 -0.09375 -0.078125 -0.21875q0 -0.15625 0.109375 -0.25q0.109375 -0.09375 0.34375 -0.09375l0.890625 0q0.234375 0 0.328125 0.09375q0.109375 0.09375 0.109375 0.234375q0 0.15625 -0.109375 0.25q-0.09375 0.09375 -0.328125 0.09375l-0.359375 0l0.234375 1.859375l0.515625 -1.546875l0.6875 0l0.53125 1.546875l0.21875 -1.859375l-0.34375 0q-0.25 0 -0.359375 -0.09375q-0.09375 -0.09375 -0.09375 -0.25q0 -0.140625 0.09375 -0.234375q0.109375 -0.09375 0.359375 -0.09375l0.875 0q0.25 0 0.34375 0.09375q0.109375 0.09375 0.109375 0.234375q0 0.125 -0.09375 0.21875q-0.078125 0.09375 -0.234375 0.125l-0.375 3.265625l-0.734375 0l-0.640625 -1.890625zm4.33815 -2.421875l0 3.640625l0.671875 0q0.234375 0 0.328125 0.09375q0.109375 0.09375 0.109375 0.25q0 0.140625 -0.109375 0.234375q-0.09375 0.09375 -0.328125 0.09375l-2.015625 0q-0.25 0 -0.359375 -0.09375q-0.09375 -0.09375 -0.09375 -0.234375q0 -0.15625 0.09375 -0.25q0.109375 -0.09375 0.359375 -0.09375l0.671875 0l0 -2.765625l-0.59375 0.140625q-0.140625 0.046875 -0.21875 0.046875q-0.125 0 -0.21875 -0.09375q-0.09375 -0.109375 -0.09375 -0.25q0 -0.140625 0.0625 -0.21875q0.078125 -0.078125 0.296875 -0.125l1.4375 -0.375zm5.02565 0.1875l-2.140625 4.59375q-0.078125 0.171875 -0.140625 0.234375q-0.09375 0.0625 -0.203125 0.0625q-0.140625 0 -0.25 -0.09375q-0.09375 -0.09375 -0.09375 -0.21875q0 -0.09375 0.078125 -0.265625l2.140625 -4.59375q0.078125 -0.171875 0.140625 -0.21875q0.09375 -0.078125 0.203125 -0.078125q0.140625 0 0.234375 0.09375q0.109375 0.09375 0.109375 0.21875q0 0.09375 -0.078125 0.265625zm1.77565 -0.09375l0 1.5q0.25 -0.15625 0.5 -0.234375q0.25 -0.078125 0.5 -0.078125q0.703125 0 1.171875 0.484375q0.484375 0.46875 0.484375 1.140625q0 0.640625 -0.453125 1.078125q-0.453125 0.4375 -1.21875 0.4375q-0.265625 0 -0.515625 -0.078125q-0.234375 -0.0625 -0.46875 -0.1875l0 0.15625l-0.78125 0q-0.234375 0 -0.34375 -0.09375q-0.09375 -0.09375 -0.09375 -0.234375q0 -0.15625 0.09375 -0.25q0.109375 -0.09375 0.34375 -0.09375l0.109375 0l0 -2.875l-0.109375 0q-0.234375 0 -0.34375 -0.09375q-0.09375 -0.09375 -0.09375 -0.25q0 -0.140625 0.09375 -0.234375q0.109375 -0.09375 0.34375 -0.09375l0.78125 0zm2.0 2.828125q0 -0.40625 -0.296875 -0.6875q-0.28125 -0.296875 -0.703125 -0.296875q-0.421875 0 -0.71875 0.296875q-0.28125 0.28125 -0.28125 0.6875q0 0.359375 0.25 0.59375q0.265625 0.234375 0.75 0.234375q0.46875 0 0.734375 -0.234375q0.265625 -0.234375 0.265625 -0.59375zm3.1819 -2.921875l0 3.640625l0.671875 0q0.234375 0 0.328125 0.09375q0.109375 0.09375 0.109375 0.25q0 0.140625 -0.109375 0.234375q-0.09375 0.09375 -0.328125 0.09375l-2.015625 0q-0.25 0 -0.359375 -0.09375q-0.09375 -0.09375 -0.09375 -0.234375q0 -0.15625 0.09375 -0.25q0.109375 -0.09375 0.359375 -0.09375l0.671875 0l0 -2.765625l-0.59375 0.140625q-0.140625 0.046875 -0.21875 0.046875q-0.125 0 -0.21875 -0.09375q-0.09375 -0.109375 -0.09375 -0.25q0 -0.140625 0.0625 -0.21875q0.078125 -0.078125 0.296875 -0.125l1.4375 -0.375z" fill-rule="nonzero"/><path fill="#efefef" d="m166.63388 140.45941l20.755905 0l0 22.110245l-20.755905 0z" fill-rule="evenodd"/><path stroke="#000000" stroke-width="0.4645669291338583" stroke-linejoin="round" stroke-linecap="butt" d="m166.63388 140.45941l20.755905 0l0 22.110245l-20.755905 0z" fill-rule="evenodd"/><path fill="#000000" d="m169.02583 152.02493l-0.625 1.890625l-0.734375 0l-0.40625 -3.265625q-0.15625 -0.03125 -0.234375 -0.109375q-0.078125 -0.09375 -0.078125 -0.21875q0 -0.15625 0.109375 -0.25q0.109375 -0.09375 0.34375 -0.09375l0.890625 0q0.234375 0 0.328125 0.09375q0.109375 0.09375 0.109375 0.234375q0 0.15625 -0.109375 0.25q-0.09375 0.09375 -0.328125 0.09375l-0.359375 0l0.234375 1.859375l0.515625 -1.546875l0.6875 0l0.53125 1.546875l0.21875 -1.859375l-0.34375 0q-0.25 0 -0.359375 -0.09375q-0.09375 -0.09375 -0.09375 -0.25q0 -0.140625 0.09375 -0.234375q0.109375 -0.09375 0.359375 -0.09375l0.875 0q0.25 0 0.34375 0.09375q0.109375 0.09375 0.109375 0.234375q0 0.125 -0.09375 0.21875q-0.078125 0.09375 -0.234375 0.125l-0.375 3.265625l-0.734375 0l-0.640625 -1.890625zm3.3694 1.21875l1.453125 0q0.125 -0.09375 0.234375 -0.09375q0.15625 0 0.234375 0.109375q0.09375 0.09375 0.09375 0.34375l0 0.3125l-3.03125 0l0 -0.703125q1.796875 -1.484375 2.171875 -1.90625q0.1875 -0.21875 0.1875 -0.421875q0 -0.234375 -0.21875 -0.421875q-0.203125 -0.1875 -0.5625 -0.1875q-0.359375 0 -0.59375 0.203125q-0.125 0.109375 -0.203125 0.328125q-0.03125 0.140625 -0.125 0.203125q-0.078125 0.046875 -0.1875 0.046875q-0.140625 0 -0.25 -0.09375q-0.09375 -0.09375 -0.09375 -0.234375q0 -0.1875 0.171875 -0.484375q0.1875 -0.296875 0.53125 -0.46875q0.359375 -0.171875 0.765625 -0.171875q0.625 0 1.03125 0.390625q0.40625 0.375 0.40625 0.921875q0 0.265625 -0.125 0.5q-0.109375 0.234375 -0.546875 0.65625q-0.34375 0.328125 -1.34375 1.171875zm5.9944 -3.453125l-2.140625 4.59375q-0.078125 0.171875 -0.140625 0.234375q-0.09375 0.0625 -0.203125 0.0625q-0.140625 0 -0.25 -0.09375q-0.09375 -0.09375 -0.09375 -0.21875q0 -0.09375 0.078125 -0.265625l2.140625 -4.59375q0.078125 -0.171875 0.140625 -0.21875q0.09375 -0.078125 0.203125 -0.078125q0.140625 0 0.234375 0.09375q0.109375 0.09375 0.109375 0.21875q0 0.09375 -0.078125 0.265625zm1.77565 -0.09375l0 1.5q0.25 -0.15625 0.5 -0.234375q0.25 -0.078125 0.5 -0.078125q0.703125 0 1.171875 0.484375q0.484375 0.46875 0.484375 1.140625q0 0.640625 -0.453125 1.078125q-0.453125 0.4375 -1.21875 0.4375q-0.265625 0 -0.515625 -0.078125q-0.234375 -0.0625 -0.46875 -0.1875l0 0.15625l-0.78125 0q-0.234375 0 -0.34375 -0.09375q-0.09375 -0.09375 -0.09375 -0.234375q0 -0.15625 0.09375 -0.25q0.109375 -0.09375 0.34375 -0.09375l0.109375 0l0 -2.875l-0.109375 0q-0.234375 0 -0.34375 -0.09375q-0.09375 -0.09375 -0.09375 -0.25q0 -0.140625 0.09375 -0.234375q0.109375 -0.09375 0.34375 -0.09375l0.78125 0zm2.0 2.828125q0 -0.40625 -0.296875 -0.6875q-0.28125 -0.296875 -0.703125 -0.296875q-0.421875 0 -0.71875 0.296875q-0.28125 0.28125 -0.28125 0.6875q0 0.359375 0.25 0.59375q0.265625 0.234375 0.75 0.234375q0.46875 0 0.734375 -0.234375q0.265625 -0.234375 0.265625 -0.59375zm2.21315 0.71875l1.453125 0q0.125 -0.09375 0.234375 -0.09375q0.15625 0 0.234375 0.109375q0.09375 0.09375 0.09375 0.34375l0 0.3125l-3.03125 0l0 -0.703125q1.796875 -1.484375 2.171875 -1.90625q0.1875 -0.21875 0.1875 -0.421875q0 -0.234375 -0.21875 -0.421875q-0.203125 -0.1875 -0.5625 -0.1875q-0.359375 0 -0.59375 0.203125q-0.125 0.109375 -0.203125 0.328125q-0.03125 0.140625 -0.125 0.203125q-0.078125 0.046875 -0.1875 0.046875q-0.140625 0 -0.25 -0.09375q-0.09375 -0.09375 -0.09375 -0.234375q0 -0.1875 0.171875 -0.484375q0.1875 -0.296875 0.53125 -0.46875q0.359375 -0.171875 0.765625 -0.171875q0.625 0 1.03125 0.390625q0.40625 0.375 0.40625 0.921875q0 0.265625 -0.125 0.5q-0.109375 0.234375 -0.546875 0.65625q-0.34375 0.328125 -1.34375 1.171875z" fill-rule="nonzero"/><path fill="#efefef" d="m166.63388 177.05173l20.755905 0l0 22.11023l-20.755905 0z" fill-rule="evenodd"/><path stroke="#000000" stroke-width="0.4645669291338583" stroke-linejoin="round" stroke-linecap="butt" d="m166.63388 177.05173l20.755905 0l0 22.11023l-20.755905 0z" fill-rule="evenodd"/><path fill="#000000" d="m175.01744 188.61725l-0.625 1.890625l-0.734375 0l-0.40625 -3.265625q-0.15625 -0.03125 -0.234375 -0.109375q-0.078125 -0.09375 -0.078125 -0.21875q0 -0.15625 0.109375 -0.25q0.109375 -0.09375 0.34375 -0.09375l0.890625 0q0.234375 0 0.328125 0.09375q0.109375 0.09375 0.109375 0.234375q0 0.15625 -0.109375 0.25q-0.09375 0.09375 -0.328125 0.09375l-0.359375 0l0.234375 1.859375l0.515625 -1.546875l0.6875 0l0.53125 1.546875l0.21875 -1.859375l-0.34375 0q-0.25 0 -0.359375 -0.09375q-0.09375 -0.09375 -0.09375 -0.25q0 -0.140625 0.09375 -0.234375q0.109375 -0.09375 0.359375 -0.09375l0.875 0q0.25 0 0.34375 0.09375q0.109375 0.09375 0.109375 0.234375q0 0.125 -0.09375 0.21875q-0.078125 0.09375 -0.234375 0.125l-0.375 3.265625l-0.734375 0l-0.640625 -1.890625zm4.947525 -0.328125q0.296875 0.1875 0.4375 0.453125q0.140625 0.265625 0.140625 0.59375q0 0.359375 -0.1875 0.65625q-0.1875 0.296875 -0.5625 0.453125q-0.359375 0.15625 -0.96875 0.15625q-0.765625 0 -1.15625 -0.234375q-0.21875 -0.140625 -0.21875 -0.328125q0 -0.140625 0.09375 -0.234375q0.09375 -0.109375 0.234375 -0.109375q0.09375 0 0.203125 0.0625q0.140625 0.109375 0.265625 0.140625q0.1875 0.046875 0.53125 0.046875q0.578125 0 0.84375 -0.15625q0.265625 -0.15625 0.265625 -0.421875q0 -0.21875 -0.15625 -0.40625q-0.15625 -0.1875 -0.40625 -0.296875q-0.140625 -0.046875 -0.5 -0.078125q-0.15625 0 -0.25 -0.09375q-0.09375 -0.09375 -0.09375 -0.234375q0 -0.140625 0.09375 -0.234375q0.109375 -0.109375 0.25 -0.109375q0.34375 0 0.359375 0q0.125 -0.015625 0.25 -0.078125q0.140625 -0.078125 0.21875 -0.203125q0.078125 -0.125 0.078125 -0.25q0 -0.21875 -0.1875 -0.375q-0.1875 -0.15625 -0.5625 -0.15625q-0.46875 0 -0.734375 0.28125q-0.0625 0.078125 -0.109375 0.109375q-0.078125 0.03125 -0.15625 0.03125q-0.140625 0 -0.234375 -0.09375q-0.09375 -0.09375 -0.09375 -0.234375q0 -0.234375 0.296875 -0.4375q0.4375 -0.3125 1.09375 -0.3125q0.609375 0 0.984375 0.359375q0.375 0.34375 0.375 0.84375q0 0.25 -0.109375 0.46875q-0.109375 0.21875 -0.328125 0.421875z" fill-rule="nonzero"/></g></svg>