<svg version="1.1" viewBox="0.0 0.0 384.0 432.0" fill="none" stroke="none" stroke-linecap="square" stroke-miterlimit="10" xmlns:xlink="http://www.w3.org/1999/xlink" xmlns="http://www.w3.org/2000/svg"><clipPath id="p.0"><path d="m0 0l384.0 0l0 432.0l-384.0 0l0 -432.0z" clip-rule="nonzero"/></clipPath><g clip-path="url(#p.0)"><path fill="#000000" fill-opacity="0.0" d="m0 0l384.0 0l0 432.0l-384.0 0z" fill-rule="evenodd"/><path fill="#cfe2f3" d="m7.4110274 64.00486l242.89764 0l0 306.96063l-242.89764 0z" fill-rule="evenodd"/><path stroke="#000000" stroke-width="0.84251968503937" stroke-linejoin="round" stroke-linecap="butt" d="m7.4110274 64.00486l242.89764 0l0 306.96063l-242.89764 0z" fill-rule="evenodd"/><path fill="#000000" d="m21.938555 70.58163q-0.59375 1.125 -0.921875 2.421875q-0.3125 1.296875 -0.3125 2.671875q0 1.375 0.296875 2.671875q0.296875 1.28125 0.921875 2.5000076l-1.328125 0q-0.71875 -1.2031326 -1.109375 -2.5000076q-0.375 -1.3125 -0.375 -2.5625q0 -1.296875 0.375 -2.71875q0.390625 -1.421875 1.109375 -2.484375l1.34375 0zm4.214859 0.203125q1.59375 0 2.578125 1.046875q1.0 1.03125 1.0 2.921875q0 1.875 -0.96875 2.96875q-0.96875 1.078125 -2.609375 1.078125l-3.515625 0l0 -8.015625l3.515625 0zm-0.140625 6.53125q0.84375 0 1.390625 -0.59375q0.5625 -0.609375 0.5625 -1.8125q0 -1.390625 -0.578125 -2.015625q-0.578125 -0.625 -1.6875 -0.625l-1.296875 0l0 5.046875l1.609375 0zm7.4520397 -4.484375q1.28125 0 1.90625 0.421875q0.625 0.421875 0.625 1.203125l0 3.109375q0 0.34375 0.046875 0.703125q0.046875 0.34375 0.15625 0.53125l-1.609375 0q-0.046875 -0.125 -0.078125 -0.265625q-0.03125 -0.140625 -0.03125 -0.28125q-0.34375 0.34375 -0.84375 0.53125q-0.484375 0.171875 -1.109375 0.171875q-0.9062481 0 -1.4531231 -0.453125q-0.53125 -0.453125 -0.53125 -1.28125q0 -0.8125 0.5 -1.25q0.515625 -0.4375 1.8437481 -0.578125q0.921875 -0.09375 1.21875 -0.234375q0.296875 -0.140625 0.296875 -0.484375q0 -0.390625 -0.234375 -0.578125q-0.21875 -0.203125 -0.78125 -0.203125q-0.5 0 -0.765625 0.21875q-0.265625 0.21875 -0.296875 0.671875l-1.6093731 0q0.078125 -0.953125 0.796875 -1.453125q0.7187481 -0.5 1.9531231 -0.5zm-1.328125 4.3125q0 0.34375 0.234375 0.546875q0.234375 0.203125 0.75 0.203125q0.640625 0 0.953125 -0.328125q0.328125 -0.34375 0.328125 -0.984375l0 -0.625q-0.140625 0.125 -0.375 0.1875q-0.234375 0.046875 -0.84375 0.140625q-0.53125 0.0625 -0.796875 0.28125q-0.25 0.203125 -0.25 0.578125zm7.122864 -5.890625l0 1.734375l1.171875 0l0 1.078125l-1.171875 0l0 2.90625q0 0.359375 0.125 0.5q0.140625 0.140625 0.546875 0.140625q0.140625 0 0.265625 -0.015625q0.125 -0.015625 0.234375 -0.03125l0 1.25q-0.203125 0.03125 -0.453125 0.03125q-0.234375 0.015625 -0.46875 0.015625q-1.03125 0 -1.4375 -0.34375q-0.40625 -0.359375 -0.40625 -1.0l0 -3.453125l-0.96875 0l0 -1.078125l0.96875 0l0 -1.734375l1.59375 0zm4.611328 1.578125q1.28125 0 1.90625 0.421875q0.625 0.421875 0.625 1.203125l0 3.109375q0 0.34375 0.046875 0.703125q0.046875 0.34375 0.15625 0.53125l-1.609375 0q-0.046875 -0.125 -0.078125 -0.265625q-0.03125 -0.140625 -0.03125 -0.28125q-0.34375 0.34375 -0.84375 0.53125q-0.484375 0.171875 -1.109375 0.171875q-0.90625 0 -1.453125 -0.453125q-0.53125 -0.453125 -0.53125 -1.28125q0 -0.8125 0.5 -1.25q0.515625 -0.4375 1.84375 -0.578125q0.921875 -0.09375 1.21875 -0.234375q0.296875 -0.140625 0.296875 -0.484375q0 -0.390625 -0.234375 -0.578125q-0.21875 -0.203125 -0.78125 -0.203125q-0.5 0 -0.765625 0.21875q-0.265625 0.21875 -0.296875 0.671875l-1.609375 0q0.078125 -0.953125 0.796875 -1.453125q0.71875 -0.5 1.953125 -0.5zm-1.328125 4.3125q0 0.34375 0.234375 0.546875q0.234375 0.203125 0.75 0.203125q0.640625 0 0.953125 -0.328125q0.328125 -0.34375 0.328125 -0.984375l0 -0.625q-0.140625 0.125 -0.375 0.1875q-0.234375 0.046875 -0.84375 0.140625q-0.53125 0.0625 -0.796875 0.28125q-0.25 0.203125 -0.25 0.578125zm7.388489 -6.359375q0.171875 0 0.4375 0.015625q0.28125 0.015625 0.40625 0.03125l0 1.1875q-0.15625 -0.015625 -0.296875 -0.015625q-0.140625 -0.015625 -0.265625 -0.015625q-0.34375 0 -0.484375 0.140625q-0.140625 0.140625 -0.140625 0.59375l0 0.265625l1.109375 0l0 1.078125l-1.109375 0l0 4.734375l-1.59375 0l0 -4.734375l-0.953125 0l0 -1.078125l0.953125 0l0 -0.390625q0 -0.90625 0.515625 -1.359375q0.53125 -0.453125 1.421875 -0.453125zm3.09375 0l0 8.015625l-1.59375 0l0 -8.015625l1.59375 0zm4.074997 2.046875q1.375 0 2.1875 0.84375q0.828125 0.84375 0.828125 2.234375q0 1.375 -0.828125 2.21875q-0.828125 0.828125 -2.1875 0.828125q-1.34375 0 -2.171875 -0.828125q-0.828125 -0.84375 -0.828125 -2.21875q0 -1.375 0.8125 -2.21875q0.8125 -0.859375 2.1875 -0.859375zm-1.390625 3.078125q0 0.90625 0.375 1.375q0.375 0.46875 1.015625 0.46875q0.6875 0 1.046875 -0.484375q0.375 -0.484375 0.375 -1.359375q0 -0.875 -0.359375 -1.375q-0.359375 -0.5 -1.0625 -0.5q-0.640625 0 -1.015625 0.46875q-0.375 0.46875 -0.375 1.40625zm6.5811615 -2.921875l1.0625 3.953125l0.03125 0l0.96875 -3.953125l1.546875 0l0.984375 3.9375l0.03125 0l1.0625 -3.9375l1.640625 0l-1.84375 5.8125l-1.625 0l-1.03125 -3.90625l-0.03125 0l-0.984375 3.90625l-1.65625 0l-1.84375 -5.8125l1.6875 0zm8.644394 -2.40625q0.734375 1.203125 1.109375 2.5q0.390625 1.296875 0.390625 2.578125q0 1.28125 -0.390625 2.71875q-0.375 1.421875 -1.09375 2.4687576l-1.34375 0q0.609375 -1.1718826 0.90625 -2.4531326q0.3125 -1.28125 0.3125 -2.625q0 -1.40625 -0.296875 -2.703125q-0.296875 -1.296875 -0.90625 -2.484375l1.3125 0z" fill-rule="nonzero"/><path fill="#000000" d="m209.13033 70.78475l2.78125 7.03125l2.765625 -7.03125l1.125 0l0 8.015625l-0.765625 0l0 -6.9375l-0.03125 0l-2.734375 6.9375l-0.71875 0l-2.75 -6.9375l-0.03125 0l0 6.9375l-0.765625 0l0 -8.015625l1.125 0zm9.030197 0l0 7.359375l4.484375 0l0 0.65625l-5.25 0l0 -8.015625l0.765625 0zm8.877838 0q1.03125 0 1.671875 0.609375q0.65625 0.59375 0.65625 1.671875q0 1.078125 -0.65625 1.6875q-0.640625 0.609375 -1.671875 0.609375l-2.84375 0l0 3.4375l-0.765625 0l0 -8.015625l3.609375 0zm-0.171875 3.921875q0.78125 0 1.25 -0.421875q0.484375 -0.421875 0.484375 -1.21875q0 -0.765625 -0.46875 -1.1875q-0.453125 -0.4375 -1.375 -0.4375l-2.5625 0l0 3.265625l2.671875 0z" fill-rule="nonzero"/><path fill="#efefef" d="m131.85515 0.001200525l38.393692 0l0 38.3937l-38.393692 0z" fill-rule="evenodd"/><path stroke="#000000" stroke-width="0.84251968503937" stroke-linejoin="round" stroke-linecap="butt" d="m131.85515 0.001200525l38.393692 0l0 38.3937l-38.393692 0z" fill-rule="evenodd"/><path fill="#000000" d="m137.16621 17.857862l0 4.734375l1.21875 0q0.4375 0 0.609375 0.171875q0.1875 0.15625 0.1875 0.4375q0 0.25 -0.1875 0.421875q-0.171875 0.171875 -0.609375 0.171875l-3.65625 0q-0.4375 0 -0.625 -0.171875q-0.1875 -0.171875 -0.1875 -0.4375q0 -0.265625 0.1875 -0.421875q0.1875 -0.171875 0.625 -0.171875l1.21875 0l0 -4.734375l-1.21875 0q-0.4375 0 -0.625 -0.171875q-0.1875 -0.171875 -0.1875 -0.4375q0 -0.265625 0.1875 -0.4375q0.1875 -0.171875 0.625 -0.171875l3.65625 0.015625q0.4375 0 0.609375 0.171875q0.1875 0.15625 0.1875 0.421875q0 0.265625 -0.1875 0.4375q-0.171875 0.171875 -0.609375 0.171875l-1.21875 0zm5.419937 0.578125l0 0.40625q0.328125 -0.28125 0.71875 -0.421875q0.40625 -0.140625 0.875 -0.140625q1.0625 0 1.6875 0.671875q0.5 0.53125 0.5 1.390625l0 2.25q0.375 0 0.5625 0.171875q0.1875 0.15625 0.1875 0.4375q0 0.25 -0.1875 0.421875q-0.1875 0.171875 -0.625 0.171875l-1.09375 0q-0.4375 0 -0.625 -0.171875q-0.171875 -0.171875 -0.171875 -0.4375q0 -0.265625 0.171875 -0.421875q0.1875 -0.171875 0.578125 -0.171875l0 -2.28125q0 -0.40625 -0.21875 -0.578125q-0.28125 -0.25 -0.828125 -0.25q-0.421875 0 -0.734375 0.171875q-0.3125 0.15625 -0.796875 0.6875l0 2.25q0.453125 0 0.59375 0.078125q0.296875 0.1875 0.296875 0.53125q0 0.25 -0.1875 0.421875q-0.1875 0.171875 -0.625 0.171875l-1.375 0q-0.4375 0 -0.625 -0.171875q-0.1875 -0.171875 -0.1875 -0.4375q0 -0.328125 0.28125 -0.515625q0.140625 -0.078125 0.609375 -0.078125l0 -2.9375q-0.375 0 -0.5625 -0.171875q-0.1875 -0.171875 -0.1875 -0.4375q0 -0.265625 0.1875 -0.4375q0.1875 -0.171875 0.625 -0.171875l1.15625 0zm6.966812 4.6875l0 1.984375l0.71875 0q0.4375 0 0.625 0.171875q0.1875 0.171875 0.1875 0.4375q0 0.265625 -0.1875 0.4375q-0.1875 0.171875 -0.625 0.171875l-2.140625 0q-0.4375 0 -0.625 -0.171875q-0.171875 -0.171875 -0.171875 -0.4375q0 -0.265625 0.1875 -0.4375q0.1875 -0.171875 0.609375 -0.171875l0.21875 0l0 -5.453125l-0.21875 0q-0.4375 0 -0.625 -0.171875q-0.171875 -0.171875 -0.171875 -0.4375q0 -0.265625 0.171875 -0.4375q0.1875 -0.171875 0.625 -0.171875l1.421875 0l0 0.421875q0.421875 -0.296875 0.875 -0.4375q0.453125 -0.140625 0.9375 -0.140625q1.234375 0 2.109375 0.84375q0.875 0.84375 0.875 1.921875q0 1.203125 -1.03125 1.984375q-0.859375 0.640625 -1.9375 0.640625q-0.46875 0 -0.921875 -0.125q-0.453125 -0.140625 -0.90625 -0.421875zm3.578125 -2.078125q0 -0.25 -0.203125 -0.640625q-0.1875 -0.390625 -0.609375 -0.65625q-0.421875 -0.265625 -0.96875 -0.265625q-0.90625 0 -1.4375 0.6875q-0.359375 0.46875 -0.359375 0.890625q0 0.484375 0.515625 0.953125q0.515625 0.453125 1.28125 0.453125q0.765625 0 1.265625 -0.453125q0.515625 -0.453125 0.515625 -0.96875zm7.732437 -2.609375l0 4.15625q0.390625 0 0.5625 0.171875q0.1875 0.171875 0.1875 0.4375q0 0.25 -0.1875 0.421875q-0.1875 0.171875 -0.609375 0.171875l-1.15625 0l0 -0.28125q-0.515625 0.234375 -1.0 0.34375q-0.46875 0.125 -0.890625 0.125q-0.59375 0 -1.03125 -0.25q-0.4375 -0.25 -0.6875 -0.6875q-0.1875 -0.3125 -0.1875 -0.796875l0 -2.59375l-0.203125 0q-0.4375 0 -0.625 -0.171875q-0.1875 -0.171875 -0.1875 -0.4375q0 -0.265625 0.1875 -0.4375q0.1875 -0.171875 0.625 -0.171875l1.421875 0l0 3.609375q0 0.375 0.171875 0.5625q0.1875 0.171875 0.578125 0.171875q0.359375 0 0.78125 -0.140625q0.421875 -0.140625 1.046875 -0.53125l0 -2.453125l-0.4375 0q-0.4375 0 -0.625 -0.171875q-0.1875 -0.171875 -0.1875 -0.4375q0 -0.265625 0.1875 -0.4375q0.1875 -0.171875 0.625 -0.171875l1.640625 0zm4.388687 1.21875l0 2.421875q0 0.390625 0.15625 0.515625q0.25 0.1875 0.890625 0.1875q0.921875 0 1.703125 -0.390625q0.296875 -0.15625 0.46875 -0.15625q0.234375 0 0.40625 0.1875q0.1875 0.171875 0.1875 0.421875q0 0.234375 -0.1875 0.40625q-0.296875 0.28125 -1.15625 0.515625q-0.84375 0.21875 -1.421875 0.21875q-1.125 0 -1.6875 -0.484375q-0.5625 -0.484375 -0.5625 -1.1875l0 -2.65625l-0.4375 0q-0.4375 0 -0.625 -0.171875q-0.1875 -0.171875 -0.1875 -0.4375q0 -0.265625 0.1875 -0.4375q0.1875 -0.171875 0.625 -0.171875l0.4375 0l0 -1.09375q0 -0.421875 0.15625 -0.609375q0.171875 -0.1875 0.4375 -0.1875q0.265625 0 0.4375 0.1875q0.171875 0.1875 0.171875 0.609375l0 1.09375l2.234375 0q0.4375 0 0.625 0.171875q0.1875 0.171875 0.1875 0.4375q0 0.265625 -0.1875 0.4375q-0.1875 0.171875 -0.625 0.171875l-2.234375 0z" fill-rule="nonzero"/><path fill="#000000" fill-opacity="0.0" d="m151.05199 38.3949l0 19.066288l0.06300354 0l0 19.075447" fill-rule="evenodd"/><path stroke="#595959" stroke-width="1.0" stroke-linejoin="round" stroke-linecap="butt" d="m151.05199 38.3949l0 19.066288l0.06300354 0l0 13.075447" fill-rule="evenodd"/><path fill="#595959" stroke="#595959" stroke-width="1.0" stroke-linecap="butt" d="m149.46326 70.53664l1.6517334 4.5380936l1.6517181 -4.5380936z" fill-rule="evenodd"/><path fill="#b6d7a8" d="m110.23416 76.52756l81.63779 0l0 38.3937l-81.63779 0z" fill-rule="evenodd"/><path stroke="#000000" stroke-width="0.84251968503937" stroke-linejoin="round" stroke-linecap="butt" d="m110.23416 76.52756l81.63779 0l0 38.3937l-81.63779 0z" fill-rule="evenodd"/><path fill="#000000" d="m132.43387 87.38422l0 4.734375l2.59375 0l0 -1.15625q0 -0.4375 0.171875 -0.609375q0.171875 -0.1875 0.4375 -0.1875q0.265625 0 0.4375 0.1875q0.171875 0.171875 0.171875 0.609375l0 2.359375l-5.734375 0q-0.4375 0 -0.625 -0.171875q-0.171875 -0.171875 -0.171875 -0.4375q0 -0.265625 0.171875 -0.421875q0.1875 -0.171875 0.625 -0.171875l0.703125 0l0 -4.734375l-0.703125 0q-0.4375 0 -0.625 -0.171875q-0.171875 -0.171875 -0.171875 -0.4375q0 -0.265625 0.171875 -0.4375q0.1875 -0.171875 0.625 -0.171875l2.625 0.015625q0.4375 0 0.625 0.171875q0.1875 0.15625 0.1875 0.421875q0 0.265625 -0.1875 0.4375q-0.1875 0.171875 -0.625 0.171875l-0.703125 0zm8.185562 -1.71875l0 1.28125l-1.4375 0l0 -1.28125l1.4375 0zm0.15625 2.296875l0 4.15625l1.453125 0q0.4375 0 0.625 0.171875q0.1875 0.15625 0.1875 0.4375q0 0.25 -0.1875 0.421875q-0.1875 0.171875 -0.625 0.171875l-4.109375 0q-0.4375 0 -0.625 -0.171875q-0.1875 -0.171875 -0.1875 -0.4375q0 -0.265625 0.1875 -0.421875q0.1875 -0.171875 0.625 -0.171875l1.453125 0l0 -2.9375l-0.96875 0q-0.4375 0 -0.625 -0.171875q-0.1875 -0.171875 -0.1875 -0.4375q0 -0.265625 0.1875 -0.4375q0.1875 -0.171875 0.625 -0.171875l2.171875 0zm5.435562 0l0 0.40625q0.328125 -0.28125 0.71875 -0.421875q0.40625 -0.140625 0.875 -0.140625q1.0625 0 1.6875 0.671875q0.5 0.53125 0.5 1.390625l0 2.25q0.375 0 0.5625 0.171875q0.1875 0.15625 0.1875 0.4375q0 0.25 -0.1875 0.421875q-0.1875 0.171875 -0.625 0.171875l-1.09375 0q-0.4375 0 -0.625 -0.171875q-0.171875 -0.171875 -0.171875 -0.4375q0 -0.265625 0.171875 -0.421875q0.1875 -0.171875 0.578125 -0.171875l0 -2.28125q0 -0.40625 -0.21875 -0.578125q-0.28125 -0.25 -0.828125 -0.25q-0.421875 0 -0.734375 0.171875q-0.3125 0.15625 -0.796875 0.6875l0 2.25q0.453125 0 0.59375 0.078125q0.296875 0.1875 0.296875 0.53125q0 0.25 -0.1875 0.421875q-0.1875 0.171875 -0.625 0.171875l-1.375 0q-0.4375 0 -0.625 -0.171875q-0.1875 -0.171875 -0.1875 -0.4375q0 -0.328125 0.28125 -0.515625q0.140625 -0.078125 0.609375 -0.078125l0 -2.9375q-0.375 0 -0.5625 -0.171875q-0.1875 -0.171875 -0.1875 -0.4375q0 -0.265625 0.1875 -0.4375q0.1875 -0.171875 0.625 -0.171875l1.15625 0zm11.498062 3.296875l-4.953125 0q0.1875 0.46875 0.65625 0.765625q0.484375 0.28125 1.3125 0.28125q0.671875 0 1.78125 -0.28125q0.46875 -0.125 0.640625 -0.125q0.234375 0 0.40625 0.171875q0.171875 0.171875 0.171875 0.4375q0 0.234375 -0.1875 0.390625q-0.234375 0.21875 -1.15625 0.421875q-0.90625 0.1875 -1.75 0.1875q-1.453125 0 -2.328125 -0.8125q-0.859375 -0.8125 -0.859375 -2.015625q0 -1.28125 0.9375 -2.078125q0.9375 -0.796875 2.171875 -0.796875q0.734375 0 1.34375 0.265625q0.625 0.25 0.921875 0.5625q0.421875 0.421875 0.703125 1.078125q0.1875 0.4375 0.1875 1.03125l0 0.515625zm-1.34375 -1.203125q-0.265625 -0.53125 -0.71875 -0.78125q-0.453125 -0.265625 -1.0625 -0.265625q-0.625 0 -1.078125 0.265625q-0.4375 0.25 -0.71875 0.78125l3.578125 0zm6.654312 3.265625l0 -0.28125q-0.453125 0.234375 -1.015625 0.359375q-0.546875 0.125 -0.984375 0.125q-0.984375 0 -1.59375 -0.515625q-0.59375 -0.515625 -0.59375 -1.140625q0 -0.765625 0.765625 -1.40625q0.78125 -0.65625 2.140625 -0.65625q0.5625 0 1.28125 0.109375l0 -0.28125q0 -0.28125 -0.234375 -0.453125q-0.234375 -0.171875 -0.890625 -0.171875q-0.53125 0 -1.390625 0.21875q-0.328125 0.078125 -0.5 0.078125q-0.234375 0 -0.40625 -0.171875q-0.171875 -0.171875 -0.171875 -0.453125q0 -0.140625 0.0625 -0.25q0.0625 -0.125 0.15625 -0.1875q0.109375 -0.078125 0.453125 -0.171875q0.4375 -0.109375 0.90625 -0.1875q0.46875 -0.078125 0.84375 -0.078125q1.125 0 1.75 0.484375q0.625 0.484375 0.625 1.328125l0 2.5l0.203125 0q0.4375 0 0.625 0.171875q0.1875 0.15625 0.1875 0.4375q0 0.25 -0.1875 0.421875q-0.1875 0.171875 -0.625 0.171875l-1.40625 0zm0 -2.171875q-0.734375 -0.140625 -1.34375 -0.140625q-0.734375 0 -1.265625 0.359375q-0.328125 0.234375 -0.328125 0.46875q0 0.171875 0.15625 0.28125q0.296875 0.1875 0.8125 0.1875q0.421875 0 0.96875 -0.15625q0.5625 -0.171875 1.0 -0.46875l0 -0.53125zm5.904312 -3.1875l0 0.765625q0.765625 -0.5625 1.203125 -0.734375q0.4375 -0.1875 0.8125 -0.1875q0.59375 0 1.15625 0.4375q0.375 0.296875 0.375 0.609375q0 0.25 -0.1875 0.4375q-0.171875 0.171875 -0.4375 0.171875q-0.21875 0 -0.46875 -0.21875q-0.25 -0.234375 -0.4375 -0.234375q-0.25 0 -0.765625 0.328125q-0.5 0.3125 -1.25 0.953125l0 1.828125l1.71875 0q0.4375 0 0.625 0.171875q0.1875 0.15625 0.1875 0.4375q0 0.25 -0.1875 0.421875q-0.1875 0.171875 -0.625 0.171875l-3.65625 0q-0.421875 0 -0.609375 -0.171875q-0.1875 -0.171875 -0.1875 -0.4375q0 -0.265625 0.1875 -0.421875q0.1875 -0.171875 0.609375 -0.171875l0.734375 0l0 -2.9375l-0.4375 0q-0.4375 0 -0.625 -0.171875q-0.1875 -0.171875 -0.1875 -0.4375q0 -0.265625 0.1875 -0.4375q0.1875 -0.171875 0.625 -0.171875l1.640625 0z" fill-rule="nonzero"/><path fill="#000000" d="m131.04324 102.50922l0 3.609375l0.4375 0q0.4375 0 0.625 0.171875q0.1875 0.15625 0.1875 0.4375q0 0.25 -0.1875 0.421875q-0.1875 0.171875 -0.625 0.171875l-1.59375 0q-0.4375 0 -0.609375 -0.171875q-0.1875 -0.171875 -0.1875 -0.4375q0 -0.265625 0.1875 -0.421875q0.171875 -0.171875 0.5625 -0.171875l0 -4.734375q-0.328125 -0.03125 -0.5 -0.1875q-0.15625 -0.171875 -0.15625 -0.421875q0 -0.265625 0.1875 -0.4375q0.1875 -0.171875 0.625 -0.171875l1.328125 0.015625l1.640625 3.625l1.625 -3.640625l1.328125 0.015625q0.4375 0 0.625 0.171875q0.1875 0.15625 0.1875 0.421875q0 0.25 -0.171875 0.421875q-0.15625 0.15625 -0.46875 0.1875l0 4.734375q0.390625 0 0.5625 0.171875q0.1875 0.171875 0.1875 0.4375q0 0.25 -0.1875 0.421875q-0.1875 0.171875 -0.625 0.171875l-1.59375 0q-0.421875 0 -0.609375 -0.171875q-0.1875 -0.171875 -0.1875 -0.4375q0 -0.265625 0.1875 -0.421875q0.1875 -0.171875 0.609375 -0.171875l0.453125 0l0 -3.609375l-1.390625 3.109375l-1.046875 0l-1.40625 -3.109375zm10.232437 4.8125l0 -0.28125q-0.453125 0.234375 -1.015625 0.359375q-0.546875 0.125 -0.984375 0.125q-0.984375 0 -1.59375 -0.515625q-0.59375 -0.515625 -0.59375 -1.140625q0 -0.765625 0.765625 -1.40625q0.78125 -0.65625 2.140625 -0.65625q0.5625 0 1.28125 0.109375l0 -0.28125q0 -0.28125 -0.234375 -0.453125q-0.234375 -0.171875 -0.890625 -0.171875q-0.53125 0 -1.390625 0.21875q-0.328125 0.078125 -0.5 0.078125q-0.234375 0 -0.40625 -0.171875q-0.171875 -0.171875 -0.171875 -0.453125q0 -0.140625 0.0625 -0.25q0.0625 -0.125 0.15625 -0.1875q0.109375 -0.078125 0.453125 -0.171875q0.4375 -0.109375 0.90625 -0.1875q0.46875 -0.078125 0.84375 -0.078125q1.125 0 1.75 0.484375q0.625 0.484375 0.625 1.328125l0 2.5l0.203125 0q0.4375 0 0.625 0.171875q0.1875 0.15625 0.1875 0.4375q0 0.25 -0.1875 0.421875q-0.1875 0.171875 -0.625 0.171875l-1.40625 0zm0 -2.171875q-0.734375 -0.140625 -1.34375 -0.140625q-0.734375 0 -1.265625 0.359375q-0.328125 0.234375 -0.328125 0.46875q0 0.171875 0.15625 0.28125q0.296875 0.1875 0.8125 0.1875q0.421875 0 0.96875 -0.15625q0.5625 -0.171875 1.0 -0.46875l0 -0.53125zm5.857437 -1.96875l0 2.421875q0 0.390625 0.15625 0.515625q0.25 0.1875 0.890625 0.1875q0.921875 0 1.703125 -0.390625q0.296875 -0.15625 0.46875 -0.15625q0.234375 0 0.40625 0.1875q0.1875 0.171875 0.1875 0.421875q0 0.234375 -0.1875 0.40625q-0.296875 0.28125 -1.15625 0.515625q-0.84375 0.21875 -1.421875 0.21875q-1.125 0 -1.6875 -0.484375q-0.5625 -0.484375 -0.5625 -1.1875l0 -2.65625l-0.4375 0q-0.4375 0 -0.625 -0.171875q-0.1875 -0.171875 -0.1875 -0.4375q0 -0.265625 0.1875 -0.4375q0.1875 -0.171875 0.625 -0.171875l0.4375 0l0 -1.09375q0 -0.421875 0.15625 -0.609375q0.171875 -0.1875 0.4375 -0.1875q0.265625 0 0.4375 0.1875q0.171875 0.1875 0.171875 0.609375l0 1.09375l2.234375 0q0.4375 0 0.625 0.171875q0.1875 0.171875 0.1875 0.4375q0 0.265625 -0.1875 0.4375q-0.1875 0.171875 -0.625 0.171875l-2.234375 0zm5.654312 -0.671875l0 3.609375l0.4375 0q0.4375 0 0.625 0.171875q0.1875 0.15625 0.1875 0.4375q0 0.25 -0.1875 0.421875q-0.1875 0.171875 -0.625 0.171875l-1.59375 0q-0.4375 0 -0.609375 -0.171875q-0.1875 -0.171875 -0.1875 -0.4375q0 -0.265625 0.1875 -0.421875q0.171875 -0.171875 0.5625 -0.171875l0 -4.734375q-0.328125 -0.03125 -0.5 -0.1875q-0.15625 -0.171875 -0.15625 -0.421875q0 -0.265625 0.1875 -0.4375q0.1875 -0.171875 0.625 -0.171875l1.328125 0.015625l1.640625 3.625l1.625 -3.640625l1.328125 0.015625q0.4375 0 0.625 0.171875q0.1875 0.15625 0.1875 0.421875q0 0.25 -0.171875 0.421875q-0.15625 0.15625 -0.46875 0.1875l0 4.734375q0.390625 0 0.5625 0.171875q0.1875 0.171875 0.1875 0.4375q0 0.25 -0.1875 0.421875q-0.1875 0.171875 -0.625 0.171875l-1.59375 0q-0.421875 0 -0.609375 -0.171875q-0.1875 -0.171875 -0.1875 -0.4375q0 -0.265625 0.1875 -0.421875q0.1875 -0.171875 0.609375 -0.171875l0.453125 0l0 -3.609375l-1.390625 3.109375l-1.046875 0l-1.40625 -3.109375zm11.701187 -0.546875l0 4.15625q0.390625 0 0.5625 0.171875q0.1875 0.171875 0.1875 0.4375q0 0.25 -0.1875 0.421875q-0.1875 0.171875 -0.609375 0.171875l-1.15625 0l0 -0.28125q-0.515625 0.234375 -1.0 0.34375q-0.46875 0.125 -0.890625 0.125q-0.59375 0 -1.03125 -0.25q-0.4375 -0.25 -0.6875 -0.6875q-0.1875 -0.3125 -0.1875 -0.796875l0 -2.59375l-0.203125 0q-0.4375 0 -0.625 -0.171875q-0.1875 -0.171875 -0.1875 -0.4375q0 -0.265625 0.1875 -0.4375q0.1875 -0.171875 0.625 -0.171875l1.421875 0l0 3.609375q0 0.375 0.171875 0.5625q0.1875 0.171875 0.578125 0.171875q0.359375 0 0.78125 -0.140625q0.421875 -0.140625 1.046875 -0.53125l0 -2.453125l-0.4375 0q-0.4375 0 -0.625 -0.171875q-0.1875 -0.171875 -0.1875 -0.4375q0 -0.265625 0.1875 -0.4375q0.1875 -0.171875 0.625 -0.171875l1.640625 0zm5.294937 -2.296875l0 6.453125l1.4375 0q0.4375 0 0.625 0.171875q0.1875 0.15625 0.1875 0.4375q0 0.25 -0.1875 0.421875q-0.1875 0.171875 -0.625 0.171875l-4.109375 0q-0.4375 0 -0.625 -0.171875q-0.171875 -0.171875 -0.171875 -0.4375q0 -0.265625 0.171875 -0.421875q0.1875 -0.171875 0.625 -0.171875l1.453125 0l0 -5.234375l-0.96875 0q-0.4375 0 -0.625 -0.171875q-0.1875 -0.171875 -0.1875 -0.4375q0 -0.265625 0.1875 -0.4375q0.1875 -0.171875 0.625 -0.171875l2.1875 0z" fill-rule="nonzero"/><path fill="#b6d7a8" d="m110.23416 174.39764l81.63779 0l0 38.393692l-81.63779 0z" fill-rule="evenodd"/><path stroke="#000000" stroke-width="0.84251968503937" stroke-linejoin="round" stroke-linecap="butt" d="m110.23416 174.39764l81.63779 0l0 38.393692l-81.63779 0z" fill-rule="evenodd"/><path fill="#000000" d="m143.2288 195.97305l0 1.625q-0.828125 0.453125 -1.40625 0.609375q-0.5625 0.15625 -1.234375 0.15625q-0.921875 0 -1.71875 -0.265625q-0.609375 -0.21875 -0.96875 -0.546875q-0.359375 -0.328125 -0.65625 -0.953125q-0.296875 -0.640625 -0.296875 -1.421875l0 -0.875q0 -1.203125 0.734375 -2.15625q0.984375 -1.28125 2.6875 -1.28125q0.5 0 0.9375 0.109375q0.453125 0.09375 0.859375 0.296875q0.234375 -0.21875 0.46875 -0.21875q0.265625 0 0.421875 0.1875q0.171875 0.171875 0.171875 0.609375l0 0.78125q0 0.4375 -0.171875 0.625q-0.171875 0.1875 -0.4375 0.1875q-0.203125 0 -0.359375 -0.140625q-0.125 -0.078125 -0.203125 -0.375q-0.078125 -0.3125 -0.171875 -0.421875q-0.15625 -0.171875 -0.5625 -0.296875q-0.40625 -0.140625 -0.90625 -0.140625q-0.71875 0 -1.25 0.296875q-0.375 0.21875 -0.703125 0.765625q-0.3125 0.546875 -0.3125 1.171875l0 0.875q0 0.96875 0.5625 1.484375q0.5625 0.5 1.796875 0.5q0.828125 0 1.515625 -0.3125l0 -0.875l-1.234375 0q-0.4375 0 -0.625 -0.15625q-0.1875 -0.171875 -0.1875 -0.4375q0 -0.28125 0.1875 -0.4375q0.1875 -0.171875 0.625 -0.171875l2.140625 0q0.4375 0 0.625 0.171875q0.1875 0.15625 0.1875 0.4375q0 0.203125 -0.140625 0.375q-0.125 0.15625 -0.375 0.21875zm2.9511871 -0.765625l0 1.78125l3.09375 0l0 -0.65625q0 -0.4375 0.15625 -0.625q0.171875 -0.1875 0.453125 -0.1875q0.265625 0 0.421875 0.1875q0.171875 0.1875 0.171875 0.625l0 1.859375l-5.6875 0q-0.4375 0 -0.625 -0.171875q-0.1875 -0.171875 -0.1875 -0.4375q0 -0.265625 0.1875 -0.421875q0.1875 -0.171875 0.625 -0.171875l0.1875 0l0 -4.734375l-0.1875 0q-0.4375 0 -0.625 -0.171875q-0.1875 -0.171875 -0.1875 -0.4375q0 -0.265625 0.1875 -0.4375q0.1875 -0.171875 0.625 -0.171875l5.421875 0.015625l0 1.828125q0 0.4375 -0.171875 0.625q-0.15625 0.1875 -0.421875 0.1875q-0.28125 0 -0.453125 -0.1875q-0.15625 -0.1875 -0.15625 -0.625l0 -0.625l-2.828125 0l0 1.75l1.0625 0q0 -0.484375 0.09375 -0.609375q0.1875 -0.296875 0.515625 -0.296875q0.265625 0 0.4375 0.1875q0.171875 0.1875 0.171875 0.625l0 1.390625q0 0.390625 -0.09375 0.53125q-0.1875 0.28125 -0.515625 0.28125q-0.328125 0 -0.515625 -0.296875q-0.09375 -0.125 -0.09375 -0.609375l-1.0625 0zm7.998062 -2.953125l0 4.734375l2.59375 0l0 -1.15625q0 -0.4375 0.171875 -0.609375q0.171875 -0.1875 0.4375 -0.1875q0.265625 0 0.4375 0.1875q0.171875 0.171875 0.171875 0.609375l0 2.359375l-5.734375 0q-0.4375 0 -0.625 -0.171875q-0.171875 -0.171875 -0.171875 -0.4375q0 -0.265625 0.171875 -0.421875q0.1875 -0.171875 0.625 -0.171875l0.703125 0l0 -4.734375l-0.703125 0q-0.4375 0 -0.625 -0.171875q-0.171875 -0.171875 -0.171875 -0.4375q0 -0.265625 0.171875 -0.4375q0.1875 -0.171875 0.625 -0.171875l2.625 0.015625q0.4375 0 0.625 0.171875q0.1875 0.15625 0.1875 0.421875q0 0.265625 -0.1875 0.4375q-0.1875 0.171875 -0.625 0.171875l-0.703125 0zm10.513687 0l0 3.421875q0 1.125 -0.8125 1.90625q-0.796875 0.78125 -1.9375 0.78125q-0.5625 0 -1.0625 -0.1875q-0.484375 -0.203125 -0.875 -0.578125q-0.390625 -0.390625 -0.609375 -0.796875q-0.21875 -0.421875 -0.21875 -1.125l0 -3.421875q-0.375 0 -0.5625 -0.171875q-0.1875 -0.171875 -0.1875 -0.4375q0 -0.265625 0.1875 -0.421875q0.1875 -0.171875 0.625 -0.171875l1.59375 -0.015625q0.421875 0 0.609375 0.171875q0.1875 0.171875 0.1875 0.4375q0 0.265625 -0.1875 0.4375q-0.1875 0.171875 -0.609375 0.171875l-0.4375 0l0 3.53125q0 0.546875 0.4375 0.96875q0.453125 0.40625 1.09375 0.40625q0.421875 0 0.796875 -0.203125q0.375 -0.203125 0.609375 -0.578125q0.140625 -0.25 0.140625 -0.59375l0 -3.53125l-0.4375 0q-0.421875 0 -0.609375 -0.171875q-0.1875 -0.171875 -0.1875 -0.4375q0 -0.265625 0.1875 -0.4375q0.1875 -0.171875 0.609375 -0.171875l1.59375 0.015625q0.4375 0 0.625 0.171875q0.1875 0.15625 0.1875 0.421875q0 0.265625 -0.1875 0.4375q-0.1875 0.171875 -0.5625 0.171875z" fill-rule="nonzero"/><path fill="#b6d7a8" d="m110.23416 320.56308l81.63779 0l0 38.393707l-81.63779 0z" fill-rule="evenodd"/><path stroke="#000000" stroke-width="0.84251968503937" stroke-linejoin="round" stroke-linecap="butt" d="m110.23416 320.56308l81.63779 0l0 38.393707l-81.63779 0z" fill-rule="evenodd"/><path fill="#000000" d="m117.937744 338.41974l0 4.734375l2.59375 0l0 -1.15625q0 -0.4375 0.171875 -0.609375q0.171875 -0.1875 0.4375 -0.1875q0.265625 0 0.4375 0.1875q0.171875 0.171875 0.171875 0.609375l0 2.359375l-5.734375 0q-0.4375 0 -0.625 -0.171875q-0.171875 -0.171875 -0.171875 -0.4375q0 -0.265625 0.171875 -0.421875q0.1875 -0.171875 0.625 -0.171875l0.703125 0l0 -4.734375l-0.703125 0q-0.4375 0 -0.625 -0.171875q-0.171875 -0.171875 -0.171875 -0.4375q0 -0.265625 0.171875 -0.4375q0.1875 -0.171875 0.625 -0.171875l2.625 0.015625q0.4375 0 0.625 0.171875q0.1875 0.15625 0.1875 0.421875q0 0.265625 -0.1875 0.4375q-0.1875 0.171875 -0.625 0.171875l-0.703125 0zm8.841812 5.9375l0 -0.28125q-0.453125 0.234375 -1.015625 0.359375q-0.546875 0.125 -0.984375 0.125q-0.984375 0 -1.59375 -0.515625q-0.59375 -0.515625 -0.59375 -1.140625q0 -0.765625 0.765625 -1.40625q0.78125 -0.65625 2.140625 -0.65625q0.5625 0 1.28125 0.109375l0 -0.28125q0 -0.28125 -0.234375 -0.453125q-0.234375 -0.171875 -0.890625 -0.171875q-0.53125 0 -1.390625 0.21875q-0.328125 0.078125 -0.5 0.078125q-0.234375 0 -0.40625 -0.171875q-0.171875 -0.171875 -0.171875 -0.453125q0 -0.140625 0.0625 -0.25q0.0625 -0.125 0.15625 -0.1875q0.109375 -0.078125 0.453125 -0.171875q0.4375 -0.109375 0.90625 -0.1875q0.46875 -0.078125 0.84375 -0.078125q1.125 0 1.75 0.484375q0.625 0.484375 0.625 1.328125l0 2.5l0.203125 0q0.4375 0 0.625 0.171875q0.1875 0.15625 0.1875 0.4375q0 0.25 -0.1875 0.421875q-0.1875 0.171875 -0.625 0.171875l-1.40625 0zm0 -2.171875q-0.734375 -0.140625 -1.34375 -0.140625q-0.734375 0 -1.265625 0.359375q-0.328125 0.234375 -0.328125 0.46875q0 0.171875 0.15625 0.28125q0.296875 0.1875 0.8125 0.1875q0.421875 0 0.96875 -0.15625q0.5625 -0.171875 1.0 -0.46875l0 -0.53125zm5.482437 2.125l-2.09375 -4.09375q-0.296875 -0.046875 -0.453125 -0.203125q-0.15625 -0.171875 -0.15625 -0.40625q0 -0.265625 0.1875 -0.4375q0.1875 -0.171875 0.625 -0.171875l1.109375 0q0.421875 0 0.609375 0.171875q0.1875 0.171875 0.1875 0.4375q0 0.265625 -0.1875 0.4375q-0.1875 0.171875 -0.578125 0.171875l1.421875 2.765625l1.421875 -2.765625q-0.390625 0 -0.578125 -0.171875q-0.1875 -0.171875 -0.1875 -0.4375q0 -0.265625 0.1875 -0.4375q0.1875 -0.171875 0.625 -0.171875l1.140625 0q0.421875 0 0.609375 0.171875q0.1875 0.171875 0.1875 0.4375q0 0.25 -0.15625 0.421875q-0.15625 0.15625 -0.46875 0.1875l-2.78125 5.453125q0.453125 0 0.59375 0.09375q0.28125 0.1875 0.28125 0.515625q0 0.265625 -0.1875 0.4375q-0.171875 0.171875 -0.609375 0.171875l-2.640625 0q-0.4375 0 -0.625 -0.171875q-0.1875 -0.171875 -0.1875 -0.4375q0 -0.265625 0.1875 -0.4375q0.1875 -0.171875 0.625 -0.171875l1.203125 0l0.6875 -1.359375zm10.951187 -2.015625l-4.953125 0q0.1875 0.46875 0.65625 0.765625q0.484375 0.28125 1.3125 0.28125q0.671875 0 1.78125 -0.28125q0.46875 -0.125 0.640625 -0.125q0.234375 0 0.40625 0.171875q0.171875 0.171875 0.171875 0.4375q0 0.234375 -0.1875 0.390625q-0.234375 0.21875 -1.15625 0.421875q-0.90625 0.1875 -1.75 0.1875q-1.453125 0 -2.328125 -0.8125q-0.859375 -0.8125 -0.859375 -2.015625q0 -1.28125 0.9375 -2.078125q0.9375 -0.796875 2.171875 -0.796875q0.734375 0 1.34375 0.265625q0.625 0.25 0.921875 0.5625q0.421875 0.421875 0.703125 1.078125q0.1875 0.4375 0.1875 1.03125l0 0.515625zm-1.34375 -1.203125q-0.265625 -0.53125 -0.71875 -0.78125q-0.453125 -0.265625 -1.0625 -0.265625q-0.625 0 -1.078125 0.265625q-0.4375 0.25 -0.71875 0.78125l3.578125 0zm5.310562 -2.09375l0 0.765625q0.765625 -0.5625 1.203125 -0.734375q0.4375 -0.1875 0.8125 -0.1875q0.59375 0 1.15625 0.4375q0.375 0.296875 0.375 0.609375q0 0.25 -0.1875 0.4375q-0.171875 0.171875 -0.4375 0.171875q-0.21875 0 -0.46875 -0.21875q-0.25 -0.234375 -0.4375 -0.234375q-0.25 0 -0.765625 0.328125q-0.5 0.3125 -1.25 0.953125l0 1.828125l1.71875 0q0.4375 0 0.625 0.171875q0.1875 0.15625 0.1875 0.4375q0 0.25 -0.1875 0.421875q-0.1875 0.171875 -0.625 0.171875l-3.65625 0q-0.421875 0 -0.609375 -0.171875q-0.1875 -0.171875 -0.1875 -0.4375q0 -0.265625 0.1875 -0.421875q0.1875 -0.171875 0.609375 -0.171875l0.734375 0l0 -2.9375l-0.4375 0q-0.4375 0 -0.625 -0.171875q-0.1875 -0.171875 -0.1875 -0.4375q0 -0.265625 0.1875 -0.4375q0.1875 -0.171875 0.625 -0.171875l1.640625 0zm13.230499 0.5l0 3.65625l0.4375 0q0.4375 0 0.625 0.171875q0.1875 0.15625 0.1875 0.4375q0 0.25 -0.1875 0.421875q-0.1875 0.171875 -0.625 0.171875l-1.578125 0q-0.4375 0 -0.625 -0.171875q-0.1875 -0.171875 -0.1875 -0.4375q0 -0.25 0.171875 -0.421875q0.1875 -0.171875 0.578125 -0.171875l0 -4.734375l-0.1875 0q-0.4375 0 -0.625 -0.171875q-0.1875 -0.171875 -0.1875 -0.4375q0 -0.265625 0.1875 -0.4375q0.1875 -0.171875 0.625 -0.171875l1.390625 0.015625l3.09375 4.84375l0 -3.640625l-0.4375 0q-0.4375 0 -0.625 -0.171875q-0.1875 -0.171875 -0.1875 -0.4375q0 -0.265625 0.1875 -0.4375q0.1875 -0.171875 0.625 -0.171875l1.59375 0.015625q0.421875 0 0.609375 0.171875q0.1875 0.15625 0.1875 0.421875q0 0.265625 -0.1875 0.4375q-0.171875 0.171875 -0.546875 0.171875l0 5.9375l-1.203125 0l-3.109375 -4.859375zm11.904312 2.28125q0 0.703125 -0.390625 1.359375q-0.390625 0.640625 -1.15625 1.03125q-0.75 0.375 -1.578125 0.375q-0.828125 0 -1.59375 -0.375q-0.75 -0.375 -1.15625 -1.03125q-0.390625 -0.65625 -0.390625 -1.375q0 -0.71875 0.40625 -1.421875q0.40625 -0.703125 1.15625 -1.09375q0.75 -0.40625 1.578125 -0.40625q0.8125 0 1.578125 0.421875q0.765625 0.40625 1.15625 1.09375q0.390625 0.6875 0.390625 1.421875zm-1.203125 0q0 -0.578125 -0.421875 -1.0625q-0.578125 -0.671875 -1.5 -0.671875q-0.828125 0 -1.375 0.53125q-0.546875 0.53125 -0.546875 1.21875q0 0.5625 0.546875 1.0625q0.5625 0.484375 1.375 0.484375q0.8125 0 1.359375 -0.484375q0.5625 -0.5 0.5625 -1.078125zm5.060562 -2.78125l0 0.765625q0.765625 -0.5625 1.203125 -0.734375q0.4375 -0.1875 0.8125 -0.1875q0.59375 0 1.15625 0.4375q0.375 0.296875 0.375 0.609375q0 0.25 -0.1875 0.4375q-0.171875 0.171875 -0.4375 0.171875q-0.21875 0 -0.46875 -0.21875q-0.25 -0.234375 -0.4375 -0.234375q-0.25 0 -0.765625 0.328125q-0.5 0.3125 -1.25 0.953125l0 1.828125l1.71875 0q0.4375 0 0.625 0.171875q0.1875 0.15625 0.1875 0.4375q0 0.25 -0.1875 0.421875q-0.1875 0.171875 -0.625 0.171875l-3.65625 0q-0.421875 0 -0.609375 -0.171875q-0.1875 -0.171875 -0.1875 -0.4375q0 -0.265625 0.1875 -0.421875q0.1875 -0.171875 0.609375 -0.171875l0.734375 0l0 -2.9375l-0.4375 0q-0.4375 0 -0.625 -0.171875q-0.1875 -0.171875 -0.1875 -0.4375q0 -0.265625 0.1875 -0.4375q0.1875 -0.171875 0.625 -0.171875l1.640625 0zm5.623062 0l0 0.34375q0.296875 -0.28125 0.53125 -0.390625q0.25 -0.109375 0.5625 -0.109375q0.265625 0 0.515625 0.125q0.265625 0.125 0.515625 0.390625q0.3125 -0.265625 0.625 -0.390625q0.328125 -0.125 0.671875 -0.125q0.671875 0 1.078125 0.359375q0.5625 0.46875 0.5625 1.234375l0 2.71875q0.375 0 0.5625 0.171875q0.1875 0.171875 0.1875 0.4375q0 0.25 -0.1875 0.421875q-0.1875 0.171875 -0.625 0.171875l-1.140625 0l0 -3.8125q0 -0.28125 -0.109375 -0.390625q-0.09375 -0.109375 -0.296875 -0.109375q-0.203125 0 -0.375 0.109375q-0.21875 0.15625 -0.53125 0.5625l0 2.4375q0.375 0 0.546875 0.171875q0.1875 0.171875 0.1875 0.4375q0 0.25 -0.1875 0.421875q-0.171875 0.171875 -0.609375 0.171875l-1.15625 0l0 -3.8125q0 -0.28125 -0.109375 -0.390625q-0.09375 -0.109375 -0.296875 -0.109375q-0.21875 0 -0.421875 0.140625q-0.203125 0.125 -0.5 0.53125l0 2.4375q0.390625 0 0.5625 0.171875q0.1875 0.171875 0.1875 0.4375q0 0.25 -0.1875 0.421875q-0.171875 0.171875 -0.609375 0.171875l-1.09375 0q-0.4375 0 -0.625 -0.171875q-0.1875 -0.171875 -0.1875 -0.4375q0 -0.265625 0.1875 -0.421875q0.1875 -0.171875 0.5625 -0.171875l0 -2.9375q-0.375 0 -0.5625 -0.171875q-0.1875 -0.171875 -0.1875 -0.4375q0 -0.265625 0.1875 -0.4375q0.1875 -0.171875 0.625 -0.171875l1.140625 0z" fill-rule="nonzero"/><path fill="#b6d7a8" d="m110.265656 376.43045l81.6378 0l0 38.393707l-81.6378 0z" fill-rule="evenodd"/><path stroke="#000000" stroke-width="0.84251968503937" stroke-linejoin="round" stroke-linecap="butt" d="m110.265656 376.43045l81.6378 0l0 38.393707l-81.6378 0z" fill-rule="evenodd"/><path fill="#000000" d="m136.35599 396.64648q0 1.609375 -1.03125 2.6875q-1.015625 1.0625 -2.359375 1.0625q-1.203125 0 -2.1875 -0.890625q-1.203125 -1.09375 -1.203125 -2.859375q0 -1.75 1.203125 -2.859375q0.984375 -0.890625 2.1875 -0.890625q1.34375 0 2.359375 1.078125q1.03125 1.0625 1.03125 2.671875zm-1.203125 0q0 -1.09375 -0.671875 -1.8125q-0.671875 -0.734375 -1.515625 -0.734375q-0.84375 0 -1.515625 0.734375q-0.65625 0.71875 -0.65625 1.8125q0 1.09375 0.65625 1.828125q0.671875 0.71875 1.515625 0.71875q0.84375 0 1.515625 -0.71875q0.671875 -0.71875 0.671875 -1.828125zm7.623062 -1.78125l0 4.15625q0.390625 0 0.5625 0.171875q0.1875 0.171875 0.1875 0.4375q0 0.25 -0.1875 0.421875q-0.1875 0.171875 -0.609375 0.171875l-1.15625 0l0 -0.28125q-0.515625 0.234375 -1.0 0.34375q-0.46875 0.125 -0.890625 0.125q-0.59375 0 -1.03125 -0.25q-0.4375 -0.25 -0.6875 -0.6875q-0.1875 -0.3125 -0.1875 -0.796875l0 -2.59375l-0.203125 0q-0.4375 0 -0.625 -0.171875q-0.1875 -0.171875 -0.1875 -0.4375q0 -0.265625 0.1875 -0.4375q0.1875 -0.171875 0.625 -0.171875l1.421875 0l0 3.609375q0 0.375 0.171875 0.5625q0.1875 0.171875 0.578125 0.171875q0.359375 0 0.78125 -0.140625q0.421875 -0.140625 1.046875 -0.53125l0 -2.453125l-0.4375 0q-0.4375 0 -0.625 -0.171875q-0.1875 -0.171875 -0.1875 -0.4375q0 -0.265625 0.1875 -0.4375q0.1875 -0.171875 0.625 -0.171875l1.640625 0zm4.388687 1.21875l0 2.421875q0 0.390625 0.15625 0.515625q0.25 0.1875 0.890625 0.1875q0.921875 0 1.703125 -0.390625q0.296875 -0.15625 0.46875 -0.15625q0.234375 0 0.40625 0.1875q0.1875 0.171875 0.1875 0.421875q0 0.234375 -0.1875 0.40625q-0.296875 0.28125 -1.15625 0.515625q-0.84375 0.21875 -1.421875 0.21875q-1.125 0 -1.6875 -0.484375q-0.5625 -0.484375 -0.5625 -1.1875l0 -2.65625l-0.4375 0q-0.4375 0 -0.625 -0.171875q-0.1875 -0.171875 -0.1875 -0.4375q0 -0.265625 0.1875 -0.4375q0.1875 -0.171875 0.625 -0.171875l0.4375 0l0 -1.09375q0 -0.421875 0.15625 -0.609375q0.171875 -0.1875 0.4375 -0.1875q0.265625 0 0.4375 0.1875q0.171875 0.1875 0.171875 0.609375l0 1.09375l2.234375 0q0.4375 0 0.625 0.171875q0.1875 0.171875 0.1875 0.4375q0 0.265625 -0.1875 0.4375q-0.1875 0.171875 -0.625 0.171875l-2.234375 0zm6.044937 3.46875l0 1.984375l0.71875 0q0.4375 0 0.625 0.171875q0.1875 0.171875 0.1875 0.4375q0 0.265625 -0.1875 0.4375q-0.1875 0.171875 -0.625 0.171875l-2.140625 0q-0.4375 0 -0.625 -0.171875q-0.171875 -0.171875 -0.171875 -0.4375q0 -0.265625 0.1875 -0.4375q0.1875 -0.171875 0.609375 -0.171875l0.21875 0l0 -5.453125l-0.21875 0q-0.4375 0 -0.625 -0.171875q-0.171875 -0.171875 -0.171875 -0.4375q0 -0.265625 0.171875 -0.4375q0.1875 -0.171875 0.625 -0.171875l1.421875 0l0 0.421875q0.421875 -0.296875 0.875 -0.4375q0.453125 -0.140625 0.9375 -0.140625q1.234375 0 2.109375 0.84375q0.875 0.84375 0.875 1.921875q0 1.203125 -1.03125 1.984375q-0.859375 0.640625 -1.9375 0.640625q-0.46875 0 -0.921875 -0.125q-0.453125 -0.140625 -0.90625 -0.421875zm3.578125 -2.078125q0 -0.25 -0.203125 -0.640625q-0.1875 -0.390625 -0.609375 -0.65625q-0.421875 -0.265625 -0.96875 -0.265625q-0.90625 0 -1.4375 0.6875q-0.359375 0.46875 -0.359375 0.890625q0 0.484375 0.515625 0.953125q0.515625 0.453125 1.28125 0.453125q0.765625 0 1.265625 -0.453125q0.515625 -0.453125 0.515625 -0.96875zm7.732437 -2.609375l0 4.15625q0.390625 0 0.5625 0.171875q0.1875 0.171875 0.1875 0.4375q0 0.25 -0.1875 0.421875q-0.1875 0.171875 -0.609375 0.171875l-1.15625 0l0 -0.28125q-0.515625 0.234375 -1.0 0.34375q-0.46875 0.125 -0.890625 0.125q-0.59375 0 -1.03125 -0.25q-0.4375 -0.25 -0.6875 -0.6875q-0.1875 -0.3125 -0.1875 -0.796875l0 -2.59375l-0.203125 0q-0.4375 0 -0.625 -0.171875q-0.1875 -0.171875 -0.1875 -0.4375q0 -0.265625 0.1875 -0.4375q0.1875 -0.171875 0.625 -0.171875l1.421875 0l0 3.609375q0 0.375 0.171875 0.5625q0.1875 0.171875 0.578125 0.171875q0.359375 0 0.78125 -0.140625q0.421875 -0.140625 1.046875 -0.53125l0 -2.453125l-0.4375 0q-0.4375 0 -0.625 -0.171875q-0.1875 -0.171875 -0.1875 -0.4375q0 -0.265625 0.1875 -0.4375q0.1875 -0.171875 0.625 -0.171875l1.640625 0zm4.388687 1.21875l0 2.421875q0 0.390625 0.15625 0.515625q0.25 0.1875 0.890625 0.1875q0.921875 0 1.703125 -0.390625q0.296875 -0.15625 0.46875 -0.15625q0.234375 0 0.40625 0.1875q0.1875 0.171875 0.1875 0.421875q0 0.234375 -0.1875 0.40625q-0.296875 0.28125 -1.15625 0.515625q-0.84375 0.21875 -1.421875 0.21875q-1.125 0 -1.6875 -0.484375q-0.5625 -0.484375 -0.5625 -1.1875l0 -2.65625l-0.4375 0q-0.4375 0 -0.625 -0.171875q-0.1875 -0.171875 -0.1875 -0.4375q0 -0.265625 0.1875 -0.4375q0.1875 -0.171875 0.625 -0.171875l0.4375 0l0 -1.09375q0 -0.421875 0.15625 -0.609375q0.171875 -0.1875 0.4375 -0.1875q0.265625 0 0.4375 0.1875q0.171875 0.1875 0.171875 0.609375l0 1.09375l2.234375 0q0.4375 0 0.625 0.171875q0.1875 0.171875 0.1875 0.4375q0 0.265625 -0.1875 0.4375q-0.1875 0.171875 -0.625 0.171875l-2.234375 0z" fill-rule="nonzero"/><path fill="#000000" fill-opacity="0.0" d="m151.05305 358.9568l0.03149414 17.480316" fill-rule="evenodd"/><path stroke="#595959" stroke-width="1.0" stroke-linejoin="round" stroke-linecap="butt" d="m151.05305 358.9568l0.020690918 11.480316" fill-rule="evenodd"/><path fill="#595959" stroke="#595959" stroke-width="1.0" stroke-linecap="butt" d="m149.42201 370.44006l1.6599121 4.5351257l1.6435547 -4.5410767z" fill-rule="evenodd"/><path fill="#000000" fill-opacity="0.0" d="m307.51968 95.72476l-115.65355 0" fill-rule="evenodd"/><path stroke="#595959" stroke-width="1.0" stroke-linejoin="round" stroke-linecap="butt" d="m307.51968 95.72477l-109.65355 0" fill-rule="evenodd"/><path fill="#595959" stroke="#595959" stroke-width="1.0" stroke-linecap="butt" d="m197.86613 94.07304l-4.538086 1.6517334l4.538086 1.6517334z" fill-rule="evenodd"/><path fill="#000000" fill-opacity="0.0" d="m307.50607 237.52089l-115.622055 0" fill-rule="evenodd"/><path stroke="#595959" stroke-width="1.0" stroke-linejoin="round" stroke-linecap="butt" d="m307.50607 237.52089l-109.622055 0" fill-rule="evenodd"/><path fill="#595959" stroke="#595959" stroke-width="1.0" stroke-linecap="butt" d="m197.88402 235.86916l-4.538086 1.6517334l4.538086 1.6517334z" fill-rule="evenodd"/><path fill="#000000" fill-opacity="0.0" d="m307.51968 338.8378l-115.65355 0.9133606" fill-rule="evenodd"/><path stroke="#595959" stroke-width="1.0" stroke-linejoin="round" stroke-linecap="butt" d="m307.51968 338.83777l-109.65373 0.86602783" fill-rule="evenodd"/><path fill="#595959" stroke="#595959" stroke-width="1.0" stroke-linecap="butt" d="m197.8529 338.0521l-4.5249023 1.6875305l4.550995 1.6158447z" fill-rule="evenodd"/><path fill="#efefef" d="m307.51968 82.05547l38.393707 0l0 27.338585l-38.393707 0z" fill-rule="evenodd"/><path stroke="#000000" stroke-width="0.84251968503937" stroke-linejoin="round" stroke-linecap="butt" d="m307.51968 82.05547l38.393707 0l0 27.338585l-38.393707 0z" fill-rule="evenodd"/><path fill="#000000" d="m323.09348 96.884575l-1.125 3.4375l-1.34375 0l-0.71875 -5.9375q-0.28125 -0.03125 -0.421875 -0.1875q-0.140625 -0.15625 -0.140625 -0.40625q0 -0.28125 0.171875 -0.453125q0.1875 -0.171875 0.625 -0.171875l1.609375 0.015625q0.4375 0 0.625 0.171875q0.1875 0.15625 0.1875 0.421875q0 0.265625 -0.1875 0.4375q-0.1875 0.171875 -0.625 0.171875l-0.625 0l0.40625 3.375l0.9375 -2.8125l1.265625 0l0.9375 2.8125l0.40625 -3.375l-0.625 0q-0.4375 0 -0.625 -0.171875q-0.1875 -0.171875 -0.1875 -0.4375q0 -0.265625 0.1875 -0.4375q0.1875 -0.171875 0.625 -0.171875l1.59375 0.015625q0.4375 0 0.625 0.171875q0.1875 0.15625 0.1875 0.421875q0 0.234375 -0.15625 0.40625q-0.140625 0.15625 -0.421875 0.203125l-0.6875 5.9375l-1.34375 0l-1.15625 -3.4375zm7.857422 -4.390625l0 6.625l1.234375 0q0.421875 0 0.609375 0.171875q0.1875 0.15625 0.1875 0.4375q0 0.25 -0.1875 0.421875q-0.1875 0.171875 -0.609375 0.171875l-3.65625 0q-0.4375 0 -0.625 -0.171875q-0.1875 -0.171875 -0.1875 -0.4375q0 -0.265625 0.1875 -0.421875q0.1875 -0.171875 0.625 -0.171875l1.21875 0l0 -5.046875l-1.078125 0.28125q-0.265625 0.078125 -0.390625 0.078125q-0.234375 0 -0.40625 -0.1875q-0.15625 -0.1875 -0.15625 -0.453125q0 -0.234375 0.125 -0.375q0.125 -0.140625 0.515625 -0.25l2.59375 -0.671875z" fill-rule="nonzero"/><path fill="#efefef" d="m307.50607 218.32404l38.393677 0l0 38.393707l-38.393677 0z" fill-rule="evenodd"/><path stroke="#000000" stroke-width="0.84251968503937" stroke-linejoin="round" stroke-linecap="butt" d="m307.50607 218.32404l38.393677 0l0 38.393707l-38.393677 0z" fill-rule="evenodd"/><path fill="#000000" d="m323.07983 238.6807l-1.125 3.4375l-1.34375 0l-0.71875 -5.9375q-0.28125 -0.03125 -0.421875 -0.1875q-0.140625 -0.15625 -0.140625 -0.40625q0 -0.28125 0.171875 -0.453125q0.1875 -0.171875 0.625 -0.171875l1.609375 0.015625q0.4375 0 0.625 0.171875q0.1875 0.15625 0.1875 0.421875q0 0.265625 -0.1875 0.4375q-0.1875 0.171875 -0.625 0.171875l-0.625 0l0.40625 3.375l0.9375 -2.8125l1.265625 0l0.9375 2.8125l0.40625 -3.375l-0.625 0q-0.4375 0 -0.625 -0.171875q-0.1875 -0.171875 -0.1875 -0.4375q0 -0.265625 0.1875 -0.4375q0.1875 -0.171875 0.625 -0.171875l1.59375 0.015625q0.4375 0 0.625 0.171875q0.1875 0.15625 0.1875 0.421875q0 0.234375 -0.15625 0.40625q-0.140625 0.15625 -0.421875 0.203125l-0.6875 5.9375l-1.34375 0l-1.15625 -3.4375zm6.1230774 2.234375l2.640625 0q0.21875 -0.1875 0.421875 -0.1875q0.265625 0 0.421875 0.1875q0.171875 0.1875 0.171875 0.625l0 0.578125l-5.5 0l0 -1.28125q3.265625 -2.6875 3.9375 -3.46875q0.34375 -0.390625 0.34375 -0.75q0 -0.4375 -0.390625 -0.765625q-0.390625 -0.34375 -1.03125 -0.34375q-0.640625 0 -1.078125 0.375q-0.21875 0.1875 -0.359375 0.59375q-0.078125 0.25 -0.234375 0.359375q-0.140625 0.09375 -0.34375 0.09375q-0.25 0 -0.4375 -0.171875q-0.171875 -0.171875 -0.171875 -0.421875q0 -0.34375 0.328125 -0.875q0.328125 -0.53125 0.953125 -0.84375q0.625 -0.328125 1.359375 -0.328125q1.15625 0 1.875 0.703125q0.734375 0.6875 0.734375 1.671875q0 0.5 -0.21875 0.9375q-0.203125 0.421875 -0.984375 1.171875q-0.625 0.59375 -2.4375 2.140625z" fill-rule="nonzero"/><path fill="#efefef" d="m307.51968 330.09763l38.393707 0l0 17.480316l-38.393707 0z" fill-rule="evenodd"/><path stroke="#000000" stroke-width="0.84251968503937" stroke-linejoin="round" stroke-linecap="butt" d="m307.51968 330.09763l38.393707 0l0 17.480316l-38.393707 0z" fill-rule="evenodd"/><path fill="#000000" d="m323.09348 339.9976l-1.125 3.4375l-1.34375 0l-0.71875 -5.9375q-0.28125 -0.03125 -0.421875 -0.1875q-0.140625 -0.15625 -0.140625 -0.40625q0 -0.28125 0.171875 -0.453125q0.1875 -0.171875 0.625 -0.171875l1.609375 0.015625q0.4375 0 0.625 0.171875q0.1875 0.15625 0.1875 0.421875q0 0.265625 -0.1875 0.4375q-0.1875 0.171875 -0.625 0.171875l-0.625 0l0.40625 3.375l0.9375 -2.8125l1.265625 0l0.9375 2.8125l0.40625 -3.375l-0.625 0q-0.4375 0 -0.625 -0.171875q-0.1875 -0.171875 -0.1875 -0.4375q0 -0.265625 0.1875 -0.4375q0.1875 -0.171875 0.625 -0.171875l1.59375 0.015625q0.4375 0 0.625 0.171875q0.1875 0.15625 0.1875 0.421875q0 0.234375 -0.15625 0.40625q-0.140625 0.15625 -0.421875 0.203125l-0.6875 5.9375l-1.34375 0l-1.15625 -3.4375zm8.966797 -0.609375q0.546875 0.375 0.8125 0.859375q0.265625 0.46875 0.265625 1.0625q0 0.65625 -0.359375 1.203125q-0.34375 0.53125 -1.015625 0.8125q-0.671875 0.28125 -1.75 0.28125q-1.390625 0 -2.109375 -0.4375q-0.390625 -0.234375 -0.390625 -0.578125q0 -0.265625 0.171875 -0.4375q0.171875 -0.1875 0.421875 -0.1875q0.171875 0 0.359375 0.125q0.25 0.171875 0.484375 0.234375q0.359375 0.078125 0.96875 0.078125q1.0625 0 1.53125 -0.265625q0.46875 -0.28125 0.46875 -0.78125q0 -0.375 -0.28125 -0.71875q-0.265625 -0.34375 -0.71875 -0.53125q-0.265625 -0.109375 -0.90625 -0.15625q-0.296875 -0.015625 -0.46875 -0.171875q-0.15625 -0.171875 -0.15625 -0.421875q0 -0.265625 0.171875 -0.4375q0.1875 -0.171875 0.453125 -0.171875q0.609375 0 0.65625 -0.015625q0.234375 -0.015625 0.46875 -0.140625q0.234375 -0.140625 0.375 -0.359375q0.140625 -0.234375 0.140625 -0.46875q0 -0.390625 -0.34375 -0.671875q-0.328125 -0.28125 -1.015625 -0.28125q-0.859375 0 -1.328125 0.515625q-0.125 0.140625 -0.21875 0.1875q-0.125 0.0625 -0.28125 0.0625q-0.234375 0 -0.421875 -0.171875q-0.171875 -0.1875 -0.171875 -0.4375q0 -0.40625 0.546875 -0.796875q0.78125 -0.5625 1.96875 -0.5625q1.125 0 1.796875 0.640625q0.6875 0.640625 0.6875 1.53125q0 0.46875 -0.203125 0.875q-0.203125 0.40625 -0.609375 0.734375z" fill-rule="nonzero"/><path fill="#b6d7a8" d="m110.265656 124.54068l81.6378 0l0 38.393707l-81.6378 0z" fill-rule="evenodd"/><path stroke="#000000" stroke-width="0.84251968503937" stroke-linejoin="round" stroke-linecap="butt" d="m110.265656 124.54068l81.6378 0l0 38.393707l-81.6378 0z" fill-rule="evenodd"/><path fill="#000000" d="m137.74467 140.13171l0 -4.734375l-0.1875 0q-0.4375 0 -0.625 -0.171875q-0.1875 -0.171875 -0.1875 -0.4375q0 -0.265625 0.1875 -0.4375q0.1875 -0.171875 0.625 -0.171875l3.03125 0q1.078125 0 1.734375 0.609375q0.671875 0.609375 0.671875 1.4375q0 0.390625 -0.15625 0.75q-0.15625 0.34375 -0.46875 0.625q0.578125 0.34375 0.859375 0.8125q0.28125 0.453125 0.28125 1.03125q0 0.453125 -0.203125 0.859375q-0.15625 0.296875 -0.375 0.46875q-0.296875 0.25 -0.734375 0.40625q-0.4375 0.15625 -1.09375 0.15625l-3.546875 0q-0.4375 0 -0.625 -0.171875q-0.1875 -0.171875 -0.1875 -0.4375q0 -0.265625 0.1875 -0.421875q0.1875 -0.171875 0.625 -0.171875l0.1875 0zm1.203125 -2.984375l1.328125 0q0.71875 0 1.1875 -0.359375q0.328125 -0.234375 0.328125 -0.59375q0 -0.328125 -0.3125 -0.5625q-0.296875 -0.234375 -0.953125 -0.234375l-1.578125 0l0 1.75zm0 2.984375l2.09375 0q0.734375 0 1.03125 -0.21875q0.234375 -0.171875 0.234375 -0.484375q0 -0.359375 -0.453125 -0.703125q-0.453125 -0.359375 -1.296875 -0.359375l-1.609375 0l0 1.765625zm8.951187 -6.453125l0 1.28125l-1.4375 0l0 -1.28125l1.4375 0zm0.15625 2.296875l0 4.15625l1.453125 0q0.4375 0 0.625 0.171875q0.1875 0.15625 0.1875 0.4375q0 0.25 -0.1875 0.421875q-0.1875 0.171875 -0.625 0.171875l-4.109375 0q-0.4375 0 -0.625 -0.171875q-0.1875 -0.171875 -0.1875 -0.4375q0 -0.265625 0.1875 -0.421875q0.1875 -0.171875 0.625 -0.171875l1.453125 0l0 -2.9375l-0.96875 0q-0.4375 0 -0.625 -0.171875q-0.1875 -0.171875 -0.1875 -0.4375q0 -0.265625 0.1875 -0.4375q0.1875 -0.171875 0.625 -0.171875l2.171875 0zm7.748062 5.359375l0 -0.28125q-0.453125 0.234375 -1.015625 0.359375q-0.546875 0.125 -0.984375 0.125q-0.984375 0 -1.59375 -0.515625q-0.59375 -0.515625 -0.59375 -1.140625q0 -0.765625 0.765625 -1.40625q0.78125 -0.65625 2.140625 -0.65625q0.5625 0 1.28125 0.109375l0 -0.28125q0 -0.28125 -0.234375 -0.453125q-0.234375 -0.171875 -0.890625 -0.171875q-0.53125 0 -1.390625 0.21875q-0.328125 0.078125 -0.5 0.078125q-0.234375 0 -0.40625 -0.171875q-0.171875 -0.171875 -0.171875 -0.453125q0 -0.140625 0.0625 -0.25q0.0625 -0.125 0.15625 -0.1875q0.109375 -0.078125 0.453125 -0.171875q0.4375 -0.109375 0.90625 -0.1875q0.46875 -0.078125 0.84375 -0.078125q1.125 0 1.75 0.484375q0.625 0.484375 0.625 1.328125l0 2.5l0.203125 0q0.4375 0 0.625 0.171875q0.1875 0.15625 0.1875 0.4375q0 0.25 -0.1875 0.421875q-0.1875 0.171875 -0.625 0.171875l-1.40625 0zm0 -2.171875q-0.734375 -0.140625 -1.34375 -0.140625q-0.734375 0 -1.265625 0.359375q-0.328125 0.234375 -0.328125 0.46875q0 0.171875 0.15625 0.28125q0.296875 0.1875 0.8125 0.1875q0.421875 0 0.96875 -0.15625q0.5625 -0.171875 1.0 -0.46875l0 -0.53125zm7.466812 -1.765625q-0.296875 -0.1875 -0.625 -0.28125q-0.328125 -0.09375 -0.671875 -0.09375q-0.703125 0 -1.125 0.234375q-0.1875 0.109375 -0.1875 0.21875q0 0.140625 0.25 0.265625q0.1875 0.09375 0.84375 0.1875q1.203125 0.15625 1.671875 0.328125q0.625 0.21875 0.953125 0.65625q0.34375 0.421875 0.34375 0.90625q0 0.640625 -0.5625 1.078125q-0.828125 0.625 -2.140625 0.625q-0.515625 0 -0.96875 -0.09375q-0.4375 -0.078125 -0.8125 -0.265625q-0.09375 0.078125 -0.203125 0.125q-0.09375 0.046875 -0.1875 0.046875q-0.28125 0 -0.453125 -0.1875q-0.171875 -0.1875 -0.171875 -0.625l0 -0.40625q0 -0.4375 0.171875 -0.625q0.171875 -0.1875 0.4375 -0.1875q0.21875 0 0.359375 0.125q0.15625 0.125 0.234375 0.421875q0.28125 0.234375 0.671875 0.359375q0.390625 0.109375 0.890625 0.109375q0.828125 0 1.296875 -0.265625q0.21875 -0.125 0.21875 -0.265625q0 -0.234375 -0.3125 -0.390625q-0.3125 -0.15625 -1.296875 -0.25q-1.453125 -0.15625 -1.953125 -0.59375q-0.484375 -0.4375 -0.484375 -1.0625q0 -0.65625 0.546875 -1.078125q0.75 -0.59375 1.953125 -0.59375q0.421875 0 0.796875 0.078125q0.390625 0.078125 0.75 0.25q0.109375 -0.078125 0.203125 -0.125q0.09375 -0.046875 0.1875 -0.046875q0.234375 0 0.40625 0.1875q0.171875 0.1875 0.171875 0.625l0 0.296875q0 0.390625 -0.09375 0.53125q-0.203125 0.28125 -0.515625 0.28125q-0.21875 0 -0.390625 -0.140625q-0.15625 -0.140625 -0.203125 -0.359375z" fill-rule="nonzero"/><path fill="#000000" d="m127.18606 153.38171l-2.921875 0l-0.296875 0.75l0.296875 0q0.421875 0 0.609375 0.171875q0.1875 0.15625 0.1875 0.4375q0 0.25 -0.1875 0.421875q-0.1875 0.171875 -0.609375 0.171875l-1.640625 0q-0.4375 0 -0.609375 -0.171875q-0.1875 -0.171875 -0.1875 -0.4375q0 -0.265625 0.203125 -0.4375q0.1875 -0.171875 0.625 -0.15625l1.90625 -4.734375l-0.796875 0q-0.4375 0 -0.625 -0.171875q-0.1875 -0.171875 -0.1875 -0.4375q0 -0.265625 0.1875 -0.4375q0.1875 -0.171875 0.625 -0.171875l2.609375 0.015625l2.4062424 5.9375q0.4375 0 0.5625 0.09375q0.28125 0.1875 0.28125 0.515625q0 0.25 -0.1875 0.421875q-0.1875 0.171875 -0.625 0.171875l-1.6249924 0q-0.4375 0 -0.625 -0.171875q-0.1875 -0.171875 -0.1875 -0.4375q0 -0.265625 0.1875 -0.421875q0.1875 -0.171875 0.625 -0.171875l0.296875 0l-0.296875 -0.75zm-0.5 -1.203125l-0.96875 -2.390625l-0.984375 2.390625l1.953125 0zm9.0605545 -4.5l0 6.453125l0.203125 0q0.421875 0 0.609375 0.171875q0.1875 0.15625 0.1875 0.4375q0 0.25 -0.1875 0.421875q-0.171875 0.171875 -0.609375 0.171875l-1.421875 0l0 -0.296875q-0.40625 0.25 -0.859375 0.359375q-0.453125 0.125 -0.9375 0.125q-1.359375 0 -2.203125 -0.78125q-0.828125 -0.78125 -0.828125 -1.953125q0 -1.234375 0.875 -2.09375q0.875 -0.875 2.140625 -0.875q0.46875 0 0.921875 0.15625q0.453125 0.140625 0.890625 0.421875l0 -1.5l-0.203125 0q-0.4375 0 -0.625 -0.171875q-0.1875 -0.171875 -0.1875 -0.4375q0 -0.265625 0.1875 -0.4375q0.1875 -0.171875 0.625 -0.171875l1.421875 0zm-1.21875 5.140625q0 -0.75 -0.53125 -1.265625q-0.515625 -0.53125 -1.28125 -0.53125q-0.75 0 -1.28125 0.53125q-0.515625 0.515625 -0.515625 1.25q0 0.65625 0.46875 1.09375q0.46875 0.421875 1.328125 0.421875q0.859375 0 1.328125 -0.421875q0.484375 -0.4375 0.484375 -1.078125zm8.466812 -5.140625l0 6.453125l0.203125 0q0.421875 0 0.609375 0.171875q0.1875 0.15625 0.1875 0.4375q0 0.25 -0.1875 0.421875q-0.171875 0.171875 -0.609375 0.171875l-1.421875 0l0 -0.296875q-0.40625 0.25 -0.859375 0.359375q-0.453125 0.125 -0.9375 0.125q-1.359375 0 -2.203125 -0.78125q-0.828125 -0.78125 -0.828125 -1.953125q0 -1.234375 0.875 -2.09375q0.875 -0.875 2.140625 -0.875q0.46875 0 0.921875 0.15625q0.453125 0.140625 0.890625 0.421875l0 -1.5l-0.203125 0q-0.4375 0 -0.625 -0.171875q-0.1875 -0.171875 -0.1875 -0.4375q0 -0.265625 0.1875 -0.4375q0.1875 -0.171875 0.625 -0.171875l1.421875 0zm-1.21875 5.140625q0 -0.75 -0.53125 -1.265625q-0.515625 -0.53125 -1.28125 -0.53125q-0.75 0 -1.28125 0.53125q-0.515625 0.515625 -0.515625 1.25q0 0.65625 0.46875 1.09375q0.46875 0.421875 1.328125 0.421875q0.859375 0 1.328125 -0.421875q0.484375 -0.4375 0.484375 -1.078125zm6.123062 -5.140625l0 1.28125l-1.4375 0l0 -1.28125l1.4375 0zm0.15625 2.296875l0 4.15625l1.453125 0q0.4375 0 0.625 0.171875q0.1875 0.15625 0.1875 0.4375q0 0.25 -0.1875 0.421875q-0.1875 0.171875 -0.625 0.171875l-4.109375 0q-0.4375 0 -0.625 -0.171875q-0.1875 -0.171875 -0.1875 -0.4375q0 -0.265625 0.1875 -0.421875q0.1875 -0.171875 0.625 -0.171875l1.453125 0l0 -2.9375l-0.96875 0q-0.4375 0 -0.625 -0.171875q-0.1875 -0.171875 -0.1875 -0.4375q0 -0.265625 0.1875 -0.4375q0.1875 -0.171875 0.625 -0.171875l2.171875 0zm6.357437 1.21875l0 2.421875q0 0.390625 0.15625 0.515625q0.25 0.1875 0.890625 0.1875q0.921875 0 1.703125 -0.390625q0.296875 -0.15625 0.46875 -0.15625q0.234375 0 0.40625 0.1875q0.1875 0.171875 0.1875 0.421875q0 0.234375 -0.1875 0.40625q-0.296875 0.28125 -1.15625 0.515625q-0.84375 0.21875 -1.421875 0.21875q-1.125 0 -1.6875 -0.484375q-0.5625 -0.484375 -0.5625 -1.1875l0 -2.65625l-0.4375 0q-0.4375 0 -0.625 -0.171875q-0.1875 -0.171875 -0.1875 -0.4375q0 -0.265625 0.1875 -0.4375q0.1875 -0.171875 0.625 -0.171875l0.4375 0l0 -1.09375q0 -0.421875 0.15625 -0.609375q0.171875 -0.1875 0.4375 -0.1875q0.265625 0 0.4375 0.1875q0.171875 0.1875 0.171875 0.609375l0 1.09375l2.234375 0q0.4375 0 0.625 0.171875q0.1875 0.171875 0.1875 0.4375q0 0.265625 -0.1875 0.4375q-0.1875 0.171875 -0.625 0.171875l-2.234375 0zm7.982437 -3.515625l0 1.28125l-1.4375 0l0 -1.28125l1.4375 0zm0.15625 2.296875l0 4.15625l1.453125 0q0.4375 0 0.625 0.171875q0.1875 0.15625 0.1875 0.4375q0 0.25 -0.1875 0.421875q-0.1875 0.171875 -0.625 0.171875l-4.109375 0q-0.4375 0 -0.625 -0.171875q-0.1875 -0.171875 -0.1875 -0.4375q0 -0.265625 0.1875 -0.421875q0.1875 -0.171875 0.625 -0.171875l1.453125 0l0 -2.9375l-0.96875 0q-0.4375 0 -0.625 -0.171875q-0.1875 -0.171875 -0.1875 -0.4375q0 -0.265625 0.1875 -0.4375q0.1875 -0.171875 0.625 -0.171875l2.171875 0zm9.794937 2.78125q0 0.703125 -0.390625 1.359375q-0.390625 0.640625 -1.15625 1.03125q-0.75 0.375 -1.578125 0.375q-0.828125 0 -1.59375 -0.375q-0.75 -0.375 -1.15625 -1.03125q-0.390625 -0.65625 -0.390625 -1.375q0 -0.71875 0.40625 -1.421875q0.40625 -0.703125 1.15625 -1.09375q0.75 -0.40625 1.578125 -0.40625q0.8125 0 1.578125 0.421875q0.765625 0.40625 1.15625 1.09375q0.390625 0.6875 0.390625 1.421875zm-1.203125 0q0 -0.578125 -0.421875 -1.0625q-0.578125 -0.671875 -1.5 -0.671875q-0.828125 0 -1.375 0.53125q-0.546875 0.53125 -0.546875 1.21875q0 0.5625 0.546875 1.0625q0.5625 0.484375 1.375 0.484375q0.8125 0 1.359375 -0.484375q0.5625 -0.5 0.5625 -1.078125zm4.091812 -2.78125l0 0.40625q0.328125 -0.28125 0.71875 -0.421875q0.40625 -0.140625 0.875 -0.140625q1.0625 0 1.6875 0.671875q0.5 0.53125 0.5 1.390625l0 2.25q0.375 0 0.5625 0.171875q0.1875 0.15625 0.1875 0.4375q0 0.25 -0.1875 0.421875q-0.1875 0.171875 -0.625 0.171875l-1.09375 0q-0.4375 0 -0.625 -0.171875q-0.171875 -0.171875 -0.171875 -0.4375q0 -0.265625 0.171875 -0.421875q0.1875 -0.171875 0.578125 -0.171875l0 -2.28125q0 -0.40625 -0.21875 -0.578125q-0.28125 -0.25 -0.828125 -0.25q-0.421875 0 -0.734375 0.171875q-0.3125 0.15625 -0.796875 0.6875l0 2.25q0.453125 0 0.59375 0.078125q0.296875 0.1875 0.296875 0.53125q0 0.25 -0.1875 0.421875q-0.1875 0.171875 -0.625 0.171875l-1.375 0q-0.4375 0 -0.625 -0.171875q-0.1875 -0.171875 -0.1875 -0.4375q0 -0.328125 0.28125 -0.515625q0.140625 -0.078125 0.609375 -0.078125l0 -2.9375q-0.375 0 -0.5625 -0.171875q-0.1875 -0.171875 -0.1875 -0.4375q0 -0.265625 0.1875 -0.4375q0.1875 -0.171875 0.625 -0.171875l1.15625 0z" fill-rule="nonzero"/><path fill="#b6d7a8" d="m110.23416 222.16763l81.63779 0l0 38.393707l-81.63779 0z" fill-rule="evenodd"/><path stroke="#000000" stroke-width="0.84251968503937" stroke-linejoin="round" stroke-linecap="butt" d="m110.23416 222.16763l81.63779 0l0 38.393707l-81.63779 0z" fill-rule="evenodd"/><path fill="#000000" d="m132.43387 233.02429l0 4.734375l2.59375 0l0 -1.15625q0 -0.4375 0.171875 -0.609375q0.171875 -0.1875 0.4375 -0.1875q0.265625 0 0.4375 0.1875q0.171875 0.171875 0.171875 0.609375l0 2.359375l-5.734375 0q-0.4375 0 -0.625 -0.171875q-0.171875 -0.171875 -0.171875 -0.4375q0 -0.265625 0.171875 -0.421875q0.1875 -0.171875 0.625 -0.171875l0.703125 0l0 -4.734375l-0.703125 0q-0.4375 0 -0.625 -0.171875q-0.171875 -0.171875 -0.171875 -0.4375q0 -0.265625 0.171875 -0.4375q0.1875 -0.171875 0.625 -0.171875l2.625 0.015625q0.4375 0 0.625 0.171875q0.1875 0.15625 0.1875 0.421875q0 0.265625 -0.1875 0.4375q-0.1875 0.171875 -0.625 0.171875l-0.703125 0zm8.185562 -1.71875l0 1.28125l-1.4375 0l0 -1.28125l1.4375 0zm0.15625 2.296875l0 4.15625l1.453125 0q0.4375 0 0.625 0.171875q0.1875 0.15625 0.1875 0.4375q0 0.25 -0.1875 0.421875q-0.1875 0.171875 -0.625 0.171875l-4.109375 0q-0.4375 0 -0.625 -0.171875q-0.1875 -0.171875 -0.1875 -0.4375q0 -0.265625 0.1875 -0.421875q0.1875 -0.171875 0.625 -0.171875l1.453125 0l0 -2.9375l-0.96875 0q-0.4375 0 -0.625 -0.171875q-0.1875 -0.171875 -0.1875 -0.4375q0 -0.265625 0.1875 -0.4375q0.1875 -0.171875 0.625 -0.171875l2.171875 0zm5.435562 0l0 0.40625q0.328125 -0.28125 0.71875 -0.421875q0.40625 -0.140625 0.875 -0.140625q1.0625 0 1.6875 0.671875q0.5 0.53125 0.5 1.390625l0 2.25q0.375 0 0.5625 0.171875q0.1875 0.15625 0.1875 0.4375q0 0.25 -0.1875 0.421875q-0.1875 0.171875 -0.625 0.171875l-1.09375 0q-0.4375 0 -0.625 -0.171875q-0.171875 -0.171875 -0.171875 -0.4375q0 -0.265625 0.171875 -0.421875q0.1875 -0.171875 0.578125 -0.171875l0 -2.28125q0 -0.40625 -0.21875 -0.578125q-0.28125 -0.25 -0.828125 -0.25q-0.421875 0 -0.734375 0.171875q-0.3125 0.15625 -0.796875 0.6875l0 2.25q0.453125 0 0.59375 0.078125q0.296875 0.1875 0.296875 0.53125q0 0.25 -0.1875 0.421875q-0.1875 0.171875 -0.625 0.171875l-1.375 0q-0.4375 0 -0.625 -0.171875q-0.1875 -0.171875 -0.1875 -0.4375q0 -0.328125 0.28125 -0.515625q0.140625 -0.078125 0.609375 -0.078125l0 -2.9375q-0.375 0 -0.5625 -0.171875q-0.1875 -0.171875 -0.1875 -0.4375q0 -0.265625 0.1875 -0.4375q0.1875 -0.171875 0.625 -0.171875l1.15625 0zm11.498062 3.296875l-4.953125 0q0.1875 0.46875 0.65625 0.765625q0.484375 0.28125 1.3125 0.28125q0.671875 0 1.78125 -0.28125q0.46875 -0.125 0.640625 -0.125q0.234375 0 0.40625 0.171875q0.171875 0.171875 0.171875 0.4375q0 0.234375 -0.1875 0.390625q-0.234375 0.21875 -1.15625 0.421875q-0.90625 0.1875 -1.75 0.1875q-1.453125 0 -2.328125 -0.8125q-0.859375 -0.8125 -0.859375 -2.015625q0 -1.28125 0.9375 -2.078125q0.9375 -0.796875 2.171875 -0.796875q0.734375 0 1.34375 0.265625q0.625 0.25 0.921875 0.5625q0.421875 0.421875 0.703125 1.078125q0.1875 0.4375 0.1875 1.03125l0 0.515625zm-1.34375 -1.203125q-0.265625 -0.53125 -0.71875 -0.78125q-0.453125 -0.265625 -1.0625 -0.265625q-0.625 0 -1.078125 0.265625q-0.4375 0.25 -0.71875 0.78125l3.578125 0zm6.654312 3.265625l0 -0.28125q-0.453125 0.234375 -1.015625 0.359375q-0.546875 0.125 -0.984375 0.125q-0.984375 0 -1.59375 -0.515625q-0.59375 -0.515625 -0.59375 -1.140625q0 -0.765625 0.765625 -1.40625q0.78125 -0.65625 2.140625 -0.65625q0.5625 0 1.28125 0.109375l0 -0.28125q0 -0.28125 -0.234375 -0.453125q-0.234375 -0.171875 -0.890625 -0.171875q-0.53125 0 -1.390625 0.21875q-0.328125 0.078125 -0.5 0.078125q-0.234375 0 -0.40625 -0.171875q-0.171875 -0.171875 -0.171875 -0.453125q0 -0.140625 0.0625 -0.25q0.0625 -0.125 0.15625 -0.1875q0.109375 -0.078125 0.453125 -0.171875q0.4375 -0.109375 0.90625 -0.1875q0.46875 -0.078125 0.84375 -0.078125q1.125 0 1.75 0.484375q0.625 0.484375 0.625 1.328125l0 2.5l0.203125 0q0.4375 0 0.625 0.171875q0.1875 0.15625 0.1875 0.4375q0 0.25 -0.1875 0.421875q-0.1875 0.171875 -0.625 0.171875l-1.40625 0zm0 -2.171875q-0.734375 -0.140625 -1.34375 -0.140625q-0.734375 0 -1.265625 0.359375q-0.328125 0.234375 -0.328125 0.46875q0 0.171875 0.15625 0.28125q0.296875 0.1875 0.8125 0.1875q0.421875 0 0.96875 -0.15625q0.5625 -0.171875 1.0 -0.46875l0 -0.53125zm5.904312 -3.1875l0 0.765625q0.765625 -0.5625 1.203125 -0.734375q0.4375 -0.1875 0.8125 -0.1875q0.59375 0 1.15625 0.4375q0.375 0.296875 0.375 0.609375q0 0.25 -0.1875 0.4375q-0.171875 0.171875 -0.4375 0.171875q-0.21875 0 -0.46875 -0.21875q-0.25 -0.234375 -0.4375 -0.234375q-0.25 0 -0.765625 0.328125q-0.5 0.3125 -1.25 0.953125l0 1.828125l1.71875 0q0.4375 0 0.625 0.171875q0.1875 0.15625 0.1875 0.4375q0 0.25 -0.1875 0.421875q-0.1875 0.171875 -0.625 0.171875l-3.65625 0q-0.421875 0 -0.609375 -0.171875q-0.1875 -0.171875 -0.1875 -0.4375q0 -0.265625 0.1875 -0.421875q0.1875 -0.171875 0.609375 -0.171875l0.734375 0l0 -2.9375l-0.4375 0q-0.4375 0 -0.625 -0.171875q-0.1875 -0.171875 -0.1875 -0.4375q0 -0.265625 0.1875 -0.4375q0.1875 -0.171875 0.625 -0.171875l1.640625 0z" fill-rule="nonzero"/><path fill="#000000" d="m131.04324 248.14929l0 3.609375l0.4375 0q0.4375 0 0.625 0.171875q0.1875 0.15625 0.1875 0.4375q0 0.25 -0.1875 0.421875q-0.1875 0.171875 -0.625 0.171875l-1.59375 0q-0.4375 0 -0.609375 -0.171875q-0.1875 -0.171875 -0.1875 -0.4375q0 -0.265625 0.1875 -0.421875q0.171875 -0.171875 0.5625 -0.171875l0 -4.734375q-0.328125 -0.03125 -0.5 -0.1875q-0.15625 -0.171875 -0.15625 -0.421875q0 -0.265625 0.1875 -0.4375q0.1875 -0.171875 0.625 -0.171875l1.328125 0.015625l1.640625 3.625l1.625 -3.640625l1.328125 0.015625q0.4375 0 0.625 0.171875q0.1875 0.15625 0.1875 0.421875q0 0.25 -0.171875 0.421875q-0.15625 0.15625 -0.46875 0.1875l0 4.734375q0.390625 0 0.5625 0.171875q0.1875 0.171875 0.1875 0.4375q0 0.25 -0.1875 0.421875q-0.1875 0.171875 -0.625 0.171875l-1.59375 0q-0.421875 0 -0.609375 -0.171875q-0.1875 -0.171875 -0.1875 -0.4375q0 -0.265625 0.1875 -0.421875q0.1875 -0.171875 0.609375 -0.171875l0.453125 0l0 -3.609375l-1.390625 3.109375l-1.046875 0l-1.40625 -3.109375zm10.232437 4.8125l0 -0.28125q-0.453125 0.234375 -1.015625 0.359375q-0.546875 0.125 -0.984375 0.125q-0.984375 0 -1.59375 -0.515625q-0.59375 -0.515625 -0.59375 -1.140625q0 -0.765625 0.765625 -1.40625q0.78125 -0.65625 2.140625 -0.65625q0.5625 0 1.28125 0.109375l0 -0.28125q0 -0.28125 -0.234375 -0.453125q-0.234375 -0.171875 -0.890625 -0.171875q-0.53125 0 -1.390625 0.21875q-0.328125 0.078125 -0.5 0.078125q-0.234375 0 -0.40625 -0.171875q-0.171875 -0.171875 -0.171875 -0.453125q0 -0.140625 0.0625 -0.25q0.0625 -0.125 0.15625 -0.1875q0.109375 -0.078125 0.453125 -0.171875q0.4375 -0.109375 0.90625 -0.1875q0.46875 -0.078125 0.84375 -0.078125q1.125 0 1.75 0.484375q0.625 0.484375 0.625 1.328125l0 2.5l0.203125 0q0.4375 0 0.625 0.171875q0.1875 0.15625 0.1875 0.4375q0 0.25 -0.1875 0.421875q-0.1875 0.171875 -0.625 0.171875l-1.40625 0zm0 -2.171875q-0.734375 -0.140625 -1.34375 -0.140625q-0.734375 0 -1.265625 0.359375q-0.328125 0.234375 -0.328125 0.46875q0 0.171875 0.15625 0.28125q0.296875 0.1875 0.8125 0.1875q0.421875 0 0.96875 -0.15625q0.5625 -0.171875 1.0 -0.46875l0 -0.53125zm5.857437 -1.96875l0 2.421875q0 0.390625 0.15625 0.515625q0.25 0.1875 0.890625 0.1875q0.921875 0 1.703125 -0.390625q0.296875 -0.15625 0.46875 -0.15625q0.234375 0 0.40625 0.1875q0.1875 0.171875 0.1875 0.421875q0 0.234375 -0.1875 0.40625q-0.296875 0.28125 -1.15625 0.515625q-0.84375 0.21875 -1.421875 0.21875q-1.125 0 -1.6875 -0.484375q-0.5625 -0.484375 -0.5625 -1.1875l0 -2.65625l-0.4375 0q-0.4375 0 -0.625 -0.171875q-0.1875 -0.171875 -0.1875 -0.4375q0 -0.265625 0.1875 -0.4375q0.1875 -0.171875 0.625 -0.171875l0.4375 0l0 -1.09375q0 -0.421875 0.15625 -0.609375q0.171875 -0.1875 0.4375 -0.1875q0.265625 0 0.4375 0.1875q0.171875 0.1875 0.171875 0.609375l0 1.09375l2.234375 0q0.4375 0 0.625 0.171875q0.1875 0.171875 0.1875 0.4375q0 0.265625 -0.1875 0.4375q-0.1875 0.171875 -0.625 0.171875l-2.234375 0zm5.654312 -0.671875l0 3.609375l0.4375 0q0.4375 0 0.625 0.171875q0.1875 0.15625 0.1875 0.4375q0 0.25 -0.1875 0.421875q-0.1875 0.171875 -0.625 0.171875l-1.59375 0q-0.4375 0 -0.609375 -0.171875q-0.1875 -0.171875 -0.1875 -0.4375q0 -0.265625 0.1875 -0.421875q0.171875 -0.171875 0.5625 -0.171875l0 -4.734375q-0.328125 -0.03125 -0.5 -0.1875q-0.15625 -0.171875 -0.15625 -0.421875q0 -0.265625 0.1875 -0.4375q0.1875 -0.171875 0.625 -0.171875l1.328125 0.015625l1.640625 3.625l1.625 -3.640625l1.328125 0.015625q0.4375 0 0.625 0.171875q0.1875 0.15625 0.1875 0.421875q0 0.25 -0.171875 0.421875q-0.15625 0.15625 -0.46875 0.1875l0 4.734375q0.390625 0 0.5625 0.171875q0.1875 0.171875 0.1875 0.4375q0 0.25 -0.1875 0.421875q-0.1875 0.171875 -0.625 0.171875l-1.59375 0q-0.421875 0 -0.609375 -0.171875q-0.1875 -0.171875 -0.1875 -0.4375q0 -0.265625 0.1875 -0.421875q0.1875 -0.171875 0.609375 -0.171875l0.453125 0l0 -3.609375l-1.390625 3.109375l-1.046875 0l-1.40625 -3.109375zm11.701187 -0.546875l0 4.15625q0.390625 0 0.5625 0.171875q0.1875 0.171875 0.1875 0.4375q0 0.25 -0.1875 0.421875q-0.1875 0.171875 -0.609375 0.171875l-1.15625 0l0 -0.28125q-0.515625 0.234375 -1.0 0.34375q-0.46875 0.125 -0.890625 0.125q-0.59375 0 -1.03125 -0.25q-0.4375 -0.25 -0.6875 -0.6875q-0.1875 -0.3125 -0.1875 -0.796875l0 -2.59375l-0.203125 0q-0.4375 0 -0.625 -0.171875q-0.1875 -0.171875 -0.1875 -0.4375q0 -0.265625 0.1875 -0.4375q0.1875 -0.171875 0.625 -0.171875l1.421875 0l0 3.609375q0 0.375 0.171875 0.5625q0.1875 0.171875 0.578125 0.171875q0.359375 0 0.78125 -0.140625q0.421875 -0.140625 1.046875 -0.53125l0 -2.453125l-0.4375 0q-0.4375 0 -0.625 -0.171875q-0.1875 -0.171875 -0.1875 -0.4375q0 -0.265625 0.1875 -0.4375q0.1875 -0.171875 0.625 -0.171875l1.640625 0zm5.294937 -2.296875l0 6.453125l1.4375 0q0.4375 0 0.625 0.171875q0.1875 0.15625 0.1875 0.4375q0 0.25 -0.1875 0.421875q-0.1875 0.171875 -0.625 0.171875l-4.109375 0q-0.4375 0 -0.625 -0.171875q-0.171875 -0.171875 -0.171875 -0.4375q0 -0.265625 0.171875 -0.421875q0.1875 -0.171875 0.625 -0.171875l1.453125 0l0 -5.234375l-0.96875 0q-0.4375 0 -0.625 -0.171875q-0.1875 -0.171875 -0.1875 -0.4375q0 -0.265625 0.1875 -0.4375q0.1875 -0.171875 0.625 -0.171875l2.1875 0z" fill-rule="nonzero"/><path fill="#b6d7a8" d="m110.265656 269.95364l81.6378 0l0 38.393707l-81.6378 0z" fill-rule="evenodd"/><path stroke="#000000" stroke-width="0.84251968503937" stroke-linejoin="round" stroke-linecap="butt" d="m110.265656 269.95364l81.6378 0l0 38.393707l-81.6378 0z" fill-rule="evenodd"/><path fill="#000000" d="m137.74467 285.54468l0 -4.734375l-0.1875 0q-0.4375 0 -0.625 -0.171875q-0.1875 -0.171875 -0.1875 -0.4375q0 -0.265625 0.1875 -0.4375q0.1875 -0.171875 0.625 -0.171875l3.03125 0q1.078125 0 1.734375 0.609375q0.671875 0.609375 0.671875 1.4375q0 0.390625 -0.15625 0.75q-0.15625 0.34375 -0.46875 0.625q0.578125 0.34375 0.859375 0.8125q0.28125 0.453125 0.28125 1.03125q0 0.453125 -0.203125 0.859375q-0.15625 0.296875 -0.375 0.46875q-0.296875 0.25 -0.734375 0.40625q-0.4375 0.15625 -1.09375 0.15625l-3.546875 0q-0.4375 0 -0.625 -0.171875q-0.1875 -0.171875 -0.1875 -0.4375q0 -0.265625 0.1875 -0.421875q0.1875 -0.171875 0.625 -0.171875l0.1875 0zm1.203125 -2.984375l1.328125 0q0.71875 0 1.1875 -0.359375q0.328125 -0.234375 0.328125 -0.59375q0 -0.328125 -0.3125 -0.5625q-0.296875 -0.234375 -0.953125 -0.234375l-1.578125 0l0 1.75zm0 2.984375l2.09375 0q0.734375 0 1.03125 -0.21875q0.234375 -0.171875 0.234375 -0.484375q0 -0.359375 -0.453125 -0.703125q-0.453125 -0.359375 -1.296875 -0.359375l-1.609375 0l0 1.765625zm8.951187 -6.453125l0 1.28125l-1.4375 0l0 -1.28125l1.4375 0zm0.15625 2.296875l0 4.15625l1.453125 0q0.4375 0 0.625 0.171875q0.1875 0.15625 0.1875 0.4375q0 0.25 -0.1875 0.421875q-0.1875 0.171875 -0.625 0.171875l-4.109375 0q-0.4375 0 -0.625 -0.171875q-0.1875 -0.171875 -0.1875 -0.4375q0 -0.265625 0.1875 -0.421875q0.1875 -0.171875 0.625 -0.171875l1.453125 0l0 -2.9375l-0.96875 0q-0.4375 0 -0.625 -0.171875q-0.1875 -0.171875 -0.1875 -0.4375q0 -0.265625 0.1875 -0.4375q0.1875 -0.171875 0.625 -0.171875l2.171875 0zm7.748062 5.359375l0 -0.28125q-0.453125 0.234375 -1.015625 0.359375q-0.546875 0.125 -0.984375 0.125q-0.984375 0 -1.59375 -0.515625q-0.59375 -0.515625 -0.59375 -1.140625q0 -0.765625 0.765625 -1.40625q0.78125 -0.65625 2.140625 -0.65625q0.5625 0 1.28125 0.109375l0 -0.28125q0 -0.28125 -0.234375 -0.453125q-0.234375 -0.171875 -0.890625 -0.171875q-0.53125 0 -1.390625 0.21875q-0.328125 0.078125 -0.5 0.078125q-0.234375 0 -0.40625 -0.171875q-0.171875 -0.171875 -0.171875 -0.453125q0 -0.140625 0.0625 -0.25q0.0625 -0.125 0.15625 -0.1875q0.109375 -0.078125 0.453125 -0.171875q0.4375 -0.109375 0.90625 -0.1875q0.46875 -0.078125 0.84375 -0.078125q1.125 0 1.75 0.484375q0.625 0.484375 0.625 1.328125l0 2.5l0.203125 0q0.4375 0 0.625 0.171875q0.1875 0.15625 0.1875 0.4375q0 0.25 -0.1875 0.421875q-0.1875 0.171875 -0.625 0.171875l-1.40625 0zm0 -2.171875q-0.734375 -0.140625 -1.34375 -0.140625q-0.734375 0 -1.265625 0.359375q-0.328125 0.234375 -0.328125 0.46875q0 0.171875 0.15625 0.28125q0.296875 0.1875 0.8125 0.1875q0.421875 0 0.96875 -0.15625q0.5625 -0.171875 1.0 -0.46875l0 -0.53125zm7.466812 -1.765625q-0.296875 -0.1875 -0.625 -0.28125q-0.328125 -0.09375 -0.671875 -0.09375q-0.703125 0 -1.125 0.234375q-0.1875 0.109375 -0.1875 0.21875q0 0.140625 0.25 0.265625q0.1875 0.09375 0.84375 0.1875q1.203125 0.15625 1.671875 0.328125q0.625 0.21875 0.953125 0.65625q0.34375 0.421875 0.34375 0.90625q0 0.640625 -0.5625 1.078125q-0.828125 0.625 -2.140625 0.625q-0.515625 0 -0.96875 -0.09375q-0.4375 -0.078125 -0.8125 -0.265625q-0.09375 0.078125 -0.203125 0.125q-0.09375 0.046875 -0.1875 0.046875q-0.28125 0 -0.453125 -0.1875q-0.171875 -0.1875 -0.171875 -0.625l0 -0.40625q0 -0.4375 0.171875 -0.625q0.171875 -0.1875 0.4375 -0.1875q0.21875 0 0.359375 0.125q0.15625 0.125 0.234375 0.421875q0.28125 0.234375 0.671875 0.359375q0.390625 0.109375 0.890625 0.109375q0.828125 0 1.296875 -0.265625q0.21875 -0.125 0.21875 -0.265625q0 -0.234375 -0.3125 -0.390625q-0.3125 -0.15625 -1.296875 -0.25q-1.453125 -0.15625 -1.953125 -0.59375q-0.484375 -0.4375 -0.484375 -1.0625q0 -0.65625 0.546875 -1.078125q0.75 -0.59375 1.953125 -0.59375q0.421875 0 0.796875 0.078125q0.390625 0.078125 0.75 0.25q0.109375 -0.078125 0.203125 -0.125q0.09375 -0.046875 0.1875 -0.046875q0.234375 0 0.40625 0.1875q0.171875 0.1875 0.171875 0.625l0 0.296875q0 0.390625 -0.09375 0.53125q-0.203125 0.28125 -0.515625 0.28125q-0.21875 0 -0.390625 -0.140625q-0.15625 -0.140625 -0.203125 -0.359375z" fill-rule="nonzero"/><path fill="#000000" d="m127.18606 298.79468l-2.921875 0l-0.296875 0.75l0.296875 0q0.421875 0 0.609375 0.171875q0.1875 0.15625 0.1875 0.4375q0 0.25 -0.1875 0.421875q-0.1875 0.171875 -0.609375 0.171875l-1.640625 0q-0.4375 0 -0.609375 -0.171875q-0.1875 -0.171875 -0.1875 -0.4375q0 -0.265625 0.203125 -0.4375q0.1875 -0.171875 0.625 -0.15625l1.90625 -4.734375l-0.796875 0q-0.4375 0 -0.625 -0.171875q-0.1875 -0.171875 -0.1875 -0.4375q0 -0.265625 0.1875 -0.4375q0.1875 -0.171875 0.625 -0.171875l2.609375 0.015625l2.4062424 5.9375q0.4375 0 0.5625 0.09375q0.28125 0.1875 0.28125 0.515625q0 0.25 -0.1875 0.421875q-0.1875 0.171875 -0.625 0.171875l-1.6249924 0q-0.4375 0 -0.625 -0.171875q-0.1875 -0.171875 -0.1875 -0.4375q0 -0.265625 0.1875 -0.421875q0.1875 -0.171875 0.625 -0.171875l0.296875 0l-0.296875 -0.75zm-0.5 -1.203125l-0.96875 -2.390625l-0.984375 2.390625l1.953125 0zm9.0605545 -4.5l0 6.453125l0.203125 0q0.421875 0 0.609375 0.171875q0.1875 0.15625 0.1875 0.4375q0 0.25 -0.1875 0.421875q-0.171875 0.171875 -0.609375 0.171875l-1.421875 0l0 -0.296875q-0.40625 0.25 -0.859375 0.359375q-0.453125 0.125 -0.9375 0.125q-1.359375 0 -2.203125 -0.78125q-0.828125 -0.78125 -0.828125 -1.953125q0 -1.234375 0.875 -2.09375q0.875 -0.875 2.140625 -0.875q0.46875 0 0.921875 0.15625q0.453125 0.140625 0.890625 0.421875l0 -1.5l-0.203125 0q-0.4375 0 -0.625 -0.171875q-0.1875 -0.171875 -0.1875 -0.4375q0 -0.265625 0.1875 -0.4375q0.1875 -0.171875 0.625 -0.171875l1.421875 0zm-1.21875 5.140625q0 -0.75 -0.53125 -1.265625q-0.515625 -0.53125 -1.28125 -0.53125q-0.75 0 -1.28125 0.53125q-0.515625 0.515625 -0.515625 1.25q0 0.65625 0.46875 1.09375q0.46875 0.421875 1.328125 0.421875q0.859375 0 1.328125 -0.421875q0.484375 -0.4375 0.484375 -1.078125zm8.466812 -5.140625l0 6.453125l0.203125 0q0.421875 0 0.609375 0.171875q0.1875 0.15625 0.1875 0.4375q0 0.25 -0.1875 0.421875q-0.171875 0.171875 -0.609375 0.171875l-1.421875 0l0 -0.296875q-0.40625 0.25 -0.859375 0.359375q-0.453125 0.125 -0.9375 0.125q-1.359375 0 -2.203125 -0.78125q-0.828125 -0.78125 -0.828125 -1.953125q0 -1.234375 0.875 -2.09375q0.875 -0.875 2.140625 -0.875q0.46875 0 0.921875 0.15625q0.453125 0.140625 0.890625 0.421875l0 -1.5l-0.203125 0q-0.4375 0 -0.625 -0.171875q-0.1875 -0.171875 -0.1875 -0.4375q0 -0.265625 0.1875 -0.4375q0.1875 -0.171875 0.625 -0.171875l1.421875 0zm-1.21875 5.140625q0 -0.75 -0.53125 -1.265625q-0.515625 -0.53125 -1.28125 -0.53125q-0.75 0 -1.28125 0.53125q-0.515625 0.515625 -0.515625 1.25q0 0.65625 0.46875 1.09375q0.46875 0.421875 1.328125 0.421875q0.859375 0 1.328125 -0.421875q0.484375 -0.4375 0.484375 -1.078125zm6.123062 -5.140625l0 1.28125l-1.4375 0l0 -1.28125l1.4375 0zm0.15625 2.296875l0 4.15625l1.453125 0q0.4375 0 0.625 0.171875q0.1875 0.15625 0.1875 0.4375q0 0.25 -0.1875 0.421875q-0.1875 0.171875 -0.625 0.171875l-4.109375 0q-0.4375 0 -0.625 -0.171875q-0.1875 -0.171875 -0.1875 -0.4375q0 -0.265625 0.1875 -0.421875q0.1875 -0.171875 0.625 -0.171875l1.453125 0l0 -2.9375l-0.96875 0q-0.4375 0 -0.625 -0.171875q-0.1875 -0.171875 -0.1875 -0.4375q0 -0.265625 0.1875 -0.4375q0.1875 -0.171875 0.625 -0.171875l2.171875 0zm6.357437 1.21875l0 2.421875q0 0.390625 0.15625 0.515625q0.25 0.1875 0.890625 0.1875q0.921875 0 1.703125 -0.390625q0.296875 -0.15625 0.46875 -0.15625q0.234375 0 0.40625 0.1875q0.1875 0.171875 0.1875 0.421875q0 0.234375 -0.1875 0.40625q-0.296875 0.28125 -1.15625 0.515625q-0.84375 0.21875 -1.421875 0.21875q-1.125 0 -1.6875 -0.484375q-0.5625 -0.484375 -0.5625 -1.1875l0 -2.65625l-0.4375 0q-0.4375 0 -0.625 -0.171875q-0.1875 -0.171875 -0.1875 -0.4375q0 -0.265625 0.1875 -0.4375q0.1875 -0.171875 0.625 -0.171875l0.4375 0l0 -1.09375q0 -0.421875 0.15625 -0.609375q0.171875 -0.1875 0.4375 -0.1875q0.265625 0 0.4375 0.1875q0.171875 0.1875 0.171875 0.609375l0 1.09375l2.234375 0q0.4375 0 0.625 0.171875q0.1875 0.171875 0.1875 0.4375q0 0.265625 -0.1875 0.4375q-0.1875 0.171875 -0.625 0.171875l-2.234375 0zm7.982437 -3.515625l0 1.28125l-1.4375 0l0 -1.28125l1.4375 0zm0.15625 2.296875l0 4.15625l1.453125 0q0.4375 0 0.625 0.171875q0.1875 0.15625 0.1875 0.4375q0 0.25 -0.1875 0.421875q-0.1875 0.171875 -0.625 0.171875l-4.109375 0q-0.4375 0 -0.625 -0.171875q-0.1875 -0.171875 -0.1875 -0.4375q0 -0.265625 0.1875 -0.421875q0.1875 -0.171875 0.625 -0.171875l1.453125 0l0 -2.9375l-0.96875 0q-0.4375 0 -0.625 -0.171875q-0.1875 -0.171875 -0.1875 -0.4375q0 -0.265625 0.1875 -0.4375q0.1875 -0.171875 0.625 -0.171875l2.171875 0zm9.794937 2.78125q0 0.703125 -0.390625 1.359375q-0.390625 0.640625 -1.15625 1.03125q-0.75 0.375 -1.578125 0.375q-0.828125 0 -1.59375 -0.375q-0.75 -0.375 -1.15625 -1.03125q-0.390625 -0.65625 -0.390625 -1.375q0 -0.71875 0.40625 -1.421875q0.40625 -0.703125 1.15625 -1.09375q0.75 -0.40625 1.578125 -0.40625q0.8125 0 1.578125 0.421875q0.765625 0.40625 1.15625 1.09375q0.390625 0.6875 0.390625 1.421875zm-1.203125 0q0 -0.578125 -0.421875 -1.0625q-0.578125 -0.671875 -1.5 -0.671875q-0.828125 0 -1.375 0.53125q-0.546875 0.53125 -0.546875 1.21875q0 0.5625 0.546875 1.0625q0.5625 0.484375 1.375 0.484375q0.8125 0 1.359375 -0.484375q0.5625 -0.5 0.5625 -1.078125zm4.091812 -2.78125l0 0.40625q0.328125 -0.28125 0.71875 -0.421875q0.40625 -0.140625 0.875 -0.140625q1.0625 0 1.6875 0.671875q0.5 0.53125 0.5 1.390625l0 2.25q0.375 0 0.5625 0.171875q0.1875 0.15625 0.1875 0.4375q0 0.25 -0.1875 0.421875q-0.1875 0.171875 -0.625 0.171875l-1.09375 0q-0.4375 0 -0.625 -0.171875q-0.171875 -0.171875 -0.171875 -0.4375q0 -0.265625 0.171875 -0.421875q0.1875 -0.171875 0.578125 -0.171875l0 -2.28125q0 -0.40625 -0.21875 -0.578125q-0.28125 -0.25 -0.828125 -0.25q-0.421875 0 -0.734375 0.171875q-0.3125 0.15625 -0.796875 0.6875l0 2.25q0.453125 0 0.59375 0.078125q0.296875 0.1875 0.296875 0.53125q0 0.25 -0.1875 0.421875q-0.1875 0.171875 -0.625 0.171875l-1.375 0q-0.4375 0 -0.625 -0.171875q-0.1875 -0.171875 -0.1875 -0.4375q0 -0.328125 0.28125 -0.515625q0.140625 -0.078125 0.609375 -0.078125l0 -2.9375q-0.375 0 -0.5625 -0.171875q-0.1875 -0.171875 -0.1875 -0.4375q0 -0.265625 0.1875 -0.4375q0.1875 -0.171875 0.625 -0.171875l1.15625 0z" fill-rule="nonzero"/><path fill="#efefef" d="m307.50607 268.98282l38.393677 0l0 38.393707l-38.393677 0z" fill-rule="evenodd"/><path stroke="#000000" stroke-width="0.84251968503937" stroke-linejoin="round" stroke-linecap="butt" d="m307.50607 268.98282l38.393677 0l0 38.393707l-38.393677 0z" fill-rule="evenodd"/><path fill="#000000" d="m321.54858 285.12073l0 2.71875q0.453125 -0.28125 0.90625 -0.421875q0.453125 -0.15625 0.921875 -0.15625q1.25 0 2.125 0.875q0.875 0.859375 0.875 2.09375q0 1.171875 -0.828125 1.953125q-0.828125 0.78125 -2.203125 0.78125q-0.46875 0 -0.921875 -0.125q-0.453125 -0.109375 -0.875 -0.359375l0 0.296875l-1.40625 0q-0.4375 0 -0.625 -0.171875q-0.1875 -0.171875 -0.1875 -0.4375q0 -0.265625 0.1875 -0.421875q0.1875 -0.171875 0.625 -0.171875l0.203125 0l0 -5.234375l-0.203125 0q-0.4375 0 -0.625 -0.171875q-0.1875 -0.171875 -0.1875 -0.4375q0 -0.265625 0.1875 -0.4375q0.1875 -0.171875 0.625 -0.171875l1.40625 0zm3.625 5.140625q0 -0.75 -0.53125 -1.265625q-0.515625 -0.53125 -1.28125 -0.53125q-0.75 0 -1.28125 0.53125q-0.53125 0.515625 -0.53125 1.25q0 0.65625 0.46875 1.09375q0.484375 0.421875 1.34375 0.421875q0.859375 0 1.328125 -0.421875q0.484375 -0.4375 0.484375 -1.078125zm4.0293274 1.3125l2.640625 0q0.21875 -0.1875 0.421875 -0.1875q0.265625 0 0.421875 0.1875q0.171875 0.1875 0.171875 0.625l0 0.578125l-5.5 0l0 -1.28125q3.265625 -2.6875 3.9375 -3.46875q0.34375 -0.390625 0.34375 -0.75q0 -0.4375 -0.390625 -0.765625q-0.390625 -0.34375 -1.03125 -0.34375q-0.640625 0 -1.078125 0.375q-0.21875 0.1875 -0.359375 0.59375q-0.078125 0.25 -0.234375 0.359375q-0.140625 0.09375 -0.34375 0.09375q-0.25 0 -0.4375 -0.171875q-0.171875 -0.171875 -0.171875 -0.421875q0 -0.34375 0.328125 -0.875q0.328125 -0.53125 0.953125 -0.84375q0.625 -0.328125 1.359375 -0.328125q1.15625 0 1.875 0.703125q0.734375 0.6875 0.734375 1.671875q0 0.5 -0.21875 0.9375q-0.203125 0.421875 -0.984375 1.171875q-0.625 0.59375 -2.4375 2.140625z" fill-rule="nonzero"/><path fill="#000000" fill-opacity="0.0" d="m307.50607 288.1797l-115.59056 0.9763794" fill-rule="evenodd"/><path stroke="#595959" stroke-width="1.0" stroke-linejoin="round" stroke-linecap="butt" d="m307.50607 288.1797l-109.59076 0.9256897" fill-rule="evenodd"/><path fill="#595959" stroke="#595959" stroke-width="1.0" stroke-linecap="butt" d="m197.90135 287.4537l-4.523987 1.6900024l4.551895 1.6133423z" fill-rule="evenodd"/><path fill="#efefef" d="m307.51968 130.0686l38.393707 0l0 27.338577l-38.393707 0z" fill-rule="evenodd"/><path stroke="#000000" stroke-width="0.84251968503937" stroke-linejoin="round" stroke-linecap="butt" d="m307.51968 130.0686l38.393707 0l0 27.338577l-38.393707 0z" fill-rule="evenodd"/><path fill="#000000" d="m321.56223 140.67896l0 2.71875q0.453125 -0.28125 0.90625 -0.421875q0.453125 -0.15625 0.921875 -0.15625q1.25 0 2.125 0.875q0.875 0.859375 0.875 2.09375q0 1.171875 -0.828125 1.953125q-0.828125 0.78125 -2.203125 0.78125q-0.46875 0 -0.921875 -0.125q-0.453125 -0.109375 -0.875 -0.359375l0 0.296875l-1.40625 0q-0.4375 0 -0.625 -0.171875q-0.1875 -0.171875 -0.1875 -0.4375q0 -0.265625 0.1875 -0.421875q0.1875 -0.171875 0.625 -0.171875l0.203125 0l0 -5.234375l-0.203125 0q-0.4375 0 -0.625 -0.171875q-0.1875 -0.171875 -0.1875 -0.4375q0 -0.265625 0.1875 -0.4375q0.1875 -0.171875 0.625 -0.171875l1.40625 0zm3.625 5.140625q0 -0.75 -0.53125 -1.265625q-0.515625 -0.53125 -1.28125 -0.53125q-0.75 0 -1.28125 0.53125q-0.53125 0.515625 -0.53125 1.25q0 0.65625 0.46875 1.09375q0.484375 0.421875 1.34375 0.421875q0.859375 0 1.328125 -0.421875q0.484375 -0.4375 0.484375 -1.078125zm5.763672 -5.3125l0 6.625l1.234375 0q0.421875 0 0.609375 0.171875q0.1875 0.15625 0.1875 0.4375q0 0.25 -0.1875 0.421875q-0.1875 0.171875 -0.609375 0.171875l-3.65625 0q-0.4375 0 -0.625 -0.171875q-0.1875 -0.171875 -0.1875 -0.4375q0 -0.265625 0.1875 -0.421875q0.1875 -0.171875 0.625 -0.171875l1.21875 0l0 -5.046875l-1.078125 0.28125q-0.265625 0.078125 -0.390625 0.078125q-0.234375 0 -0.40625 -0.1875q-0.15625 -0.1875 -0.15625 -0.453125q0 -0.234375 0.125 -0.375q0.125 -0.140625 0.515625 -0.25l2.59375 -0.671875z" fill-rule="nonzero"/><path fill="#000000" fill-opacity="0.0" d="m307.51968 143.73788l-115.62204 0" fill-rule="evenodd"/><path stroke="#595959" stroke-width="1.0" stroke-linejoin="round" stroke-linecap="butt" d="m307.51968 143.73788l-109.62204 0" fill-rule="evenodd"/><path fill="#595959" stroke="#595959" stroke-width="1.0" stroke-linecap="butt" d="m197.89764 142.08617l-4.538101 1.6517181l4.538101 1.6517334z" fill-rule="evenodd"/><path fill="#000000" fill-opacity="0.0" d="m151.05305 114.92126l0.03149414 9.6063" fill-rule="evenodd"/><path stroke="#595959" stroke-width="1.0" stroke-linejoin="round" stroke-linecap="butt" d="m151.05305 114.92126l0.0118255615 3.6063309" fill-rule="evenodd"/><path fill="#595959" stroke="#595959" stroke-width="1.0" stroke-linecap="butt" d="m149.41316 118.533005l1.6665955 4.5326614l1.6368408 -4.5434875z" fill-rule="evenodd"/><path fill="#000000" fill-opacity="0.0" d="m151.08455 162.93439l-0.03149414 11.464569" fill-rule="evenodd"/><path stroke="#595959" stroke-width="1.0" stroke-linejoin="round" stroke-linecap="butt" d="m151.08455 162.93439l-0.01499939 5.4645844" fill-rule="evenodd"/><path fill="#595959" stroke="#595959" stroke-width="1.0" stroke-linecap="butt" d="m149.41782 168.39444l1.6392517 4.542618l1.6641998 -4.533554z" fill-rule="evenodd"/><path fill="#000000" fill-opacity="0.0" d="m151.05305 212.79134l0 9.385834" fill-rule="evenodd"/><path stroke="#595959" stroke-width="1.0" stroke-linejoin="round" stroke-linecap="butt" d="m151.05305 212.79134l0 3.3858337" fill-rule="evenodd"/><path fill="#595959" stroke="#595959" stroke-width="1.0" stroke-linecap="butt" d="m149.40132 216.17717l1.6517334 4.538086l1.6517334 -4.538086z" fill-rule="evenodd"/><path fill="#000000" fill-opacity="0.0" d="m151.05305 260.56134l0.03149414 9.385834" fill-rule="evenodd"/><path stroke="#595959" stroke-width="1.0" stroke-linejoin="round" stroke-linecap="butt" d="m151.05305 260.56134l0.011367798 3.3858643" fill-rule="evenodd"/><path fill="#595959" stroke="#595959" stroke-width="1.0" stroke-linecap="butt" d="m149.41269 263.95273l1.6669617 4.5325317l1.6364899 -4.5436096z" fill-rule="evenodd"/><path fill="#000000" fill-opacity="0.0" d="m151.08455 308.34735l-0.03149414 12.220459" fill-rule="evenodd"/><path stroke="#595959" stroke-width="1.0" stroke-linejoin="round" stroke-linecap="butt" d="m151.08455 308.34735l-0.016036987 6.2204895" fill-rule="evenodd"/><path fill="#595959" stroke="#595959" stroke-width="1.0" stroke-linecap="butt" d="m149.4168 314.56357l1.6400299 4.5423584l1.6634216 -4.533844z" fill-rule="evenodd"/></g></svg>