<svg version="1.1" viewBox="0.0 0.0 432.0 480.0" fill="none" stroke="none" stroke-linecap="square" stroke-miterlimit="10" xmlns:xlink="http://www.w3.org/1999/xlink" xmlns="http://www.w3.org/2000/svg"><clipPath id="p.0"><path d="m0 0l432.0 0l0 480.0l-432.0 0l0 -480.0z" clip-rule="nonzero"/></clipPath><g clip-path="url(#p.0)"><path fill="#000000" fill-opacity="0.0" d="m0 0l432.0 0l0 480.0l-432.0 0z" fill-rule="evenodd"/><path fill="#c9daf8" d="m220.54855 97.82864l0 0c0 -6.627411 5.372589 -12.0 12.0 -12.0l0 0c3.182602 0 6.234848 1.2642822 8.485291 3.5147247c2.2504272 2.2504349 3.5147095 5.302681 3.5147095 8.485275l0 0c0 6.6274185 -5.372574 12.0 -12.0 12.0l0 0c-6.627411 0 -12.0 -5.3725815 -12.0 -12.0z" fill-rule="evenodd"/><path fill="#000000" fill-opacity="0.0" d="m232.54855 85.82864l0 24.0m-12.0 -12.0l24.0 0" fill-rule="evenodd"/><path fill="#000000" fill-opacity="0.0" d="m220.54855 97.82864l0 0c0 -6.627411 5.372589 -12.0 12.0 -12.0l0 0c3.182602 0 6.234848 1.2642822 8.485291 3.5147247c2.2504272 2.2504349 3.5147095 5.302681 3.5147095 8.485275l0 0c0 6.6274185 -5.372574 12.0 -12.0 12.0l0 0c-6.627411 0 -12.0 -5.3725815 -12.0 -12.0z" fill-rule="evenodd"/><path stroke="#2d2a2e" stroke-width="1.0" stroke-linejoin="round" stroke-linecap="butt" d="m232.54855 85.82864l0 24.0m-12.0 -12.0l24.0 0" fill-rule="evenodd"/><path stroke="#2d2a2e" stroke-width="1.0" stroke-linejoin="round" stroke-linecap="butt" d="m220.54855 97.82864l0 0c0 -6.627411 5.372589 -12.0 12.0 -12.0l0 0c3.182602 0 6.234848 1.2642822 8.485291 3.5147247c2.2504272 2.2504349 3.5147095 5.302681 3.5147095 8.485275l0 0c0 6.6274185 -5.372574 12.0 -12.0 12.0l0 0c-6.627411 0 -12.0 -5.3725815 -12.0 -12.0z" fill-rule="evenodd"/><path fill="#c9daf8" d="m271.1203 206.72585l33.056152 0l0 25.504517c-16.527191 0 -16.527191 9.812851 -33.056152 4.906433zm2.7234192 0l0 -3.3065033l32.830383 0l0 25.664505c-1.2479248 0 -2.4976501 0.17778015 -2.4976501 0.17778015l0 -22.535782zm2.5598755 -3.3065033l0 -3.2265167l33.114838 0l0 25.584518c-1.4221802 0 -2.8443298 0.1333313 -2.8443298 0.1333313l0 -22.491333z" fill-rule="evenodd"/><path fill="#000000" fill-opacity="0.0" d="m271.1203 206.72585l33.056152 0l0 25.504517c-16.527191 0 -16.527191 9.812851 -33.056152 4.906433zm2.7234192 0l0 -3.3065033l32.830383 0l0 25.664505c-1.2479248 0 -2.4976501 0.17778015 -2.4976501 0.17778015m-27.772858 -25.842285l0 -3.2265167l33.114838 0l0 25.584518c-1.4221802 0 -2.8443298 0.1333313 -2.8443298 0.1333313" fill-rule="evenodd"/><path fill="#000000" fill-opacity="0.0" d="m271.1203 237.1368c16.528961 4.906418 16.528961 -4.906433 33.056152 -4.906433l0 -2.9687347c0 0 1.2497253 -0.17778015 2.4976501 -0.17778015l0 -3.173172c0 0 1.4221497 -0.1333313 2.8443298 -0.1333313l0 -25.584518l-33.114838 0l0 3.2265167l-2.5598755 0l0 3.3065033l-2.7234192 0z" fill-rule="evenodd"/><path stroke="#2d2a2e" stroke-width="1.0" stroke-linejoin="round" stroke-linecap="butt" d="m271.1203 206.72585l33.056152 0l0 25.504517c-16.527191 0 -16.527191 9.812851 -33.056152 4.906433zm2.7234192 0l0 -3.3065033l32.830383 0l0 25.664505c-1.2479248 0 -2.4976501 0.17778015 -2.4976501 0.17778015m-27.772858 -25.842285l0 -3.2265167l33.114838 0l0 25.584518c-1.4221802 0 -2.8443298 0.1333313 -2.8443298 0.1333313" fill-rule="evenodd"/><path fill="#000000" d="m287.6583 215.2107q2.96875 0 4.75 1.984375q1.796875 1.984375 1.796875 5.046875q0 1.4375 -0.4375 2.6875q-0.4375 1.234375 -1.3125 2.234375l1.671875 1.5l-1.359375 1.4375l-1.890625 -1.71875q-0.640625 0.375 -1.453125 0.578125q-0.8125 0.203125 -1.765625 0.203125q-3.015625 0 -4.796875 -2.0q-1.765625 -2.0 -1.765625 -4.921875q0 -3.078125 1.796875 -5.046875q1.8125 -1.984375 4.765625 -1.984375zm-3.625 7.03125q0 1.953125 0.9375 3.234375q0.9375 1.28125 3.015625 1.234375q0.328125 0 0.546875 -0.046875q0.21875 -0.046875 0.296875 -0.140625l-1.265625 -1.140625l1.375 -1.453125l1.515625 1.375q0.40625 -0.5625 0.609375 -1.34375q0.203125 -0.78125 0.203125 -1.71875q0 -2.109375 -0.953125 -3.328125q-0.953125 -1.234375 -2.6875 -1.234375q-1.703125 0 -2.65625 1.25q-0.9375 1.234375 -0.9375 3.3125z" fill-rule="nonzero"/><path fill="#c9daf8" d="m309.51926 206.72585l33.056152 0l0 25.504517c-16.527191 0 -16.527191 9.812851 -33.056152 4.906433zm2.7234192 0l0 -3.3065033l32.830383 0l0 25.664505c-1.2479248 0 -2.4976501 0.17778015 -2.4976501 0.17778015l0 -22.535782zm2.5598755 -3.3065033l0 -3.2265167l33.114807 0l0 25.584518c-1.4221497 0 -2.8442993 0.1333313 -2.8442993 0.1333313l0 -22.491333z" fill-rule="evenodd"/><path fill="#000000" fill-opacity="0.0" d="m309.51926 206.72585l33.056152 0l0 25.504517c-16.527191 0 -16.527191 9.812851 -33.056152 4.906433zm2.7234192 0l0 -3.3065033l32.830383 0l0 25.664505c-1.2479248 0 -2.4976501 0.17778015 -2.4976501 0.17778015m-27.772858 -25.842285l0 -3.2265167l33.114807 0l0 25.584518c-1.4221497 0 -2.8442993 0.1333313 -2.8442993 0.1333313" fill-rule="evenodd"/><path fill="#000000" fill-opacity="0.0" d="m309.51926 237.1368c16.528961 4.906418 16.528961 -4.906433 33.056152 -4.906433l0 -2.9687347c0 0 1.2497253 -0.17778015 2.4976501 -0.17778015l0 -3.173172c0 0 1.4221497 -0.1333313 2.8442993 -0.1333313l0 -25.584518l-33.114807 0l0 3.2265167l-2.5598755 0l0 3.3065033l-2.7234192 0z" fill-rule="evenodd"/><path stroke="#2d2a2e" stroke-width="1.0" stroke-linejoin="round" stroke-linecap="butt" d="m309.51926 206.72585l33.056152 0l0 25.504517c-16.527191 0 -16.527191 9.812851 -33.056152 4.906433zm2.7234192 0l0 -3.3065033l32.830383 0l0 25.664505c-1.2479248 0 -2.4976501 0.17778015 -2.4976501 0.17778015m-27.772858 -25.842285l0 -3.2265167l33.114807 0l0 25.584518c-1.4221497 0 -2.8442993 0.1333313 -2.8442993 0.1333313" fill-rule="evenodd"/><path fill="#000000" d="m323.5296 215.53882l0 5.515625l5.203125 -5.515625l3.65625 0l-5.203125 5.25l5.703125 8.0625l-3.671875 0l-4.015625 -5.984375l-1.671875 1.6875l0 4.296875l-2.9375 0l0 -13.3125l2.9375 0z" fill-rule="nonzero"/><path fill="#c9daf8" d="m347.9182 206.72585l33.056152 0l0 25.504517c-16.527191 0 -16.527191 9.812851 -33.056152 4.906433zm2.7234192 0l0 -3.3065033l32.830383 0l0 25.664505c-1.2479248 0 -2.4976501 0.17778015 -2.4976501 0.17778015l0 -22.535782zm2.5598755 -3.3065033l0 -3.2265167l33.114807 0l0 25.584518c-1.4221497 0 -2.8442993 0.1333313 -2.8442993 0.1333313l0 -22.491333z" fill-rule="evenodd"/><path fill="#000000" fill-opacity="0.0" d="m347.9182 206.72585l33.056152 0l0 25.504517c-16.527191 0 -16.527191 9.812851 -33.056152 4.906433zm2.7234192 0l0 -3.3065033l32.830383 0l0 25.664505c-1.2479248 0 -2.4976501 0.17778015 -2.4976501 0.17778015m-27.772858 -25.842285l0 -3.2265167l33.114807 0l0 25.584518c-1.4221497 0 -2.8442993 0.1333313 -2.8442993 0.1333313" fill-rule="evenodd"/><path fill="#000000" fill-opacity="0.0" d="m347.9182 237.1368c16.528961 4.906418 16.528961 -4.906433 33.056152 -4.906433l0 -2.9687347c0 0 1.2497253 -0.17778015 2.4976501 -0.17778015l0 -3.173172c0 0 1.4221497 -0.1333313 2.8442993 -0.1333313l0 -25.584518l-33.114807 0l0 3.2265167l-2.5598755 0l0 3.3065033l-2.7234192 0z" fill-rule="evenodd"/><path stroke="#2d2a2e" stroke-width="1.0" stroke-linejoin="round" stroke-linecap="butt" d="m347.9182 206.72585l33.056152 0l0 25.504517c-16.527191 0 -16.527191 9.812851 -33.056152 4.906433zm2.7234192 0l0 -3.3065033l32.830383 0l0 25.664505c-1.2479248 0 -2.4976501 0.17778015 -2.4976501 0.17778015m-27.772858 -25.842285l0 -3.2265167l33.114807 0l0 25.584518c-1.4221497 0 -2.8442993 0.1333313 -2.8442993 0.1333313" fill-rule="evenodd"/><path fill="#000000" d="m361.44565 215.53882l2.96875 9.359375l0.03125 0l3.0 -9.359375l3.03125 0l-4.421875 13.3125l-3.296875 0l-4.328125 -13.3125l3.015625 0z" fill-rule="nonzero"/><path fill="#000000" fill-opacity="0.0" d="m331.54462 104.07499l0 -6.2362213l-86.99213 0" fill-rule="evenodd"/><path stroke="#595959" stroke-width="1.0" stroke-linejoin="round" stroke-linecap="butt" d="m331.54462 104.07499l0 -6.2362213l-80.99213 0" fill-rule="evenodd"/><path fill="#595959" stroke="#595959" stroke-width="1.0" stroke-linecap="butt" d="m250.55249 96.187035l-4.538101 1.6517334l4.538101 1.6517334z" fill-rule="evenodd"/><path fill="#c9daf8" d="m208.54987 244.87898l0 0c0 -2.6498566 2.1481323 -4.797989 4.798004 -4.797989l38.404007 0c1.2725067 0 2.4928894 0.50549316 3.392685 1.405304c0.8998108 0.89979553 1.405304 2.1201782 1.405304 3.392685l0 19.191422c0 2.6498413 -2.1481323 4.798004 -4.797989 4.798004l-38.404007 0c-2.6498718 0 -4.798004 -2.1481628 -4.798004 -4.798004z" fill-rule="evenodd"/><path stroke="#2d2a2e" stroke-width="1.0" stroke-linejoin="round" stroke-linecap="butt" d="m208.54987 244.87898l0 0c0 -2.6498566 2.1481323 -4.797989 4.798004 -4.797989l38.404007 0c1.2725067 0 2.4928894 0.50549316 3.392685 1.405304c0.8998108 0.89979553 1.405304 2.1201782 1.405304 3.392685l0 19.191422c0 2.6498413 -2.1481323 4.798004 -4.797989 4.798004l-38.404007 0c-2.6498718 0 -4.798004 -2.1481628 -4.798004 -4.798004z" fill-rule="evenodd"/><path fill="#000000" d="m237.61107 253.20718q0 0.53125 -0.390625 0.78125q-0.375 0.25 -0.8125 0.25q-0.28125 0 -0.625 -0.09375q-0.34375 -0.09375 -0.546875 -0.171875q-0.40625 0.375 -0.953125 1.09375q-0.546875 0.703125 -1.015625 1.5625q0.21875 0.859375 0.390625 1.484375q0.171875 0.609375 0.375 1.21875q0.171875 0.5625 0.53125 0.890625q0.375 0.328125 0.96875 0.328125q0.21875 0 0.59375 -0.046875q0.390625 -0.0625 0.609375 -0.140625l-0.171875 0.609375q-0.875 0.359375 -1.3125 0.46875q-0.4375 0.109375 -0.953125 0.109375q-0.640625 0 -1.0625 -0.28125q-0.40625 -0.296875 -0.65625 -1.21875q-0.1875 -0.65625 -0.296875 -1.109375q-0.109375 -0.453125 -0.21875 -0.90625q-0.421875 0.640625 -0.703125 1.078125q-0.265625 0.4375 -0.90625 1.21875q-0.5625 0.671875 -1.03125 0.953125q-0.453125 0.28125 -0.9375 0.28125q-0.421875 0 -0.703125 -0.25q-0.28125 -0.25 -0.28125 -0.703125q0 -0.421875 0.328125 -0.71875q0.328125 -0.3125 0.90625 -0.3125q0.28125 0 0.5625 0.109375q0.28125 0.09375 0.578125 0.1875q0.34375 -0.328125 0.90625 -1.015625q0.578125 -0.6875 1.078125 -1.578125q-0.171875 -0.640625 -0.390625 -1.40625q-0.203125 -0.78125 -0.375 -1.375q-0.234375 -0.734375 -0.546875 -0.9375q-0.3125 -0.21875 -0.796875 -0.21875q-0.265625 0 -0.5625 0.078125q-0.296875 0.078125 -0.546875 0.140625l0.171875 -0.59375q0.703125 -0.296875 1.265625 -0.484375q0.5625 -0.1875 0.75 -0.1875q0.640625 0 1.046875 0.3125q0.421875 0.296875 0.671875 1.171875q0.28125 1.015625 0.328125 1.234375q0.046875 0.21875 0.1875 0.875q0.4375 -0.671875 0.703125 -1.125q0.28125 -0.46875 0.90625 -1.234375q0.578125 -0.71875 1.0625 -0.984375q0.484375 -0.28125 0.9375 -0.28125q0.390625 0 0.671875 0.265625q0.28125 0.265625 0.265625 0.671875z" fill-rule="nonzero"/><path fill="#c9daf8" d="m273.95407 148.13008l115.18109 0l0 24.0l-115.18109 0z" fill-rule="evenodd"/><path stroke="#2d2a2e" stroke-width="1.0" stroke-linejoin="round" stroke-linecap="butt" d="m273.95407 148.13008l115.18109 0l0 24.0l-115.18109 0z" fill-rule="evenodd"/><path fill="#000000" d="m306.60712 154.5682l4.484375 11.421875l-1.171875 0l-1.390625 -3.5625l-5.203125 0l-1.375 3.5625l-1.171875 0l4.609375 -11.421875l1.21875 0zm-2.953125 6.9375l4.5 0l-2.203125 -5.84375l-2.296875 5.84375zm9.78125 -6.25l0 2.46875l1.6875 0l0 0.859375l-1.6875 0l0 5.625q0 0.640625 0.234375 0.84375q0.25 0.1875 0.625 0.1875q0.15625 0 0.359375 -0.015625q0.21875 -0.015625 0.46875 -0.03125l0 0.859375q-0.21875 0.015625 -0.453125 0.015625q-0.21875 0.015625 -0.4375 0.015625q-1.015625 0 -1.40625 -0.375q-0.390625 -0.390625 -0.390625 -1.390625l0 -5.734375l-1.453125 0l0 -0.859375l1.453125 0l0 -2.46875l1.0 0zm4.734375 0l0 2.46875l1.6875 0l0 0.859375l-1.6875 0l0 5.625q0 0.640625 0.234375 0.84375q0.25 0.1875 0.625 0.1875q0.15625 0 0.359375 -0.015625q0.21875 -0.015625 0.46875 -0.03125l0 0.859375q-0.21875 0.015625 -0.453125 0.015625q-0.21875 0.015625 -0.4375 0.015625q-1.015625 0 -1.40625 -0.375q-0.390625 -0.390625 -0.390625 -1.390625l0 -5.734375l-1.453125 0l0 -0.859375l1.453125 0l0 -2.46875l1.0 0zm6.2265625 2.234375q1.671875 0 2.640625 1.21875q0.984375 1.21875 0.984375 3.25l0 0.171875l-6.34375 0q0.015625 1.4375 0.765625 2.34375q0.75 0.90625 1.953125 0.90625q1.0 0 1.640625 -0.515625q0.65625 -0.53125 0.953125 -1.59375l1.0 0q-0.34375 1.484375 -1.234375 2.234375q-0.875 0.734375 -2.359375 0.734375q-1.75 0 -2.75 -1.171875q-0.984375 -1.1875 -0.984375 -3.203125q0 -1.921875 0.984375 -3.140625q1.0 -1.234375 2.75 -1.234375zm2.625 3.796875q-0.046875 -1.234375 -0.78125 -2.09375q-0.71875 -0.859375 -1.859375 -0.859375q-1.078125 0 -1.8125 0.796875q-0.71875 0.796875 -0.890625 2.15625l5.34375 0zm6.0390625 -3.796875q1.578125 0 2.296875 0.78125q0.71875 0.765625 0.71875 2.328125l0 5.390625l-1.015625 0l0 -5.21875q0 -1.203125 -0.515625 -1.8125q-0.515625 -0.625 -1.578125 -0.625q-0.828125 0 -1.421875 0.40625q-0.59375 0.40625 -0.890625 1.078125q-0.28125 0.671875 -0.28125 1.34375l0 4.828125l-1.0 0l0 -8.265625l1.0 0l0 1.4375l0.03125 0q0.296875 -0.75 1.015625 -1.203125q0.734375 -0.46875 1.640625 -0.46875zm6.515625 -2.234375l0 2.46875l1.6875 0l0 0.859375l-1.6875 0l0 5.625q0 0.640625 0.234375 0.84375q0.25 0.1875 0.625 0.1875q0.15625 0 0.359375 -0.015625q0.21875 -0.015625 0.46875 -0.03125l0 0.859375q-0.21875 0.015625 -0.453125 0.015625q-0.21875 0.015625 -0.4375 0.015625q-1.015625 0 -1.40625 -0.375q-0.390625 -0.390625 -0.390625 -1.390625l0 -5.734375l-1.453125 0l0 -0.859375l1.453125 0l0 -2.46875l1.0 0zm4.15625 -0.6875l0 1.609375l-1.0 0l0 -1.609375l1.0 0zm0 3.15625l0 8.265625l-1.0 0l0 -8.265625l1.0 0zm5.4296875 -0.234375q1.765625 0 2.828125 1.234375q1.078125 1.21875 1.078125 3.140625q0 1.15625 -0.453125 2.15625q-0.4375 1.0 -1.34375 1.609375q-0.890625 0.609375 -2.109375 0.609375q-1.75 0 -2.828125 -1.234375q-1.078125 -1.234375 -1.078125 -3.140625q0 -1.921875 1.0625 -3.140625q1.078125 -1.234375 2.84375 -1.234375zm-2.890625 4.375q0 1.453125 0.78125 2.484375q0.796875 1.03125 2.109375 1.03125q1.3125 0 2.09375 -1.03125q0.796875 -1.03125 0.796875 -2.484375q0 -1.453125 -0.796875 -2.484375q-0.78125 -1.046875 -2.109375 -1.046875q-1.28125 0 -2.078125 1.03125q-0.796875 1.015625 -0.796875 2.5zm11.9765625 -4.375q1.578125 0 2.296875 0.78125q0.71875 0.765625 0.71875 2.328125l0 5.390625l-1.015625 0l0 -5.21875q0 -1.203125 -0.515625 -1.8125q-0.515625 -0.625 -1.578125 -0.625q-0.828125 0 -1.421875 0.40625q-0.59375 0.40625 -0.890625 1.078125q-0.28125 0.671875 -0.28125 1.34375l0 4.828125l-1.0 0l0 -8.265625l1.0 0l0 1.4375l0.03125 0q0.296875 -0.75 1.015625 -1.203125q0.734375 -0.46875 1.640625 -0.46875z" fill-rule="nonzero"/><path fill="#c9daf8" d="m293.1509 104.07499l76.787415 0l0 24.000008l-76.787415 0z" fill-rule="evenodd"/><path stroke="#2d2a2e" stroke-width="1.0" stroke-linejoin="round" stroke-linecap="butt" d="m293.1509 104.07499l76.787415 0l0 24.000008l-76.787415 0z" fill-rule="evenodd"/><path fill="#000000" d="m312.89618 110.513115l0 10.484375l6.390625 0l0 0.9375l-7.484375 0l0 -11.421875l1.09375 0zm8.328125 0l0 1.609375l-1.0 0l0 -1.609375l1.0 0zm0 3.15625l0 8.265625l-1.0 0l0 -8.265625l1.0 0zm5.6171875 -0.234375q1.578125 0 2.296875 0.78125q0.71875 0.765625 0.71875 2.328125l0 5.390625l-1.015625 0l0 -5.21875q0 -1.203125 -0.515625 -1.8125q-0.515625 -0.625 -1.578125 -0.625q-0.828125 0 -1.421875 0.40625q-0.59375 0.40625 -0.890625 1.078125q-0.28125 0.671875 -0.28125 1.34375l0 4.828125l-1.0 0l0 -8.265625l1.0 0l0 1.4375l0.03125 0q0.296875 -0.75 1.015625 -1.203125q0.734375 -0.46875 1.640625 -0.46875zm8.234375 0q1.671875 0 2.640625 1.21875q0.984375 1.21875 0.984375 3.25l0 0.171875l-6.34375 0q0.015625 1.4375 0.765625 2.34375q0.75 0.90625 1.953125 0.90625q1.0 0 1.640625 -0.515625q0.65625 -0.53125 0.953125 -1.59375l1.0 0q-0.34375 1.484375 -1.234375 2.234375q-0.875 0.734375 -2.359375 0.734375q-1.75 0 -2.75 -1.171875q-0.984375 -1.1875 -0.984375 -3.203125q0 -1.921875 0.984375 -3.140625q1.0 -1.234375 2.75 -1.234375zm2.625 3.796875q-0.046875 -1.234375 -0.78125 -2.09375q-0.71875 -0.859375 -1.859375 -0.859375q-1.078125 0 -1.8125 0.796875q-0.71875 0.796875 -0.890625 2.15625l5.34375 0zm5.6171875 -3.796875q1.5625 0 2.296875 0.6875q0.734375 0.671875 0.734375 1.90625l0 4.484375q0 0.25 0.140625 0.40625q0.140625 0.15625 0.453125 0.15625q0.09375 0 0.171875 0q0.078125 -0.015625 0.140625 -0.0625l0 0.859375q-0.1875 0.03125 -0.328125 0.046875q-0.140625 0.015625 -0.3125 0.015625q-0.65625 0 -0.921875 -0.3125q-0.265625 -0.328125 -0.265625 -1.046875l0 -0.078125l-0.03125 0q-0.625 0.9375 -1.296875 1.3125q-0.671875 0.375 -1.703125 0.375q-1.265625 0 -2.03125 -0.625q-0.75 -0.640625 -0.75 -1.8125q0 -1.1875 0.828125 -1.796875q0.84375 -0.609375 3.71875 -0.859375q0.65625 -0.0625 0.921875 -0.296875q0.265625 -0.25 0.265625 -0.8125q0 -0.84375 -0.515625 -1.265625q-0.5 -0.4375 -1.640625 -0.4375q-1.046875 0 -1.625 0.5q-0.5625 0.484375 -0.59375 1.421875l-1.0 0q0.0625 -1.359375 0.921875 -2.0625q0.875 -0.703125 2.421875 -0.703125zm2.0 3.984375q-0.15625 0.28125 -0.96875 0.390625q-0.796875 0.109375 -1.765625 0.28125q-0.96875 0.15625 -1.46875 0.546875q-0.484375 0.375 -0.484375 1.046875q0 0.734375 0.546875 1.1875q0.546875 0.453125 1.296875 0.453125q1.234375 0 2.046875 -0.734375q0.828125 -0.734375 0.828125 -1.8125l0 -1.359375l-0.03125 0zm6.8828125 -3.859375l0.25 0l0 1.015625l-0.125 0q-1.328125 0 -2.140625 0.859375q-0.8125 0.84375 -0.8125 2.125l0 4.375l-1.0 0l0 -8.265625l0.921875 0l0 1.9375l0.03125 0q0.375 -0.96875 1.140625 -1.5q0.765625 -0.546875 1.734375 -0.546875z" fill-rule="nonzero"/><path fill="#000000" fill-opacity="0.0" d="m331.54462 148.13008l0 -10.027496l0.06298828 0l0 -10.035507" fill-rule="evenodd"/><path stroke="#595959" stroke-width="1.0" stroke-linejoin="round" stroke-linecap="butt" d="m331.54462 148.13008l0 -10.027496l0.06298828 0l0 -4.035507" fill-rule="evenodd"/><path fill="#595959" stroke="#595959" stroke-width="1.0" stroke-linecap="butt" d="m333.25934 134.06708l-1.6517334 -4.538086l-1.6517334 4.538086z" fill-rule="evenodd"/><path fill="#000000" fill-opacity="0.0" d="m292.961 200.19283l0 -14.031494l38.582703 0l0 -14.031494" fill-rule="evenodd"/><path stroke="#595959" stroke-width="1.0" stroke-linejoin="round" stroke-linecap="butt" d="m292.96103 200.19283l0 -14.031494l38.582672 0l0 -8.031494" fill-rule="evenodd"/><path fill="#595959" stroke="#595959" stroke-width="1.0" stroke-linecap="butt" d="m333.19543 178.12984l-1.6517334 -4.538101l-1.6517334 4.538101z" fill-rule="evenodd"/><path fill="#000000" fill-opacity="0.0" d="m369.7589 200.19283l0 -14.031494l-38.204712 0l0 -14.031494" fill-rule="evenodd"/><path stroke="#595959" stroke-width="1.0" stroke-linejoin="round" stroke-linecap="butt" d="m369.7589 200.19283l0 -14.031494l-38.204712 0l0 -14.031494" fill-rule="evenodd"/><path fill="#000000" fill-opacity="0.0" d="m331.35995 200.19283l0 -14.031494l0.18899536 0l0 -14.031494" fill-rule="evenodd"/><path stroke="#595959" stroke-width="1.0" stroke-linejoin="round" stroke-linecap="butt" d="m331.35995 200.19283l0 -14.031494l0.18899536 0l0 -14.031494" fill-rule="evenodd"/><path fill="#000000" fill-opacity="0.0" d="m256.54987 254.47469l31.086609 0l0 -17.32283" fill-rule="evenodd"/><path stroke="#595959" stroke-width="1.0" stroke-linejoin="round" stroke-linecap="butt" d="m256.54987 254.4747l31.086609 0l0 -11.322845" fill-rule="evenodd"/><path fill="#595959" stroke="#595959" stroke-width="1.0" stroke-linecap="butt" d="m289.2882 243.15186l-1.6517334 -4.538086l-1.6517334 4.538086z" fill-rule="evenodd"/><path fill="#000000" fill-opacity="0.0" d="m256.54987 254.47469l69.51181 0l0 -17.32283" fill-rule="evenodd"/><path stroke="#595959" stroke-width="1.0" stroke-linejoin="round" stroke-linecap="butt" d="m256.54987 254.4747l69.51181 0l0 -11.322845" fill-rule="evenodd"/><path fill="#595959" stroke="#595959" stroke-width="1.0" stroke-linecap="butt" d="m327.7134 243.15186l-1.6517334 -4.538086l-1.6517334 4.538086z" fill-rule="evenodd"/><path fill="#000000" fill-opacity="0.0" d="m256.54987 254.47469l107.90552 0l0 -17.32283" fill-rule="evenodd"/><path stroke="#595959" stroke-width="1.0" stroke-linejoin="round" stroke-linecap="butt" d="m256.54987 254.4747l107.90552 0l0 -11.322845" fill-rule="evenodd"/><path fill="#595959" stroke="#595959" stroke-width="1.0" stroke-linecap="butt" d="m366.10712 243.15186l-1.6517334 -4.538086l-1.6517334 4.538086z" fill-rule="evenodd"/><path fill="#000000" fill-opacity="0.0" d="m232.54987 240.081l0 -65.12604l0.06298828 0l0 -65.14168" fill-rule="evenodd"/><path stroke="#595959" stroke-width="1.0" stroke-linejoin="round" stroke-linecap="butt" d="m232.54987 240.081l0 -65.12604l0.06298828 0l0 -59.141678" fill-rule="evenodd"/><path fill="#595959" stroke="#595959" stroke-width="1.0" stroke-linecap="butt" d="m234.26459 115.81328l-1.6517334 -4.5380936l-1.6517181 4.5380936z" fill-rule="evenodd"/><path fill="#c9daf8" d="m174.95932 43.75197l115.18109 0l0 24.0l-115.18109 0z" fill-rule="evenodd"/><path stroke="#2d2a2e" stroke-width="1.0" stroke-linejoin="round" stroke-linecap="butt" d="m174.95932 43.75197l115.18109 0l0 24.0l-115.18109 0z" fill-rule="evenodd"/><path fill="#000000" d="m194.48737 50.190094l0 10.484375l6.390625 0l0 0.9375l-7.484375 0l0 -11.421875l1.09375 0zm10.5625 2.921875q1.5625 0 2.296875 0.6875q0.734375 0.671875 0.734375 1.90625l0 4.484375q0 0.25 0.140625 0.40625q0.140625 0.15625 0.453125 0.15625q0.09375 0 0.171875 0q0.078125 -0.015625 0.140625 -0.0625l0 0.859375q-0.1875 0.03125 -0.328125 0.046875q-0.140625 0.015625 -0.3125 0.015625q-0.65625 0 -0.921875 -0.3125q-0.265625 -0.328125 -0.265625 -1.046875l0 -0.078125l-0.03125 0q-0.625 0.9375 -1.296875 1.3125q-0.671875 0.375 -1.703125 0.375q-1.265625 0 -2.03125 -0.625q-0.75 -0.640625 -0.75 -1.8125q0 -1.1875 0.828125 -1.796875q0.84375 -0.609375 3.71875 -0.859375q0.65625 -0.0625 0.921875 -0.296875q0.265625 -0.25 0.265625 -0.8125q0 -0.84375 -0.515625 -1.265625q-0.5 -0.4375 -1.640625 -0.4375q-1.046875 0 -1.625 0.5q-0.5625 0.484375 -0.59375 1.421875l-1.0 0q0.0625 -1.359375 0.921875 -2.0625q0.875 -0.703125 2.421875 -0.703125zm2.0 3.984375q-0.15625 0.28125 -0.96875 0.390625q-0.796875 0.109375 -1.765625 0.28125q-0.96875 0.15625 -1.46875 0.546875q-0.484375 0.375 -0.484375 1.046875q0 0.734375 0.546875 1.1875q0.546875 0.453125 1.296875 0.453125q1.234375 0 2.046875 -0.734375q0.828125 -0.734375 0.828125 -1.8125l0 -1.359375l-0.03125 0zm3.1953125 -3.75l2.71875 7.03125l2.546875 -7.03125l1.0 0l-3.546875 9.453125q-0.359375 0.953125 -0.78125 1.40625q-0.421875 0.46875 -1.390625 0.46875q-0.046875 0 -0.359375 -0.015625q-0.3125 -0.015625 -0.4375 -0.0625l0 -0.859375l0.015625 0q0.046875 0.03125 0.265625 0.0625q0.234375 0.03125 0.40625 0.03125q0.625 0 0.9375 -0.390625q0.328125 -0.375 0.84375 -1.859375l-3.296875 -8.234375l1.078125 0zm10.578125 -0.234375q1.671875 0 2.640625 1.21875q0.984375 1.21875 0.984375 3.25l0 0.171875l-6.34375 0q0.015625 1.4375 0.765625 2.34375q0.75 0.90625 1.953125 0.90625q1.0 0 1.640625 -0.515625q0.65625 -0.53125 0.953125 -1.59375l1.0 0q-0.34375 1.484375 -1.234375 2.234375q-0.875 0.734375 -2.359375 0.734375q-1.75 0 -2.75 -1.171875q-0.984375 -1.1875 -0.984375 -3.203125q0 -1.921875 0.984375 -3.140625q1.0 -1.234375 2.75 -1.234375zm2.625 3.796875q-0.046875 -1.234375 -0.78125 -2.09375q-0.71875 -0.859375 -1.859375 -0.859375q-1.078125 0 -1.8125 0.796875q-0.71875 0.796875 -0.890625 2.15625l5.34375 0zm6.1953125 -3.671875l0.25 0l0 1.015625l-0.125 0q-1.328125 0 -2.140625 0.859375q-0.8125 0.84375 -0.8125 2.125l0 4.375l-1.0 0l0 -8.265625l0.921875 0l0 1.9375l0.03125 0q0.375 -0.96875 1.140625 -1.5q0.765625 -0.546875 1.734375 -0.546875zm7.046875 -3.046875l6.65625 9.65625l0.03125 0l0 -9.65625l1.078125 0l0 11.421875l-1.203125 0l-6.65625 -9.671875l-0.03125 0l0 9.671875l-1.09375 0l0 -11.421875l1.21875 0zm13.359375 2.921875q1.765625 0 2.828125 1.234375q1.078125 1.21875 1.078125 3.140625q0 1.15625 -0.453125 2.15625q-0.4375 1.0 -1.34375 1.609375q-0.890625 0.609375 -2.109375 0.609375q-1.75 0 -2.828125 -1.234375q-1.078125 -1.234375 -1.078125 -3.140625q0 -1.921875 1.0625 -3.140625q1.078125 -1.234375 2.84375 -1.234375zm-2.890625 4.375q0 1.453125 0.78125 2.484375q0.796875 1.03125 2.109375 1.03125q1.3125 0 2.09375 -1.03125q0.796875 -1.03125 0.796875 -2.484375q0 -1.453125 -0.796875 -2.484375q-0.78125 -1.046875 -2.109375 -1.046875q-1.28125 0 -2.078125 1.03125q-0.796875 1.015625 -0.796875 2.5zm12.1328125 -4.25l0.25 0l0 1.015625l-0.125 0q-1.328125 0 -2.140625 0.859375q-0.8125 0.84375 -0.8125 2.125l0 4.375l-1.0 0l0 -8.265625l0.921875 0l0 1.9375l0.03125 0q0.375 -0.96875 1.140625 -1.5q0.765625 -0.546875 1.734375 -0.546875zm4.8828125 -0.125q0.859375 0 1.484375 0.421875q0.640625 0.40625 0.890625 1.1875q0.375 -0.78125 1.0625 -1.1875q0.703125 -0.421875 1.5625 -0.421875q1.375 0 2.046875 0.734375q0.6875 0.734375 0.6875 2.09375l0 5.671875l-1.015625 0l0 -5.625q0 -1.046875 -0.46875 -1.53125q-0.46875 -0.5 -1.46875 -0.5q-1.109375 0 -1.6875 0.765625q-0.5625 0.75 -0.5625 2.140625l0 4.75l-1.015625 0l0 -5.65625q0 -0.9375 -0.4375 -1.46875q-0.421875 -0.53125 -1.28125 -0.53125q-1.203125 0 -1.84375 0.828125q-0.625 0.8125 -0.625 2.140625l0 4.6875l-1.0 0l0 -8.265625l0.921875 0l0 1.390625l0.046875 0q0.4375 -0.8125 1.109375 -1.21875q0.671875 -0.40625 1.59375 -0.40625z" fill-rule="nonzero"/><path fill="#000000" fill-opacity="0.0" d="m232.54855 85.82864l0 -9.038284l0.06298828 0l0 -9.040451" fill-rule="evenodd"/><path stroke="#595959" stroke-width="1.0" stroke-linejoin="round" stroke-linecap="butt" d="m232.54855 85.82865l0 -9.038292l0.06298828 0l0 -3.040451" fill-rule="evenodd"/><path fill="#595959" stroke="#595959" stroke-width="1.0" stroke-linecap="butt" d="m234.26328 73.74991l-1.6517334 -4.538101l-1.6517181 4.538101z" fill-rule="evenodd"/><path fill="#000000" fill-opacity="0.0" d="m232.54987 43.75197l0 -13.212599l0.06298828 0l0 -13.212599" fill-rule="evenodd"/><path stroke="#595959" stroke-width="1.0" stroke-linejoin="round" stroke-linecap="butt" d="m232.54987 43.75197l0 -13.212599l0.06298828 0l0 -7.212599" fill-rule="evenodd"/><path fill="#595959" stroke="#595959" stroke-width="1.0" stroke-linecap="butt" d="m234.26459 23.32677l-1.6517334 -4.5380974l-1.6517181 4.5380974z" fill-rule="evenodd"/><path fill="#f4cccc" d="m174.99081 286.4175l115.18109 0l0 24.0l-115.18109 0z" fill-rule="evenodd"/><path stroke="#2d2a2e" stroke-width="1.0" stroke-linejoin="round" stroke-linecap="butt" d="m174.99081 286.4175l115.18109 0l0 24.0l-115.18109 0z" fill-rule="evenodd"/><path fill="#000000" d="m194.51886 292.85565l0 10.484375l6.390625 0l0 0.9375l-7.484375 0l0 -11.421875l1.09375 0zm10.5625 2.921875q1.5625 0 2.296875 0.6875q0.734375 0.671875 0.734375 1.90625l0 4.484375q0 0.25 0.140625 0.40625q0.140625 0.15625 0.453125 0.15625q0.09375 0 0.171875 0q0.078125 -0.015625 0.140625 -0.0625l0 0.859375q-0.1875 0.03125 -0.328125 0.046875q-0.140625 0.015625 -0.3125 0.015625q-0.65625 0 -0.921875 -0.3125q-0.265625 -0.328125 -0.265625 -1.046875l0 -0.078125l-0.03125 0q-0.625 0.9375 -1.296875 1.3125q-0.671875 0.375 -1.703125 0.375q-1.265625 0 -2.03125 -0.625q-0.75 -0.640625 -0.75 -1.8125q0 -1.1875 0.828125 -1.796875q0.84375 -0.609375 3.71875 -0.859375q0.65625 -0.0625 0.921875 -0.296875q0.265625 -0.25 0.265625 -0.8125q0 -0.84375 -0.515625 -1.265625q-0.5 -0.4375 -1.640625 -0.4375q-1.046875 0 -1.625 0.5q-0.5625 0.484375 -0.59375 1.421875l-1.0 0q0.0625 -1.359375 0.921875 -2.0625q0.875 -0.703125 2.421875 -0.703125zm2.0 3.984375q-0.15625 0.28125 -0.96875 0.390625q-0.796875 0.109375 -1.765625 0.28125q-0.96875 0.15625 -1.46875 0.546875q-0.484375 0.375 -0.484375 1.046875q0 0.734375 0.546875 1.1875q0.546875 0.453125 1.296875 0.453125q1.234375 0 2.046875 -0.734375q0.828125 -0.734375 0.828125 -1.8125l0 -1.359375l-0.03125 0zm3.1953125 -3.75l2.71875 7.03125l2.546875 -7.03125l1.0 0l-3.546875 9.453125q-0.359375 0.953125 -0.78125 1.40625q-0.421875 0.46875 -1.390625 0.46875q-0.046875 0 -0.359375 -0.015625q-0.3125 -0.015625 -0.4375 -0.0625l0 -0.859375l0.015625 0q0.046875 0.03125 0.265625 0.0625q0.234375 0.03125 0.40625 0.03125q0.625 0 0.9375 -0.390625q0.328125 -0.375 0.84375 -1.859375l-3.296875 -8.234375l1.078125 0zm10.578125 -0.234375q1.671875 0 2.640625 1.21875q0.984375 1.21875 0.984375 3.25l0 0.171875l-6.34375 0q0.015625 1.4375 0.765625 2.34375q0.75 0.90625 1.953125 0.90625q1.0 0 1.640625 -0.515625q0.65625 -0.53125 0.953125 -1.59375l1.0 0q-0.34375 1.484375 -1.234375 2.234375q-0.875 0.734375 -2.359375 0.734375q-1.75 0 -2.75 -1.171875q-0.984375 -1.1875 -0.984375 -3.203125q0 -1.921875 0.984375 -3.140625q1.0 -1.234375 2.75 -1.234375zm2.625 3.796875q-0.046875 -1.234375 -0.78125 -2.09375q-0.71875 -0.859375 -1.859375 -0.859375q-1.078125 0 -1.8125 0.796875q-0.71875 0.796875 -0.890625 2.15625l5.34375 0zm6.1953125 -3.671875l0.25 0l0 1.015625l-0.125 0q-1.328125 0 -2.140625 0.859375q-0.8125 0.84375 -0.8125 2.125l0 4.375l-1.0 0l0 -8.265625l0.921875 0l0 1.9375l0.03125 0q0.375 -0.96875 1.140625 -1.5q0.765625 -0.546875 1.734375 -0.546875zm7.046875 -3.046875l6.65625 9.65625l0.03125 0l0 -9.65625l1.078125 0l0 11.421875l-1.203125 0l-6.65625 -9.671875l-0.03125 0l0 9.671875l-1.09375 0l0 -11.421875l1.21875 0zm13.359375 2.921875q1.765625 0 2.828125 1.234375q1.078125 1.21875 1.078125 3.140625q0 1.15625 -0.453125 2.15625q-0.4375 1.0 -1.34375 1.609375q-0.890625 0.609375 -2.109375 0.609375q-1.75 0 -2.828125 -1.234375q-1.078125 -1.234375 -1.078125 -3.140625q0 -1.921875 1.0625 -3.140625q1.078125 -1.234375 2.84375 -1.234375zm-2.890625 4.375q0 1.453125 0.78125 2.484375q0.796875 1.03125 2.109375 1.03125q1.3125 0 2.09375 -1.03125q0.796875 -1.03125 0.796875 -2.484375q0 -1.453125 -0.796875 -2.484375q-0.78125 -1.046875 -2.109375 -1.046875q-1.28125 0 -2.078125 1.03125q-0.796875 1.015625 -0.796875 2.5zm12.1328125 -4.25l0.25 0l0 1.015625l-0.125 0q-1.328125 0 -2.140625 0.859375q-0.8125 0.84375 -0.8125 2.125l0 4.375l-1.0 0l0 -8.265625l0.921875 0l0 1.9375l0.03125 0q0.375 -0.96875 1.140625 -1.5q0.765625 -0.546875 1.734375 -0.546875zm4.8828125 -0.125q0.859375 0 1.484375 0.421875q0.640625 0.40625 0.890625 1.1875q0.375 -0.78125 1.0625 -1.1875q0.703125 -0.421875 1.5625 -0.421875q1.375 0 2.046875 0.734375q0.6875 0.734375 0.6875 2.09375l0 5.671875l-1.015625 0l0 -5.625q0 -1.046875 -0.46875 -1.53125q-0.46875 -0.5 -1.46875 -0.5q-1.109375 0 -1.6875 0.765625q-0.5625 0.75 -0.5625 2.140625l0 4.75l-1.015625 0l0 -5.65625q0 -0.9375 -0.4375 -1.46875q-0.421875 -0.53125 -1.28125 -0.53125q-1.203125 0 -1.84375 0.828125q-0.625 0.8125 -0.625 2.140625l0 4.6875l-1.0 0l0 -8.265625l0.921875 0l0 1.390625l0.046875 0q0.4375 -0.8125 1.109375 -1.21875q0.671875 -0.40625 1.59375 -0.40625z" fill-rule="nonzero"/><path fill="#000000" fill-opacity="0.0" d="m232.58136 286.4175l0 -8.774628l0.06300354 0l0 -8.768677" fill-rule="evenodd"/><path stroke="#595959" stroke-width="1.0" stroke-linejoin="round" stroke-linecap="butt" d="m232.58136 286.4175l0 -8.774628l0.06300354 0l0 -2.7686768" fill-rule="evenodd"/><path fill="#595959" stroke="#595959" stroke-width="1.0" stroke-linecap="butt" d="m234.2961 274.8742l-1.6517334 -4.5381165l-1.6517334 4.5381165z" fill-rule="evenodd"/><path fill="#f4cccc" d="m220.54855 341.44394l0 0c0 -6.627411 5.372589 -12.0 12.0 -12.0l0 0c3.182602 0 6.234848 1.2642822 8.485291 3.51474c2.2504272 2.2504272 3.5147095 5.3026733 3.5147095 8.48526l0 0c0 6.627411 -5.372574 12.0 -12.0 12.0l0 0c-6.627411 0 -12.0 -5.372589 -12.0 -12.0z" fill-rule="evenodd"/><path fill="#000000" fill-opacity="0.0" d="m232.54855 329.44394l0 24.0m-12.0 -12.0l24.0 0" fill-rule="evenodd"/><path fill="#000000" fill-opacity="0.0" d="m220.54855 341.44394l0 0c0 -6.627411 5.372589 -12.0 12.0 -12.0l0 0c3.182602 0 6.234848 1.2642822 8.485291 3.51474c2.2504272 2.2504272 3.5147095 5.3026733 3.5147095 8.48526l0 0c0 6.627411 -5.372574 12.0 -12.0 12.0l0 0c-6.627411 0 -12.0 -5.372589 -12.0 -12.0z" fill-rule="evenodd"/><path stroke="#2d2a2e" stroke-width="1.0" stroke-linejoin="round" stroke-linecap="butt" d="m232.54855 329.44394l0 24.0m-12.0 -12.0l24.0 0" fill-rule="evenodd"/><path stroke="#2d2a2e" stroke-width="1.0" stroke-linejoin="round" stroke-linecap="butt" d="m220.54855 341.44394l0 0c0 -6.627411 5.372589 -12.0 12.0 -12.0l0 0c3.182602 0 6.234848 1.2642822 8.485291 3.51474c2.2504272 2.2504272 3.5147095 5.3026733 3.5147095 8.48526l0 0c0 6.627411 -5.372574 12.0 -12.0 12.0l0 0c-6.627411 0 -12.0 -5.372589 -12.0 -12.0z" fill-rule="evenodd"/><path fill="#000000" fill-opacity="0.0" d="m232.54855 329.44394l0 -9.513123l0.06298828 0l0 -9.510498" fill-rule="evenodd"/><path stroke="#595959" stroke-width="1.0" stroke-linejoin="round" stroke-linecap="butt" d="m232.54855 329.44394l0 -9.513123l0.06298828 0l0 -3.510498" fill-rule="evenodd"/><path fill="#595959" stroke="#595959" stroke-width="1.0" stroke-linecap="butt" d="m234.26328 316.42032l-1.6517334 -4.538086l-1.6517181 4.538086z" fill-rule="evenodd"/><path fill="#f4cccc" d="m208.61285 427.64688l0 0c0 -2.6498413 2.1481476 -4.798004 4.798004 -4.798004l38.404007 0c1.2725067 0 2.4928894 0.5055237 3.3927002 1.405304c0.89979553 0.8998108 1.4052887 2.1202087 1.4052887 3.3927002l0 19.191406c0 2.6498718 -2.1481323 4.798004 -4.797989 4.798004l-38.404007 0c-2.6498566 0 -4.798004 -2.1481323 -4.798004 -4.798004z" fill-rule="evenodd"/><path stroke="#2d2a2e" stroke-width="1.0" stroke-linejoin="round" stroke-linecap="butt" d="m208.61285 427.64688l0 0c0 -2.6498413 2.1481476 -4.798004 4.798004 -4.798004l38.404007 0c1.2725067 0 2.4928894 0.5055237 3.3927002 1.405304c0.89979553 0.8998108 1.4052887 2.1202087 1.4052887 3.3927002l0 19.191406c0 2.6498718 -2.1481323 4.798004 -4.797989 4.798004l-38.404007 0c-2.6498566 0 -4.798004 -2.1481323 -4.798004 -4.798004z" fill-rule="evenodd"/><path fill="#000000" d="m237.67406 435.9751q0 0.53125 -0.390625 0.78125q-0.375 0.25 -0.8125 0.25q-0.28125 0 -0.625 -0.09375q-0.34375 -0.09375 -0.546875 -0.171875q-0.40625 0.375 -0.953125 1.09375q-0.546875 0.703125 -1.015625 1.5625q0.21875 0.859375 0.390625 1.484375q0.171875 0.609375 0.375 1.21875q0.171875 0.5625 0.53125 0.890625q0.375 0.328125 0.96875 0.328125q0.21875 0 0.59375 -0.046875q0.390625 -0.0625 0.609375 -0.140625l-0.171875 0.609375q-0.875 0.359375 -1.3125 0.46875q-0.4375 0.109375 -0.953125 0.109375q-0.640625 0 -1.0625 -0.28125q-0.40625 -0.296875 -0.65625 -1.21875q-0.1875 -0.65625 -0.296875 -1.109375q-0.109375 -0.453125 -0.21875 -0.90625q-0.421875 0.640625 -0.703125 1.078125q-0.265625 0.4375 -0.90625 1.21875q-0.5625 0.671875 -1.03125 0.953125q-0.453125 0.28125 -0.9375 0.28125q-0.421875 0 -0.703125 -0.25q-0.28125 -0.25 -0.28125 -0.703125q0 -0.421875 0.328125 -0.71875q0.328125 -0.3125 0.90625 -0.3125q0.28125 0 0.5625 0.109375q0.28125 0.09375 0.578125 0.1875q0.34375 -0.328125 0.90625 -1.015625q0.578125 -0.6875 1.078125 -1.578125q-0.171875 -0.640625 -0.390625 -1.40625q-0.203125 -0.78125 -0.375 -1.375q-0.234375 -0.734375 -0.546875 -0.9375q-0.3125 -0.21875 -0.796875 -0.21875q-0.265625 0 -0.5625 0.078125q-0.296875 0.078125 -0.546875 0.140625l0.171875 -0.59375q0.703125 -0.296875 1.265625 -0.484375q0.5625 -0.1875 0.75 -0.1875q0.640625 0 1.046875 0.3125q0.421875 0.296875 0.671875 1.171875q0.28125 1.015625 0.328125 1.234375q0.046875 0.21875 0.1875 0.875q0.4375 -0.671875 0.703125 -1.125q0.28125 -0.46875 0.90625 -1.234375q0.578125 -0.71875 1.0625 -0.984375q0.484375 -0.28125 0.9375 -0.28125q0.390625 0 0.671875 0.265625q0.28125 0.265625 0.265625 0.671875z" fill-rule="nonzero"/><path fill="#f4cccc" d="m293.24277 349.1601l76.787415 0l0 24.0l-76.787415 0z" fill-rule="evenodd"/><path stroke="#2d2a2e" stroke-width="1.0" stroke-linejoin="round" stroke-linecap="butt" d="m293.24277 349.1601l76.787415 0l0 24.0l-76.787415 0z" fill-rule="evenodd"/><path fill="#000000" d="m312.98804 355.59824l0 10.484375l6.390625 0l0 0.9375l-7.484375 0l0 -11.421875l1.09375 0zm8.328125 0l0 1.609375l-1.0 0l0 -1.609375l1.0 0zm0 3.15625l0 8.265625l-1.0 0l0 -8.265625l1.0 0zm5.6171875 -0.234375q1.578125 0 2.296875 0.78125q0.71875 0.765625 0.71875 2.328125l0 5.390625l-1.015625 0l0 -5.21875q0 -1.203125 -0.515625 -1.8125q-0.515625 -0.625 -1.578125 -0.625q-0.828125 0 -1.421875 0.40625q-0.59375 0.40625 -0.890625 1.078125q-0.28125 0.671875 -0.28125 1.34375l0 4.828125l-1.0 0l0 -8.265625l1.0 0l0 1.4375l0.03125 0q0.296875 -0.75 1.015625 -1.203125q0.734375 -0.46875 1.640625 -0.46875zm8.234375 0q1.671875 0 2.640625 1.21875q0.984375 1.21875 0.984375 3.25l0 0.171875l-6.34375 0q0.015625 1.4375 0.765625 2.34375q0.75 0.90625 1.953125 0.90625q1.0 0 1.640625 -0.515625q0.65625 -0.53125 0.953125 -1.59375l1.0 0q-0.34375 1.484375 -1.234375 2.234375q-0.875 0.734375 -2.359375 0.734375q-1.75 0 -2.75 -1.171875q-0.984375 -1.1875 -0.984375 -3.203125q0 -1.921875 0.984375 -3.140625q1.0 -1.234375 2.75 -1.234375zm2.625 3.796875q-0.046875 -1.234375 -0.78125 -2.09375q-0.71875 -0.859375 -1.859375 -0.859375q-1.078125 0 -1.8125 0.796875q-0.71875 0.796875 -0.890625 2.15625l5.34375 0zm5.6171875 -3.796875q1.5625 0 2.296875 0.6875q0.734375 0.671875 0.734375 1.90625l0 4.484375q0 0.25 0.140625 0.40625q0.140625 0.15625 0.453125 0.15625q0.09375 0 0.171875 0q0.078125 -0.015625 0.140625 -0.0625l0 0.859375q-0.1875 0.03125 -0.328125 0.046875q-0.140625 0.015625 -0.3125 0.015625q-0.65625 0 -0.921875 -0.3125q-0.265625 -0.328125 -0.265625 -1.046875l0 -0.078125l-0.03125 0q-0.625 0.9375 -1.296875 1.3125q-0.671875 0.375 -1.703125 0.375q-1.265625 0 -2.03125 -0.625q-0.75 -0.640625 -0.75 -1.8125q0 -1.1875 0.828125 -1.796875q0.84375 -0.609375 3.71875 -0.859375q0.65625 -0.0625 0.921875 -0.296875q0.265625 -0.25 0.265625 -0.8125q0 -0.84375 -0.515625 -1.265625q-0.5 -0.4375 -1.640625 -0.4375q-1.046875 0 -1.625 0.5q-0.5625 0.484375 -0.59375 1.421875l-1.0 0q0.0625 -1.359375 0.921875 -2.0625q0.875 -0.703125 2.421875 -0.703125zm2.0 3.984375q-0.15625 0.28125 -0.96875 0.390625q-0.796875 0.109375 -1.765625 0.28125q-0.96875 0.15625 -1.46875 0.546875q-0.484375 0.375 -0.484375 1.046875q0 0.734375 0.546875 1.1875q0.546875 0.453125 1.296875 0.453125q1.234375 0 2.046875 -0.734375q0.828125 -0.734375 0.828125 -1.8125l0 -1.359375l-0.03125 0zm6.8828125 -3.859375l0.25 0l0 1.015625l-0.125 0q-1.328125 0 -2.140625 0.859375q-0.8125 0.84375 -0.8125 2.125l0 4.375l-1.0 0l0 -8.265625l0.921875 0l0 1.9375l0.03125 0q0.375 -0.96875 1.140625 -1.5q0.765625 -0.546875 1.734375 -0.546875z" fill-rule="nonzero"/><path fill="#f4cccc" d="m293.24277 373.1601l76.787415 0l0 24.0l-76.787415 0z" fill-rule="evenodd"/><path stroke="#2d2a2e" stroke-width="1.0" stroke-linejoin="round" stroke-linecap="butt" d="m293.24277 373.1601l76.787415 0l0 24.0l-76.787415 0z" fill-rule="evenodd"/><path fill="#000000" d="m317.42554 379.34824q1.84375 0 3.140625 0.984375q1.296875 0.96875 1.625 2.8125l-1.078125 0q-0.140625 -1.140625 -1.1875 -2.0q-1.046875 -0.859375 -2.5 -0.859375q-2.0 0 -3.15625 1.40625q-1.140625 1.40625 -1.140625 3.609375q0 2.1875 1.140625 3.609375q1.140625 1.421875 3.15625 1.421875q1.765625 0 2.859375 -1.09375q1.09375 -1.109375 1.09375 -3.078125l0 -0.03125l-3.890625 0l0 -0.921875l4.859375 0l0 5.8125l-0.796875 0l-0.140625 -2.078125l-0.03125 0q-0.546875 1.140625 -1.578125 1.734375q-1.015625 0.59375 -2.375 0.59375q-2.46875 0 -3.9375 -1.671875q-1.453125 -1.6875 -1.453125 -4.296875q0 -2.609375 1.46875 -4.28125q1.46875 -1.671875 3.921875 -1.671875zm14.90625 0.25l0 0.921875l-6.796875 0l0 4.125l6.359375 0l0 0.9375l-6.359375 0l0 4.5l6.875 0l0 0.9375l-7.96875 0l0 -11.421875l7.890625 0zm2.6875 0l0 10.484375l6.390625 0l0 0.9375l-7.484375 0l0 -11.421875l1.09375 0zm7.9921875 0l0 7.140625q0 1.75 0.8125 2.671875q0.8125 0.921875 2.53125 0.921875q1.734375 0 2.546875 -0.90625q0.8125 -0.90625 0.8125 -2.6875l0 -7.140625l1.09375 0l0 7.375q0 1.890625 -1.140625 3.09375q-1.125 1.203125 -3.3125 1.203125q-1.328125 0 -2.34375 -0.5q-1.0 -0.515625 -1.546875 -1.515625q-0.53125 -1.015625 -0.53125 -2.28125l0 -7.375l1.078125 0z" fill-rule="nonzero"/><path fill="#f4cccc" d="m293.12204 397.1601l76.787415 0l0 24.0l-76.787415 0z" fill-rule="evenodd"/><path stroke="#2d2a2e" stroke-width="1.0" stroke-linejoin="round" stroke-linecap="butt" d="m293.12204 397.1601l76.787415 0l0 24.0l-76.787415 0z" fill-rule="evenodd"/><path fill="#000000" d="m312.8673 403.59824l0 10.484375l6.390625 0l0 0.9375l-7.484375 0l0 -11.421875l1.09375 0zm8.328125 0l0 1.609375l-1.0 0l0 -1.609375l1.0 0zm0 3.15625l0 8.265625l-1.0 0l0 -8.265625l1.0 0zm5.6171875 -0.234375q1.578125 0 2.296875 0.78125q0.71875 0.765625 0.71875 2.328125l0 5.390625l-1.015625 0l0 -5.21875q0 -1.203125 -0.515625 -1.8125q-0.515625 -0.625 -1.578125 -0.625q-0.828125 0 -1.421875 0.40625q-0.59375 0.40625 -0.890625 1.078125q-0.28125 0.671875 -0.28125 1.34375l0 4.828125l-1.0 0l0 -8.265625l1.0 0l0 1.4375l0.03125 0q0.296875 -0.75 1.015625 -1.203125q0.734375 -0.46875 1.640625 -0.46875zm8.234375 0q1.671875 0 2.640625 1.21875q0.984375 1.21875 0.984375 3.25l0 0.171875l-6.34375 0q0.015625 1.4375 0.765625 2.34375q0.75 0.90625 1.953125 0.90625q1.0 0 1.640625 -0.515625q0.65625 -0.53125 0.953125 -1.59375l1.0 0q-0.34375 1.484375 -1.234375 2.234375q-0.875 0.734375 -2.359375 0.734375q-1.75 0 -2.75 -1.171875q-0.984375 -1.1875 -0.984375 -3.203125q0 -1.921875 0.984375 -3.140625q1.0 -1.234375 2.75 -1.234375zm2.625 3.796875q-0.046875 -1.234375 -0.78125 -2.09375q-0.71875 -0.859375 -1.859375 -0.859375q-1.078125 0 -1.8125 0.796875q-0.71875 0.796875 -0.890625 2.15625l5.34375 0zm5.6171875 -3.796875q1.5625 0 2.296875 0.6875q0.734375 0.671875 0.734375 1.90625l0 4.484375q0 0.25 0.140625 0.40625q0.140625 0.15625 0.453125 0.15625q0.09375 0 0.171875 0q0.078125 -0.015625 0.140625 -0.0625l0 0.859375q-0.1875 0.03125 -0.328125 0.046875q-0.140625 0.015625 -0.3125 0.015625q-0.65625 0 -0.921875 -0.3125q-0.265625 -0.328125 -0.265625 -1.046875l0 -0.078125l-0.03125 0q-0.625 0.9375 -1.296875 1.3125q-0.671875 0.375 -1.703125 0.375q-1.265625 0 -2.03125 -0.625q-0.75 -0.640625 -0.75 -1.8125q0 -1.1875 0.828125 -1.796875q0.84375 -0.609375 3.71875 -0.859375q0.65625 -0.0625 0.921875 -0.296875q0.265625 -0.25 0.265625 -0.8125q0 -0.84375 -0.515625 -1.265625q-0.5 -0.4375 -1.640625 -0.4375q-1.046875 0 -1.625 0.5q-0.5625 0.484375 -0.59375 1.421875l-1.0 0q0.0625 -1.359375 0.921875 -2.0625q0.875 -0.703125 2.421875 -0.703125zm2.0 3.984375q-0.15625 0.28125 -0.96875 0.390625q-0.796875 0.109375 -1.765625 0.28125q-0.96875 0.15625 -1.46875 0.546875q-0.484375 0.375 -0.484375 1.046875q0 0.734375 0.546875 1.1875q0.546875 0.453125 1.296875 0.453125q1.234375 0 2.046875 -0.734375q0.828125 -0.734375 0.828125 -1.8125l0 -1.359375l-0.03125 0zm6.8828125 -3.859375l0.25 0l0 1.015625l-0.125 0q-1.328125 0 -2.140625 0.859375q-0.8125 0.84375 -0.8125 2.125l0 4.375l-1.0 0l0 -8.265625l0.921875 0l0 1.9375l0.03125 0q0.375 -0.96875 1.140625 -1.5q0.765625 -0.546875 1.734375 -0.546875z" fill-rule="nonzero"/><path fill="#000000" fill-opacity="0.0" d="m331.63647 349.1601l0 -7.716522l-87.08661 0" fill-rule="evenodd"/><path stroke="#595959" stroke-width="1.0" stroke-linejoin="round" stroke-linecap="butt" d="m331.63647 349.1601l0 -7.716522l-81.08661 0" fill-rule="evenodd"/><path fill="#595959" stroke="#595959" stroke-width="1.0" stroke-linecap="butt" d="m250.54987 339.79184l-4.538101 1.6517334l4.538101 1.6517334z" fill-rule="evenodd"/><path fill="#000000" fill-opacity="0.0" d="m256.61285 437.24258l74.897644 0l0 -16.094482" fill-rule="evenodd"/><path stroke="#595959" stroke-width="1.0" stroke-linejoin="round" stroke-linecap="butt" d="m256.61285 437.24258l74.897644 0l0 -10.094482" fill-rule="evenodd"/><path fill="#595959" stroke="#595959" stroke-width="1.0" stroke-linecap="butt" d="m333.16223 427.1481l-1.6517334 -4.5381165l-1.6517334 4.5381165z" fill-rule="evenodd"/><path fill="#000000" fill-opacity="0.0" d="m232.61154 422.86127l0 -34.70865l-0.06298828 0l0 -34.70868" fill-rule="evenodd"/><path stroke="#595959" stroke-width="1.0" stroke-linejoin="round" stroke-linecap="butt" d="m232.61154 422.86127l0 -34.70868l-0.06298828 0l0 -28.708649" fill-rule="evenodd"/><path fill="#595959" stroke="#595959" stroke-width="1.0" stroke-linecap="butt" d="m234.20029 359.44394l-1.6517334 -4.538086l-1.6517334 4.538086z" fill-rule="evenodd"/><path fill="#000000" fill-opacity="0.0" d="m169.1378 276.88846c-8.584335 0 -15.54332 -6.9589844 -15.54332 -15.543304l0 -89.38583c0 -8.584335 -6.958969 -15.543304 -15.543304 -15.543304l0 0c8.584335 0 15.543304 -6.9589844 15.543304 -15.54332l0 -89.38582l0 0c0 -8.5843315 6.9589844 -15.543308 15.54332 -15.543308z" fill-rule="evenodd"/><path fill="#000000" fill-opacity="0.0" d="m169.1378 276.88846c-8.584335 0 -15.54332 -6.9589844 -15.54332 -15.543304l0 -89.38583c0 -8.584335 -6.958969 -15.543304 -15.543304 -15.543304l0 0c8.584335 0 15.543304 -6.9589844 15.543304 -15.54332l0 -89.38582l0 0c0 -8.5843315 6.9589844 -15.543308 15.54332 -15.543308" fill-rule="evenodd"/><path stroke="#1155cc" stroke-width="3.0" stroke-linejoin="round" stroke-linecap="butt" d="m169.1378 276.88846c-8.584335 0 -15.54332 -6.9589844 -15.54332 -15.543304l0 -89.38583c0 -8.584335 -6.958969 -15.543304 -15.543304 -15.543304l0 0c8.584335 0 15.543304 -6.9589844 15.543304 -15.54332l0 -89.38582l0 0c0 -8.5843315 6.9589844 -15.543308 15.54332 -15.543308" fill-rule="evenodd"/><path fill="#000000" fill-opacity="0.0" d="m169.1378 455.8191c-8.584335 0 -15.54332 -6.9589844 -15.54332 -15.543304l0 -56.283478c0 -8.58432 -6.958969 -15.543304 -15.543304 -15.543304l0 0c8.584335 0 15.543304 -6.9589844 15.543304 -15.543304l0 -56.283478l0 0c0 -8.58432 6.9589844 -15.543304 15.54332 -15.543304z" fill-rule="evenodd"/><path fill="#000000" fill-opacity="0.0" d="m169.1378 455.8191c-8.584335 0 -15.54332 -6.9589844 -15.54332 -15.543304l0 -56.283478c0 -8.58432 -6.958969 -15.543304 -15.543304 -15.543304l0 0c8.584335 0 15.543304 -6.9589844 15.543304 -15.543304l0 -56.283478l0 0c0 -8.58432 6.9589844 -15.543304 15.54332 -15.543304" fill-rule="evenodd"/><path stroke="#990000" stroke-width="3.0" stroke-linejoin="round" stroke-linecap="butt" d="m169.1378 455.8191c-8.584335 0 -15.54332 -6.9589844 -15.54332 -15.543304l0 -56.283478c0 -8.58432 -6.958969 -15.543304 -15.543304 -15.543304l0 0c8.584335 0 15.543304 -6.9589844 15.543304 -15.543304l0 -56.283478l0 0c0 -8.58432 6.9589844 -15.543304 15.54332 -15.543304" fill-rule="evenodd"/><path fill="#000000" fill-opacity="0.0" d="m10.13959 110.053116l134.92914 0l0 92.72441l-134.92914 0z" fill-rule="evenodd"/><path fill="#000000" fill-opacity="0.0" d="m25.08044 118.73765l110.98828 0l0 30.246086l-110.98828 0l0 -30.246086z" fill-rule="nonzero"/><path fill="#1155cc" d="m35.283566 124.95249l6.40625 17.124992l-3.921875 0l-1.28125 -3.8125l-6.40625 0l-1.359375 3.828125l-3.8125 0l6.515625 -17.140617l3.859375 0zm-2.0 4.2187424l-2.21875 6.296875l4.4375 0l-2.15625 -6.296875l-0.0625 0zm13.4140625 -3.2031174l0 3.7187424l2.5 0l0 2.28125l-2.5 0l0 6.21875q0 0.765625 0.28125 1.0625q0.296875 0.296875 1.171875 0.296875q0.28125 0 0.546875 -0.015625q0.28125 -0.03125 0.5 -0.078125l0 2.671875q-0.421875 0.0625 -0.953125 0.078125q-0.515625 0.03125 -1.015625 0.03125q-2.21875 0 -3.078125 -0.75q-0.859375 -0.765625 -0.859375 -2.125l0 -7.390625l-2.0625 0l0 -2.28125l2.0625 0l0 -3.7187424l3.40625 0zm8.449219 0l0 3.7187424l2.5 0l0 2.28125l-2.5 0l0 6.21875q0 0.765625 0.28125 1.0625q0.296875 0.296875 1.171875 0.296875q0.28125 0 0.546875 -0.015625q0.28125 -0.03125 0.5 -0.078125l0 2.671875q-0.421875 0.0625 -0.953125 0.078125q-0.515625 0.03125 -1.015625 0.03125q-2.21875 0 -3.078125 -0.75q-0.859375 -0.765625 -0.859375 -2.125l0 -7.390625l-2.0625 0l0 -2.28125l2.0625 0l0 -3.7187424l3.40625 0zm9.753902 3.3906174q2.75 0 4.390625 1.890625q1.65625 1.890625 1.65625 4.828125l-0.015625 0.640625l-8.953121 0q0.0625 1.59375 0.828125 2.375q0.765625 0.765625 2.2031212 0.765625q0.921875 0 1.703125 -0.46875q0.796875 -0.46875 1.0 -1.140625l3.0 0q-0.6875 2.109375 -2.140625 3.15625q-1.4375 1.03125 -3.671875 1.03125q-2.8749962 0 -4.609371 -1.8125q-1.734375 -1.828125 -1.734375 -4.71875q0 -2.78125 1.78125 -4.65625q1.78125 -1.890625 4.562496 -1.890625zm-2.9218712 5.203125l5.531246 0q-0.234375 -1.375 -0.875 -2.0q-0.640625 -0.640625 -1.84375 -0.640625q-1.2499962 0 -1.9843712 0.703125q-0.71875 0.703125 -0.828125 1.9375zm18.093746 -5.203125q2.375 0 3.4375 1.203125q1.078125 1.1875 1.078125 3.765625l0 7.765625l-3.40625 0l0 -7.109375q0 -1.453125 -0.5 -2.203125q-0.5 -0.75 -1.6875 -0.75q-1.40625 0 -2.03125 0.84375q-0.609375 0.84375 -0.609375 2.59375l0 6.625l-3.40625 0l0 -12.40625l3.234375 0l0 1.734375l0.078125 0q0.625 -1.0 1.609375 -1.53125q1.0 -0.53125 2.203125 -0.53125zm11.4140625 -3.3906174l0 3.7187424l2.5 0l0 2.28125l-2.5 0l0 6.21875q0 0.765625 0.28125 1.0625q0.296875 0.296875 1.171875 0.296875q0.28125 0 0.546875 -0.015625q0.28125 -0.03125 0.5 -0.078125l0 2.671875q-0.421875 0.0625 -0.953125 0.078125q-0.515625 0.03125 -1.015625 0.03125q-2.21875 0 -3.078125 -0.75q-0.859375 -0.765625 -0.859375 -2.125l0 -7.390625l-2.0625 0l0 -2.28125l2.0625 0l0 -3.7187424l3.40625 0zm7.6523438 -1.015625l0 2.8125l-3.421875 0l0 -2.8125l3.421875 0zm0 4.7343674l0 12.40625l-3.421875 0l0 -12.40625l3.421875 0zm8.703125 -0.328125q2.921875 0 4.671875 1.796875q1.765625 1.796875 1.765625 4.75q0 2.96875 -1.78125 4.75q-1.78125 1.78125 -4.65625 1.78125q-2.890625 0 -4.65625 -1.796875q-1.75 -1.796875 -1.75 -4.734375q0 -2.9375 1.734375 -4.734375q1.734375 -1.8125 4.671875 -1.8125zm-3.0 6.546875q0 1.953125 0.796875 2.953125q0.8125 1.0 2.203125 1.0q1.453125 0 2.234375 -1.03125q0.78125 -1.03125 0.78125 -2.921875q0 -1.859375 -0.765625 -2.921875q-0.75 -1.0625 -2.28125 -1.0625q-1.359375 0 -2.171875 1.0q-0.796875 0.984375 -0.796875 2.984375zm18.753906 -6.546875q2.375 0 3.4375 1.203125q1.0781326 1.1875 1.0781326 3.765625l0 7.765625l-3.4062576 0l0 -7.109375q0 -1.453125 -0.5 -2.203125q-0.5 -0.75 -1.6875 -0.75q-1.40625 0 -2.03125 0.84375q-0.609375 0.84375 -0.609375 2.59375l0 6.625l-3.40625 0l0 -12.40625l3.234375 0l0 1.734375l0.078125 0q0.625 -1.0 1.609375 -1.53125q1.0 -0.53125 2.203125 -0.53125zm11.03907 0.546875l0 3.6875l-3.765625 0l0 -3.6875l3.765625 0zm0 8.5l0 3.6875l-3.765625 0l0 -3.6875l3.765625 0z" fill-rule="nonzero"/><path fill="#1155cc" d="m25.08044 143.65312l110.98828 0l0 2.1599884l-110.98828 0l0 -2.1599884z" fill-rule="nonzero"/><path fill="#1155cc" d="m104.853874 153.75249l0 1.40625l-10.203125 0l0 6.1875l9.5625 0l0 1.390625l-9.5625 0l0 6.765625l10.3125 0l0 1.390625l-11.953125 0l0 -17.140625l11.84375 0zm11.0390625 4.75l0 1.078125l-8.1875 10.03125l8.515625 0l0 1.28125l-10.34375 0l0 -1.21875l8.09375 -9.890625l-7.53125 0l0 -1.28125l9.453125 0zm7.921875 -0.15625l0.375 0l0 1.5l-0.171875 0q-2.015625 0 -3.234375 1.296875q-1.203125 1.28125 -1.203125 3.1875l0 6.5625l-1.515625 0l0 -12.390625l1.40625 0l0 2.90625l0.046875 0q0.5625 -1.453125 1.703125 -2.25q1.140625 -0.8125 2.59375 -0.8125zm6.1250076 -0.1875q2.34375 0 3.4375 1.015625q1.109375 1.0 1.109375 2.859375l0 6.71875q0 0.375 0.203125 0.625q0.21875 0.234375 0.6875 0.234375q0.125 0 0.234375 -0.015625q0.125 -0.015625 0.234375 -0.078125l0 1.28125q-0.28125 0.0625 -0.5 0.078125q-0.21875 0.015625 -0.453125 0.015625q-0.984375 0 -1.390625 -0.46875q-0.40625 -0.484375 -0.40625 -1.5625l0 -0.125l-0.046875 0q-0.921875 1.40625 -1.9375 1.96875q-1.015625 0.546875 -2.5625 0.546875q-1.8906326 0 -3.0312576 -0.9375q-1.125 -0.953125 -1.125 -2.6875q0 -1.796875 1.234375 -2.703125q1.25 -0.90625 5.5781326 -1.296875q0.984375 -0.078125 1.375 -0.453125q0.390625 -0.375 0.390625 -1.21875q0 -1.25 -0.765625 -1.890625q-0.75 -0.640625 -2.46875 -0.640625q-1.546875 0 -2.4062576 0.734375q-0.859375 0.734375 -0.90625 2.140625l-1.515625 0q0.109375 -2.03125 1.40625 -3.078125q1.296875 -1.0625 3.6250076 -1.0625zm2.984375 5.953125q-0.234375 0.421875 -1.4375 0.59375q-1.1875 0.15625 -2.640625 0.421875q-1.4531326 0.25 -2.2031326 0.828125q-0.75 0.5625 -0.75 1.578125q0 1.09375 0.8125 1.765625q0.828125 0.671875 1.9531326 0.671875q1.859375 0 3.078125 -1.09375q1.234375 -1.109375 1.234375 -2.71875l0 -2.046875l-0.046875 0z" fill-rule="nonzero"/><path fill="#1155cc" d="m95.79919 182.19312q2.765625 0 4.546875 1.421875q1.78125 1.421875 1.78125 3.90625l-1.625 0q-0.109375 -1.875 -1.421875 -2.90625q-1.3125 -1.03125 -3.25 -1.03125q-2.03125 0 -3.171875 0.875q-1.125 0.875 -1.125 2.53125q0 0.96875 0.578125 1.625q0.578125 0.640625 2.109375 1.015625l3.90625 0.96875q2.40625 0.59375 3.5 1.703125q1.109375 1.09375 1.109375 2.84375q0 2.15625 -1.65625 3.53125q-1.640625 1.375 -4.890625 1.375q-3.203125 0 -5.03125 -1.4375q-1.828125 -1.4375 -1.828125 -4.171875l0 -0.390625l1.640625 0l0 0.125q0 2.265625 1.421875 3.375q1.4375 1.109375 4.15625 1.109375q1.765625 0 3.15625 -0.921875q1.390625 -0.9375 1.390625 -2.5625q0 -2.21875 -3.328125 -3.046875q-3.359375 -0.8125 -4.0 -0.984375q-2.046875 -0.5 -2.96875 -1.5q-0.90625 -1.0 -0.90625 -2.609375q0 -2.0 1.515625 -3.421875q1.53125 -1.421875 4.390625 -1.421875zm14.1484375 4.765625q2.34375 0 3.4375 1.015625q1.109375 1.0 1.109375 2.859375l0 6.71875q0 0.375 0.203125 0.625q0.21875 0.234375 0.6875 0.234375q0.125 0 0.234375 -0.015625q0.125 -0.015625 0.234375 -0.078125l0 1.28125q-0.28125 0.0625 -0.5 0.078125q-0.21875 0.015625 -0.453125 0.015625q-0.984375 0 -1.390625 -0.46875q-0.40625 -0.484375 -0.40625 -1.5625l0 -0.125l-0.046875 0q-0.921875 1.40625 -1.9375 1.96875q-1.015625 0.546875 -2.5625 0.546875q-1.890625 0 -3.03125 -0.9375q-1.125 -0.953125 -1.125 -2.6875q0 -1.796875 1.234375 -2.703125q1.25 -0.90625 5.578125 -1.296875q0.984375 -0.078125 1.375 -0.453125q0.390625 -0.375 0.390625 -1.21875q0 -1.25 -0.765625 -1.890625q-0.75 -0.640625 -2.46875 -0.640625q-1.546875 0 -2.40625 0.734375q-0.859375 0.734375 -0.90625 2.140625l-1.515625 0q0.109375 -2.03125 1.40625 -3.078125q1.296875 -1.0625 3.625 -1.0625zm2.984375 5.953125q-0.234375 0.421875 -1.4375 0.59375q-1.1875 0.15625 -2.640625 0.421875q-1.453125 0.25 -2.203125 0.828125q-0.75 0.5625 -0.75 1.578125q0 1.09375 0.8125 1.765625q0.828125 0.671875 1.953125 0.671875q1.859375 0 3.078125 -1.09375q1.234375 -1.109375 1.234375 -2.71875l0 -2.046875l-0.046875 0zm10.113281 -5.953125q1.28125 0 2.234375 0.609375q0.953125 0.609375 1.3125 1.796875q0.578125 -1.1875 1.6093826 -1.796875q1.03125 -0.609375 2.34375 -0.609375q2.0625 0 3.0625 1.09375q1.015625 1.09375 1.015625 3.125l0 8.515625l-1.5 0l0 -8.421875q0 -1.578125 -0.703125 -2.3125q-0.703125 -0.734375 -2.21875 -0.734375q-1.65625 0 -2.5156326 1.140625q-0.84375 1.125 -0.84375 3.203125l0 7.125l-1.53125 0l0 -8.484375q0 -1.390625 -0.640625 -2.1875q-0.640625 -0.796875 -1.953125 -0.796875q-1.796875 0 -2.75 1.21875q-0.9375 1.21875 -0.9375 3.234375l0 7.015625l-1.515625 0l0 -12.390625l1.40625 0l0 2.09375l0.0625 0q0.640625 -1.21875 1.65625 -1.828125q1.015625 -0.609375 2.40625 -0.609375z" fill-rule="nonzero"/><path fill="#000000" fill-opacity="0.0" d="m10.14042 322.08792l134.92912 0l0 92.72443l-134.92912 0z" fill-rule="evenodd"/><path fill="#000000" fill-opacity="0.0" d="m77.39377 330.77246l58.67578 0l0 30.246094l-58.67578 0l0 -30.246094z" fill-rule="nonzero"/><path fill="#990000" d="m84.36252 336.9873l4.0 11.78125l0.046875 0l3.78125 -11.734375l0.03125 -0.046875l5.28125 0l0 17.140625l-3.53125 0l0 -12.140625l-0.046875 0l-4.1875 12.140625l-2.90625 0l-4.203125 -12.03125l-0.046875 0l0 12.03125l-3.53125 0l0 -17.140625l5.3125 0zm20.226562 0l0 13.96875l8.359375 0l0 3.171875l-12.125 0l0 -17.140625l3.765625 0zm18.304688 0q2.6875 0 4.25 1.515625q1.5625 1.5 1.5625 3.984375q0 2.46875 -1.5625 3.984375q-1.5625 1.515625 -4.25 1.515625l-4.078125 0l0 6.140625l-3.765625 0l0 -17.140625l7.84375 0zm-1.03125 8.0625q1.609375 0 2.390625 -0.609375q0.796875 -0.609375 0.796875 -1.953125q0 -1.3125 -0.765625 -1.9375q-0.75 -0.625 -2.421875 -0.625l-3.046875 0l0 5.125l3.046875 0zm12.7734375 -3.109375l0 3.6875l-3.765625 0l0 -3.6875l3.765625 0zm0 8.5l0 3.6875l-3.765625 0l0 -3.6875l3.765625 0z" fill-rule="nonzero"/><path fill="#010000" fill-opacity="0.0" d="m136.06955 330.77246l0 0l0 30.246094l0 0l0 -30.246094z" fill-rule="nonzero"/><path fill="#990000" d="m77.39377 355.68793l58.67578 0l0 2.1600037l-58.67578 0l0 -2.1600037z" fill-rule="nonzero"/><path fill="#990000" d="m67.885956 365.42792q2.765625 0 4.546875 1.421875q1.78125 1.421875 1.78125 3.90625l-1.625 0q-0.109375 -1.875 -1.421875 -2.90625q-1.3125 -1.03125 -3.25 -1.03125q-2.03125 0 -3.171875 0.875q-1.125 0.875 -1.125 2.53125q0 0.96875 0.578125 1.625q0.578125 0.640625 2.109375 1.015625l3.90625 0.96875q2.40625 0.59375 3.5 1.703125q1.109375 1.09375 1.109375 2.84375q0 2.15625 -1.65625 3.53125q-1.640625 1.375 -4.890625 1.375q-3.203125 0 -5.03125 -1.4375q-1.828125 -1.4375 -1.828125 -4.171875l0 -0.390625l1.640625 0l0 0.125q0 2.265625 1.421875 3.375q1.4375 1.109375 4.15625 1.109375q1.765625 0 3.15625 -0.921875q1.390625 -0.9375 1.390625 -2.5625q0 -2.21875 -3.328125 -3.046875q-3.359375 -0.8125 -4.0 -0.984375q-2.046875 -0.5 -2.96875 -1.5q-0.90625 -1.0 -0.90625 -2.609375q0 -2.0 1.515625 -3.421875q1.53125 -1.421875 4.390625 -1.421875zm11.5703125 1.390625l0 3.71875l2.515625 0l0 1.28125l-2.515625 0l0 8.453125q0 0.9375 0.359375 1.234375q0.359375 0.296875 0.921875 0.296875q0.234375 0 0.546875 -0.015625q0.328125 -0.015625 0.6875 -0.0625l0 1.296875q-0.328125 0.03125 -0.65625 0.03125q-0.328125 0.015625 -0.671875 0.015625q-1.515625 0 -2.109375 -0.578125q-0.59375 -0.578125 -0.59375 -2.0625l0 -8.609375l-2.15625 0l0 -1.28125l2.15625 0l0 -3.71875l1.515625 0zm9.5859375 3.375q2.34375 0 3.4375 1.015625q1.109375 1.0 1.109375 2.859375l0 6.71875q0 0.375 0.203125 0.625q0.21875 0.234375 0.6875 0.234375q0.125 0 0.234375 -0.015625q0.125 -0.015625 0.234375 -0.078125l0 1.28125q-0.28125 0.0625 -0.5 0.078125q-0.21875 0.015625 -0.453125 0.015625q-0.984375 0 -1.390625 -0.46875q-0.40625 -0.484375 -0.40625 -1.5625l0 -0.125l-0.046875 0q-0.921875 1.40625 -1.9375 1.96875q-1.015625 0.546875 -2.5625 0.546875q-1.890625 0 -3.03125 -0.9375q-1.125 -0.953125 -1.125 -2.6875q0 -1.796875 1.234375 -2.703125q1.25 -0.90625 5.578125 -1.296875q0.984375 -0.078125 1.375 -0.453125q0.390625 -0.375 0.390625 -1.21875q0 -1.25 -0.765625 -1.890625q-0.75 -0.640625 -2.46875 -0.640625q-1.546875 0 -2.40625 0.734375q-0.859375 0.734375 -0.90625 2.140625l-1.515625 0q0.109375 -2.03125 1.40625 -3.078125q1.296875 -1.0625 3.625 -1.0625zm2.984375 5.953125q-0.234375 0.421875 -1.4375 0.59375q-1.1875 0.15625 -2.640625 0.421875q-1.453125 0.25 -2.203125 0.828125q-0.75 0.5625 -0.75 1.578125q0 1.09375 0.8125 1.765625q0.828125 0.671875 1.953125 0.671875q1.859375 0 3.078125 -1.09375q1.234375 -1.109375 1.234375 -2.71875l0 -2.046875l-0.046875 0zm10.097656 -5.953125q2.375 0 3.4375 1.15625q1.078125 1.15625 1.078125 3.484375l0 8.09375l-1.5 0l0 -7.828125q0 -1.796875 -0.78125 -2.71875q-0.78125 -0.921875 -2.359375 -0.921875q-1.25 0 -2.15625 0.609375q-0.890625 0.59375 -1.3125 1.609375q-0.421875 1.015625 -0.421875 2.0l0 7.25l-1.515625 0l0 -12.390625l1.515625 0l0 2.140625l0.046875 0q0.421875 -1.109375 1.515625 -1.796875q1.09375 -0.6875 2.453125 -0.6875zm8.921875 -4.40625l0 17.140625l-1.515625 0l0 -17.140625l1.515625 0zm7.8632812 4.40625q2.53125 0 3.984375 1.828125q1.46875 1.828125 1.46875 4.875l0 0.234375l-9.53125 0q0.046875 2.15625 1.15625 3.515625q1.125 1.359375 2.921875 1.359375q1.515625 0 2.484375 -0.765625q0.984375 -0.78125 1.40625 -2.390625l1.515625 0q-0.53125 2.234375 -1.859375 3.34375q-1.3125 1.09375 -3.546875 1.09375q-2.625 0 -4.109375 -1.75q-1.46875 -1.765625 -1.46875 -4.796875q0 -2.890625 1.484375 -4.71875q1.484375 -1.828125 4.09375 -1.828125zm3.9375 5.671875q-0.046875 -1.828125 -1.15625 -3.109375q-1.09375 -1.296875 -2.796875 -1.296875q-1.609375 0 -2.703125 1.203125q-1.09375 1.1875 -1.359375 3.203125l8.015625 0zm3.7695312 -5.328125l4.078125 10.546875l3.8125 -10.546875l1.515625 0l-5.328125 14.15625q-0.53125 1.453125 -1.171875 2.125q-0.640625 0.6875 -2.09375 0.6875q-0.046875 0 -0.53125 -0.03125q-0.46875 -0.015625 -0.65625 -0.078125l0 -1.28125l0.015625 0q0.09375 0.03125 0.421875 0.078125q0.34375 0.046875 0.59375 0.046875q0.9375 0 1.421875 -0.578125q0.484375 -0.5625 1.265625 -2.78125l-4.953125 -12.34375l1.609375 0z" fill-rule="nonzero"/><path fill="#990000" d="m62.64377 394.5873l0 17.140625l-1.625 0l0 -17.140625l1.625 0zm7.6914062 4.40625q2.015625 0 3.203125 1.03125q1.203125 1.03125 1.328125 2.9375l-1.515625 0q-0.0625 -1.3125 -0.953125 -2.0q-0.890625 -0.703125 -2.296875 -0.703125q-1.3125 0 -2.125 0.5625q-0.796875 0.5625 -0.796875 1.5625q0 0.796875 0.71875 1.328125q0.71875 0.515625 1.859375 0.765625l2.59375 0.578125q1.265625 0.296875 2.109375 1.15625q0.84375 0.84375 0.84375 2.15625q0 1.734375 -1.4375 2.734375q-1.421875 0.984375 -3.546875 0.984375q-2.296875 0 -3.609375 -1.09375q-1.296875 -1.109375 -1.484375 -3.28125l1.53125 0q0.078125 1.46875 1.0625 2.28125q1.0 0.8125 2.578125 0.8125q1.40625 0 2.390625 -0.625q1.0 -0.640625 1.0 -1.71875q0 -0.84375 -0.640625 -1.390625q-0.640625 -0.546875 -2.125 -0.875l-1.90625 -0.421875q-1.625 -0.359375 -2.546875 -1.140625q-0.90625 -0.78125 -0.90625 -2.171875q0 -1.609375 1.3125 -2.53125q1.3125 -0.9375 3.359375 -0.9375zm12.027344 0q2.34375 0 3.4375 1.015625q1.109375 1.0 1.109375 2.859375l0 6.71875q0 0.375 0.203125 0.625q0.21875 0.234375 0.6875 0.234375q0.125 0 0.234375 -0.015625q0.125 -0.015625 0.234375 -0.078125l0 1.28125q-0.28125 0.0625 -0.5 0.078125q-0.21875 0.015625 -0.453125 0.015625q-0.984375 0 -1.390625 -0.46875q-0.40625 -0.484375 -0.40625 -1.5625l0 -0.125l-0.046875 0q-0.921875 1.40625 -1.9375 1.96875q-1.015625 0.546875 -2.5625 0.546875q-1.890625 0 -3.03125 -0.9375q-1.125 -0.953125 -1.125 -2.6875q0 -1.796875 1.234375 -2.703125q1.25 -0.90625 5.578125 -1.296875q0.984375 -0.078125 1.375 -0.453125q0.390625 -0.375 0.390625 -1.21875q0 -1.25 -0.765625 -1.890625q-0.75 -0.640625 -2.46875 -0.640625q-1.546875 0 -2.40625 0.734375q-0.859375 0.734375 -0.90625 2.140625l-1.515625 0q0.109375 -2.03125 1.40625 -3.078125q1.296875 -1.0625 3.625 -1.0625zm2.984375 5.953125q-0.234375 0.421875 -1.4375 0.59375q-1.1875 0.15625 -2.640625 0.421875q-1.453125 0.25 -2.203125 0.828125q-0.75 0.5625 -0.75 1.578125q0 1.09375 0.8125 1.765625q0.828125 0.671875 1.953125 0.671875q1.859375 0 3.078125 -1.09375q1.234375 -1.109375 1.234375 -2.71875l0 -2.046875l-0.046875 0zm6.0976562 -10.359375l0 7.109375l0.046875 0q0.4375 -1.25 1.625 -1.96875q1.203125 -0.734375 2.6875 -0.734375q2.59375 0 4.078125 1.828125q1.484375 1.828125 1.484375 4.71875q0 2.921875 -1.5 4.734375q-1.5 1.8125 -4.078125 1.8125q-1.46875 0 -2.671875 -0.703125q-1.203125 -0.703125 -1.734375 -2.015625l-0.046875 0l0 2.359375l-1.40625 0l0 -17.140625l1.515625 0zm0 10.953125q0 2.34375 1.125 3.8125q1.140625 1.453125 3.21875 1.453125q1.90625 0 2.984375 -1.5q1.078125 -1.5 1.078125 -3.765625q0 -2.28125 -1.078125 -3.78125q-1.0625 -1.5 -3.0 -1.5q-2.046875 0 -3.1875 1.453125q-1.140625 1.453125 -1.140625 3.828125zm17.234375 -6.546875q2.53125 0 3.984375 1.828125q1.46875 1.828125 1.46875 4.875l0 0.234375l-9.53125 0q0.046875 2.15625 1.15625 3.515625q1.125 1.359375 2.921875 1.359375q1.515625 0 2.484375 -0.765625q0.984375 -0.78125 1.40625 -2.390625l1.515625 0q-0.53125 2.234375 -1.859375 3.34375q-1.3125 1.09375 -3.546875 1.09375q-2.625 0 -4.109375 -1.75q-1.46875 -1.765625 -1.46875 -4.796875q0 -2.890625 1.484375 -4.71875q1.484375 -1.828125 4.09375 -1.828125zm3.9375 5.671875q-0.046875 -1.828125 -1.15625 -3.109375q-1.09375 -1.296875 -2.796875 -1.296875q-1.609375 0 -2.703125 1.203125q-1.09375 1.1875 -1.359375 3.203125l8.015625 0zm5.0976562 -10.078125l0 17.140625l-1.515625 0l0 -17.140625l1.515625 0zm4.4414062 0l0 17.140625l-1.515625 0l0 -17.140625l1.515625 0zm7.7851562 4.40625q2.34375 0 3.4375 1.015625q1.109375 1.0 1.109375 2.859375l0 6.71875q0 0.375 0.203125 0.625q0.21875 0.234375 0.6875 0.234375q0.125 0 0.234375 -0.015625q0.125 -0.015625 0.234375 -0.078125l0 1.28125q-0.28125 0.0625 -0.5 0.078125q-0.21875 0.015625 -0.453125 0.015625q-0.984375 0 -1.390625 -0.46875q-0.40625 -0.484375 -0.40625 -1.5625l0 -0.125l-0.046875 0q-0.921875 1.40625 -1.9375 1.96875q-1.015625 0.546875 -2.5625 0.546875q-1.890625 0 -3.03125 -0.9375q-1.125 -0.953125 -1.125 -2.6875q0 -1.796875 1.234375 -2.703125q1.25 -0.90625 5.578125 -1.296875q0.984375 -0.078125 1.375 -0.453125q0.390625 -0.375 0.390625 -1.21875q0 -1.25 -0.765625 -1.890625q-0.75 -0.640625 -2.46875 -0.640625q-1.546875 0 -2.40625 0.734375q-0.859375 0.734375 -0.90625 2.140625l-1.515625 0q0.109375 -2.03125 1.40625 -3.078125q1.296875 -1.0625 3.625 -1.0625zm2.984375 5.953125q-0.234375 0.421875 -1.4375 0.59375q-1.1875 0.15625 -2.640625 0.421875q-1.453125 0.25 -2.203125 0.828125q-0.75 0.5625 -0.75 1.578125q0 1.09375 0.8125 1.765625q0.828125 0.671875 1.953125 0.671875q1.859375 0 3.078125 -1.09375q1.234375 -1.109375 1.234375 -2.71875l0 -2.046875l-0.046875 0z" fill-rule="nonzero"/><path fill="#000000" fill-opacity="0.0" d="m232.58136 478.05905l0 -13.212585l0.06300354 0l0 -13.212616" fill-rule="evenodd"/><path stroke="#595959" stroke-width="1.0" stroke-linejoin="round" stroke-linecap="butt" d="m232.58136 478.05905l0 -13.212585l0.06300354 0l0 -7.212616" fill-rule="evenodd"/><path fill="#595959" stroke="#595959" stroke-width="1.0" stroke-linecap="butt" d="m234.2961 457.63385l-1.6517334 -4.538086l-1.6517334 4.538086z" fill-rule="evenodd"/></g></svg>